Jost-LightItalic.ufo
<glyph name="exclam" format="1">
  <advance width="275"/>
  <unicode hex="0021"/>
  <outline>
    <contour>
      <point x="198" y="700" type="line"/>
      <point x="263.5" y="700" type="line"/>
      <point x="165" y="200.5" type="line"/>
      <point x="126.5" y="200.5" type="line"/>
    </contour>
    <contour>
      <point x="77.5" y="24" type="curve" smooth="yes"/>
      <point x="77.5" y="45"/>
      <point x="95" y="62"/>
      <point x="115" y="62" type="curve" smooth="yes"/>
      <point x="135" y="62"/>
      <point x="152.5" y="45"/>
      <point x="152.5" y="24" type="curve" smooth="yes"/>
      <point x="152.5" y="3"/>
      <point x="135" y="-13"/>
      <point x="115" y="-13" type="curve" smooth="yes"/>
      <point x="95" y="-13"/>
      <point x="77.5" y="3"/>
    </contour>
  </outline>
</glyph>
<glyph name="quotedbl" format="1">
  <advance width="426"/>
  <unicode hex="0022"/>
  <outline>
    <contour>
      <point x="220" y="699.5" type="line"/>
      <point x="283" y="699.5" type="line"/>
      <point x="162.5" y="409" type="line"/>
      <point x="126.5" y="408.5" type="line"/>
    </contour>
    <contour>
      <point x="395" y="699.5" type="line"/>
      <point x="457.5" y="699.5" type="line"/>
      <point x="337" y="409" type="line"/>
      <point x="301" y="408.5" type="line"/>
    </contour>
  </outline>
</glyph>
<glyph name="numbersign" format="1">
  <advance width="573"/>
  <unicode hex="0023"/>
  <outline>
    <contour>
      <point x="121.5" y="446" type="line"/>
      <point x="128.5" y="488.5" type="line"/>
      <point x="596.5" y="488.5" type="line"/>
      <point x="589" y="446" type="line"/>
      <point x="464" y="446" type="line"/>
      <point x="454.5" y="446" type="line"/>
      <point x="262" y="446" type="line"/>
      <point x="252.5" y="446" type="line"/>
    </contour>
    <contour>
      <point x="43.5" y="216.5" type="line"/>
      <point x="50.5" y="259" type="line"/>
      <point x="172.5" y="259" type="line"/>
      <point x="183.5" y="259" type="line"/>
      <point x="378.5" y="259" type="line"/>
      <point x="393" y="259" type="line"/>
      <point x="518" y="259" type="line"/>
      <point x="511.5" y="216.5" type="line"/>
    </contour>
    <contour>
      <point x="539" y="699.5" type="line"/>
      <point x="589" y="699.5" type="line"/>
      <point x="303" y="0" type="line"/>
      <point x="253.5" y="0" type="line"/>
      <point x="349.5" y="234" type="line"/>
      <point x="354.5" y="246" type="line"/>
      <point x="441.5" y="460" type="line"/>
      <point x="445.5" y="472" type="line"/>
    </contour>
    <contour>
      <point x="335" y="699.5" type="line"/>
      <point x="385" y="699.5" type="line"/>
      <point x="292.5" y="474" type="line"/>
      <point x="288.5" y="463" type="line"/>
      <point x="199" y="244" type="line"/>
      <point x="195" y="233" type="line"/>
      <point x="99.5" y="0" type="line"/>
      <point x="51" y="0" type="line"/>
    </contour>
  </outline>
</glyph>
<glyph name="dollar" format="1">
  <advance width="562"/>
  <unicode hex="0024"/>
  <outline>
    <contour>
      <point x="356" y="817.5" type="line"/>
      <point x="403.5" y="817.5" type="line"/>
      <point x="381.5" y="681.5" type="line"/>
      <point x="334.5" y="681.5" type="line"/>
    </contour>
    <contour>
      <point x="235" y="27.5" type="line"/>
      <point x="282.5" y="27.5" type="line"/>
      <point x="260.5" y="-111.5" type="line"/>
      <point x="212.5" y="-111.5" type="line"/>
    </contour>
    <contour>
      <point x="488" y="528" type="line"/>
      <point x="470.5" y="591"/>
      <point x="436.5" y="654.5"/>
      <point x="355" y="655.5" type="curve" smooth="yes"/>
      <point x="278" y="656.5"/>
      <point x="216.5" y="609.5"/>
      <point x="205.5" y="540" type="curve" smooth="yes"/>
      <point x="192" y="455.5"/>
      <point x="271.5" y="416.5"/>
      <point x="345" y="385" type="curve" smooth="yes"/>
      <point x="424" y="350.5"/>
      <point x="498.5" y="290"/>
      <point x="485.5" y="183.5" type="curve" smooth="yes"/>
      <point x="470.5" y="73.5"/>
      <point x="387" y="-9"/>
      <point x="260" y="-8.5" type="curve" smooth="yes"/>
      <point x="143.5" y="-8"/>
      <point x="83" y="84.5"/>
      <point x="59" y="187.5" type="curve"/>
      <point x="108.5" y="214" type="line"/>
      <point x="130" y="127"/>
      <point x="169" y="44"/>
      <point x="267.5" y="43.5" type="curve" smooth="yes"/>
      <point x="358.5" y="43"/>
      <point x="416.5" y="101"/>
      <point x="428.5" y="180" type="curve" smooth="yes"/>
      <point x="441.5" y="269.5"/>
      <point x="369.5" y="314.5"/>
      <point x="296" y="346" type="curve" smooth="yes"/>
      <point x="219" y="379.5"/>
      <point x="135.5" y="437.5"/>
      <point x="149.5" y="544.5" type="curve" smooth="yes"/>
      <point x="163.5" y="639.5"/>
      <point x="257.5" y="709"/>
      <point x="359" y="708.5" type="curve" smooth="yes"/>
      <point x="462" y="708"/>
      <point x="517.5" y="632.5"/>
      <point x="535.5" y="555.5" type="curve"/>
    </contour>
  </outline>
</glyph>
<glyph name="percent" format="1">
  <advance width="709"/>
  <unicode hex="0025"/>
  <outline>
    <contour>
      <point x="101" y="554.5" type="curve" smooth="yes"/>
      <point x="114" y="638.5"/>
      <point x="185" y="709.5"/>
      <point x="275.5" y="709.5" type="curve" smooth="yes"/>
      <point x="365.5" y="709.5"/>
      <point x="413" y="635"/>
      <point x="401" y="553.5" type="curve" smooth="yes"/>
      <point x="388" y="469.5"/>
      <point x="316.5" y="398.5"/>
      <point x="226" y="398.5" type="curve" smooth="yes"/>
      <point x="136" y="398.5"/>
      <point x="89" y="473"/>
    </contour>
    <contour>
      <point x="146.5" y="554" type="curve" smooth="yes"/>
      <point x="137.5" y="498.5"/>
      <point x="166" y="442.5"/>
      <point x="230" y="441.5" type="curve" smooth="yes"/>
      <point x="294.5" y="440.5"/>
      <point x="345" y="495.5"/>
      <point x="355" y="554" type="curve" smooth="yes"/>
      <point x="364" y="609.5"/>
      <point x="336" y="665.5"/>
      <point x="272" y="666.5" type="curve" smooth="yes"/>
      <point x="207.5" y="667.5"/>
      <point x="156.5" y="612.5"/>
    </contour>
    <contour>
      <point x="374" y="146.5" type="curve" smooth="yes"/>
      <point x="387" y="230.5"/>
      <point x="458" y="301.5"/>
      <point x="548.5" y="301.5" type="curve" smooth="yes"/>
      <point x="638.5" y="301.5"/>
      <point x="686" y="227"/>
      <point x="674" y="145.5" type="curve" smooth="yes"/>
      <point x="661" y="61.5"/>
      <point x="589.5" y="-9.5"/>
      <point x="499" y="-9.5" type="curve" smooth="yes"/>
      <point x="409" y="-9.5"/>
      <point x="362" y="65"/>
    </contour>
    <contour>
      <point x="419.5" y="146" type="curve" smooth="yes"/>
      <point x="410.5" y="90.5"/>
      <point x="438.5" y="34.5"/>
      <point x="502.5" y="33.5" type="curve" smooth="yes"/>
      <point x="567" y="32.5"/>
      <point x="618" y="87.5"/>
      <point x="628" y="146" type="curve" smooth="yes"/>
      <point x="637" y="201.5"/>
      <point x="608.5" y="257.5"/>
      <point x="544.5" y="258.5" type="curve" smooth="yes"/>
      <point x="480" y="259.5"/>
      <point x="429.5" y="204.5"/>
    </contour>
    <contour>
      <point x="641.5" y="699.5" type="line"/>
      <point x="693" y="699.5" type="line"/>
      <point x="133" y="0" type="line"/>
      <point x="83" y="0" type="line"/>
    </contour>
  </outline>
</glyph>
<glyph name="ampersand" format="2">
  <advance width="655"/>
  <unicode hex="0026"/>
  <outline>
    <contour>
      <point x="246.268" y="400.985" type="line" smooth="yes"/>
      <point x="216.15" y="445.905"/>
      <point x="173.882" y="496.85"/>
      <point x="182.382" y="564.4" type="curve" smooth="yes"/>
      <point x="194.278" y="649.08"/>
      <point x="269.168" y="711.395"/>
      <point x="362.587" y="710.5" type="curve" smooth="yes"/>
      <point x="454.243" y="709.803"/>
      <point x="504.738" y="638.487"/>
      <point x="493.33" y="561.597" type="curve" smooth="yes"/>
      <point x="480.632" y="484.69"/>
      <point x="408.225" y="429.548"/>
      <point x="324.62" y="381.85" type="curve" smooth="yes"/>
      <point x="242.868" y="335.783"/>
      <point x="120.56" y="294.517"/>
      <point x="103.677" y="182.075" type="curve" smooth="yes"/>
      <point x="91.0975" y="96.435"/>
      <point x="152.812" y="40.325"/>
      <point x="239.662" y="39.22" type="curve" smooth="yes"/>
      <point x="395.277" y="36.7075"/>
      <point x="512.34" y="195.773"/>
      <point x="615.185" y="315.197" type="curve"/>
      <point x="652.633" y="289.127" type="line"/>
      <point x="539.317" y="159.627"/>
      <point x="416.205" y="-10.9075"/>
      <point x="232.81" y="-9.5" type="curve" smooth="yes"/>
      <point x="122.205" y="-8.6975"/>
      <point x="33.4075" y="65.9325"/>
      <point x="48.605" y="179.05" type="curve" smooth="yes"/>
      <point x="66.6975" y="315.853"/>
      <point x="204.197" y="366.26"/>
      <point x="291.197" y="413.05" type="curve" smooth="yes"/>
      <point x="362.832" y="452.605"/>
      <point x="429.795" y="499.673"/>
      <point x="441.283" y="561.9" type="curve" smooth="yes"/>
      <point x="449.165" y="613.535"/>
      <point x="420.715" y="662.398"/>
      <point x="358.457" y="663.595" type="curve" smooth="yes"/>
      <point x="293.725" y="664.793"/>
      <point x="245.023" y="619.497"/>
      <point x="236.245" y="563.9" type="curve" smooth="yes"/>
      <point x="228.245" y="511.962"/>
      <point x="259.728" y="470.567"/>
      <point x="288.45" y="428.95" type="curve" smooth="yes"/>
      <point x="585.9" y="0" type="line"/>
      <point x="526.513" y="0" type="line"/>
    </contour>
  </outline>
</glyph>
<glyph name="quotesingle" format="2">
  <advance width="252"/>
  <unicode hex="0027"/>
  <outline>
    <contour>
      <point x="220.042" y="699.5" type="line"/>
      <point x="283.257" y="699.5" type="line"/>
      <point x="162.477" y="408.702" type="line"/>
      <point x="126.438" y="408.4" type="line"/>
    </contour>
  </outline>
</glyph>
<glyph name="parenleft" format="1">
  <advance width="273"/>
  <unicode hex="0028"/>
  <outline>
    <contour>
      <point x="301.5" y="779" type="curve"/>
      <point x="348" y="779" type="line"/>
      <point x="257.5" y="628"/>
      <point x="199" y="463"/>
      <point x="171.5" y="290" type="curve" smooth="yes"/>
      <point x="147" y="125.5"/>
      <point x="151.5" y="-40.5"/>
      <point x="197" y="-200.5" type="curve"/>
      <point x="151.5" y="-200.5" type="line"/>
      <point x="98" y="-43"/>
      <point x="90" y="125.5"/>
      <point x="114" y="290" type="curve" smooth="yes"/>
      <point x="141" y="464"/>
      <point x="203" y="632"/>
    </contour>
  </outline>
</glyph>
<glyph name="parenright" format="1">
  <advance width="273"/>
  <unicode hex="0029"/>
  <outline>
    <contour>
      <point x="27.5" y="-199" type="curve"/>
      <point x="-19" y="-199" type="line"/>
      <point x="71.5" y="-48"/>
      <point x="129.5" y="117"/>
      <point x="157" y="290" type="curve" smooth="yes"/>
      <point x="181.5" y="454.5"/>
      <point x="177" y="620.5"/>
      <point x="131.5" y="780.5" type="curve"/>
      <point x="177" y="780.5" type="line"/>
      <point x="230.5" y="623"/>
      <point x="238.5" y="454.5"/>
      <point x="214.5" y="290" type="curve" smooth="yes"/>
      <point x="187.5" y="116"/>
      <point x="126" y="-52"/>
    </contour>
  </outline>
</glyph>
<glyph name="asterisk" format="2">
  <advance width="574"/>
  <unicode hex="002A"/>
  <outline>
    <contour>
      <point x="527.26" y="592.97" type="line"/>
      <point x="533.403" y="547.695" type="line"/>
      <point x="350.303" y="497.695" type="line"/>
      <point x="344.673" y="529.408" type="line"/>
    </contour>
    <contour>
      <point x="449.755" y="374.598" type="line"/>
      <point x="408.4" y="347.935" type="line"/>
      <point x="333.085" y="503.245" type="line"/>
      <point x="360.575" y="522.765" type="line"/>
    </contour>
    <contour>
      <point x="232.222" y="348.935" type="line"/>
      <point x="197.812" y="377.11" type="line"/>
      <point x="335.702" y="522.16" type="line"/>
      <point x="358.865" y="501.43" type="line"/>
    </contour>
    <contour>
      <point x="173.627" y="548.8" type="line"/>
      <point x="194.357" y="592.668" type="line"/>
      <point x="356.433" y="528.303" type="line"/>
      <point x="341.135" y="497.998" type="line"/>
    </contour>
    <contour>
      <point x="356.955" y="699.5" type="line"/>
      <point x="403.44" y="699.5" type="line"/>
      <point x="363.495" y="513.4" type="line"/>
      <point x="331.178" y="513.4" type="line"/>
    </contour>
  </outline>
</glyph>
<glyph name="plus" format="2">
  <advance width="571"/>
  <unicode hex="002B"/>
  <outline>
    <contour>
      <point x="75.1725" y="229.127" type="line"/>
      <point x="83.63" y="281.175" type="line"/>
      <point x="526.9" y="281.175" type="line"/>
      <point x="517.942" y="228.825" type="line"/>
    </contour>
    <contour>
      <point x="313.408" y="491.6" type="line"/>
      <point x="369.085" y="491.902" type="line"/>
      <point x="286.548" y="18.0975" type="line"/>
      <point x="232.988" y="18.4" type="line"/>
    </contour>
  </outline>
</glyph>
<glyph name="comma" format="2">
  <advance width="285"/>
  <unicode hex="002C"/>
  <outline>
    <contour>
      <point x="143.77" y="102.68" type="line"/>
      <point x="193.7" y="81.95" type="line"/>
      <point x="43.6075" y="-165.445" type="line"/>
      <point x="7.66" y="-151.95" type="line"/>
    </contour>
  </outline>
</glyph>
<glyph name="hyphen" format="2">
  <advance width="203"/>
  <unicode hex="002D"/>
  <outline>
    <contour>
      <point x="16.345" y="225.977" type="line"/>
      <point x="24.5" y="275" type="line"/>
      <point x="219.907" y="275" type="line"/>
      <point x="211.252" y="225.977" type="line"/>
    </contour>
  </outline>
</glyph>
<glyph name="period" format="2">
  <advance width="275"/>
  <unicode hex="002E"/>
  <outline>
    <contour>
      <point x="77.4125" y="24.595" type="curve" smooth="yes"/>
      <point x="77.4125" y="45.3125"/>
      <point x="94.21" y="61.9125"/>
      <point x="114.73" y="61.9125" type="curve" smooth="yes"/>
      <point x="135.25" y="61.9125"/>
      <point x="152.048" y="45.3125"/>
      <point x="152.048" y="24.595" type="curve" smooth="yes"/>
      <point x="152.048" y="3.8775"/>
      <point x="135.25" y="-12.7225"/>
      <point x="114.73" y="-12.7225" type="curve" smooth="yes"/>
      <point x="94.21" y="-12.7225"/>
      <point x="77.4125" y="3.8775"/>
    </contour>
  </outline>
</glyph>
<glyph name="slash" format="2">
  <advance width="483"/>
  <unicode hex="002F"/>
  <outline>
    <contour>
      <point x="509.35" y="699.5" type="line"/>
      <point x="564.003" y="699.303" type="line"/>
      <point x="13.8375" y="-149.5" type="line"/>
      <point x="-38.6975" y="-149" type="line"/>
    </contour>
  </outline>
</glyph>
<glyph name="zero" format="2">
  <advance width="562"/>
  <unicode hex="0030"/>
  <outline>
    <contour>
      <point x="131.787" y="350" type="curve" smooth="yes"/>
      <point x="116.8" y="220.6"/>
      <point x="125.707" y="43.955"/>
      <point x="259.57" y="42.6525" type="curve" smooth="yes"/>
      <point x="393.038" y="41.35"/>
      <point x="475.87" y="204.218"/>
      <point x="496.555" y="350" type="curve" smooth="yes"/>
      <point x="511.543" y="479.4"/>
      <point x="502.635" y="655.847"/>
      <point x="368.772" y="657.15" type="curve" smooth="yes"/>
      <point x="235.305" y="658.452"/>
      <point x="152.472" y="495.783"/>
    </contour>
    <contour>
      <point x="76.6225" y="350" type="curve" smooth="yes"/>
      <point x="101.332" y="526.562"/>
      <point x="209.143" y="710.197"/>
      <point x="373.507" y="709.5" type="curve" smooth="yes"/>
      <point x="539.872" y="708.803"/>
      <point x="571.035" y="511.18"/>
      <point x="551.72" y="350" type="curve" smooth="yes"/>
      <point x="527.01" y="173.438"/>
      <point x="419.2" y="-10.1975"/>
      <point x="254.835" y="-9.5" type="curve" smooth="yes"/>
      <point x="88.47" y="-8.8025"/>
      <point x="57.3075" y="188.82"/>
    </contour>
  </outline>
</glyph>
<glyph name="one" format="2">
  <advance width="420"/>
  <unicode hex="0031"/>
  <outline>
    <contour>
      <point x="157.14" y="598.235" type="line"/>
      <point x="167.912" y="656.727" type="line"/>
      <point x="388.027" y="708.327" type="line"/>
      <point x="265.923" y="0" type="line"/>
      <point x="211.35" y="0" type="line"/>
      <point x="321.077" y="639.68" type="line"/>
    </contour>
  </outline>
</glyph>
<glyph name="two" format="1">
  <advance width="530"/>
  <unicode hex="0032"/>
  <outline>
    <contour>
      <point x="4" y="0" type="line"/>
      <point x="373" y="345" type="line" smooth="yes"/>
      <point x="423" y="392.5"/>
      <point x="468.5" y="443"/>
      <point x="479" y="511" type="curve" smooth="yes"/>
      <point x="490.5" y="581.5"/>
      <point x="451" y="657.5"/>
      <point x="358.5" y="658.5" type="curve" smooth="yes"/>
      <point x="251.5" y="660"/>
      <point x="182.5" y="566"/>
      <point x="163.5" y="460.5" type="curve"/>
      <point x="109.5" y="460.5" type="line"/>
      <point x="132.5" y="595.5"/>
      <point x="222.5" y="711"/>
      <point x="363" y="710.5" type="curve" smooth="yes"/>
      <point x="490.5" y="710"/>
      <point x="549.5" y="606"/>
      <point x="535" y="510" type="curve" smooth="yes"/>
      <point x="523.5" y="432"/>
      <point x="471" y="369"/>
      <point x="413.5" y="315" type="curve" smooth="yes"/>
      <point x="125.5" y="52.5" type="line"/>
      <point x="477" y="52" type="line"/>
      <point x="469" y="0" type="line"/>
    </contour>
  </outline>
</glyph>
<glyph name="three" format="2">
  <advance width="530"/>
  <unicode hex="0033"/>
  <outline>
    <contour>
      <point x="280.512" y="352.215" type="curve"/>
      <point x="285.445" y="388.348" type="line"/>
      <point x="372.58" y="394.15"/>
      <point x="455.41" y="441.705"/>
      <point x="469.99" y="525.74" type="curve" smooth="yes"/>
      <point x="480.767" y="594.418"/>
      <point x="443.51" y="657.965"/>
      <point x="363.488" y="658.965" type="curve" smooth="yes"/>
      <point x="280.595" y="659.965"/>
      <point x="222.602" y="598.51"/>
      <point x="204.93" y="526.5" type="curve"/>
      <point x="152.278" y="526.803" type="line"/>
      <point x="172.975" y="629.908"/>
      <point x="252.71" y="710"/>
      <point x="367.012" y="709.5" type="curve" smooth="yes"/>
      <point x="477.327" y="709"/>
      <point x="539.865" y="621.79"/>
      <point x="525.668" y="527.45" type="curve" smooth="yes"/>
      <point x="508.168" y="418.055"/>
      <point x="397.402" y="356.913"/>
    </contour>
    <contour>
      <point x="255.735" y="-9.5" type="curve" smooth="yes"/>
      <point x="129.235" y="-9.5"/>
      <point x="61.7775" y="75.9875"/>
      <point x="71.0675" y="185" type="curve"/>
      <point x="125.64" y="184.697" type="line"/>
      <point x="119.573" y="103.99"/>
      <point x="165.998" y="43.35"/>
      <point x="260.168" y="42.85" type="curve" smooth="yes"/>
      <point x="350.993" y="42.35"/>
      <point x="424.632" y="103.343"/>
      <point x="437.212" y="187.1" type="curve" smooth="yes"/>
      <point x="452.2" y="286.438"/>
      <point x="365.135" y="333.233"/>
      <point x="278.197" y="338.627" type="curve"/>
      <point x="283.433" y="374.76" type="line"/>
      <point x="400.23" y="370.168"/>
      <point x="510.087" y="310.902"/>
      <point x="491.983" y="180.748" type="curve" smooth="yes"/>
      <point x="476.18" y="68.21"/>
      <point x="375.05" y="-9.5"/>
    </contour>
  </outline>
</glyph>
<glyph name="four" format="1">
  <advance width="553"/>
  <unicode hex="0034"/>
  <outline>
    <contour>
      <point x="18.5" y="141" type="line"/>
      <point x="487.5" y="699" type="line"/>
      <point x="509.5" y="699.5" type="line"/>
      <point x="389" y="0" type="line"/>
      <point x="335" y="0" type="line"/>
      <point x="363" y="162" type="line"/>
      <point x="364.5" y="171" type="line"/>
      <point x="433" y="569" type="line"/>
      <point x="117.079" y="189.5" type="line"/>
      <point x="388" y="189" type="line"/>
      <point x="399" y="189" type="line"/>
      <point x="529" y="189" type="line"/>
      <point x="521" y="140" type="line"/>
    </contour>
  </outline>
</glyph>
<glyph name="five" format="1">
  <advance width="544"/>
  <unicode hex="0035"/>
  <outline>
    <contour>
      <point x="513.5" y="230" type="curve" smooth="yes"/>
      <point x="495" y="86"/>
      <point x="383" y="-9.5"/>
      <point x="248" y="-9.5" type="curve" smooth="yes"/>
      <point x="139" y="-9.5"/>
      <point x="76" y="51.5"/>
      <point x="42.5" y="137.5" type="curve"/>
      <point x="92" y="168" type="line"/>
      <point x="117.5" y="97.5"/>
      <point x="169" y="43"/>
      <point x="252.5" y="42.5" type="curve" smooth="yes"/>
      <point x="360.5" y="42"/>
      <point x="442.5" y="121.5"/>
      <point x="458" y="230" type="curve" smooth="yes"/>
      <point x="471" y="324.5"/>
      <point x="418.5" y="405.5"/>
      <point x="322" y="407.5" type="curve" smooth="yes"/>
      <point x="246.5" y="409"/>
      <point x="186.5" y="377"/>
      <point x="124.5" y="328" type="curve"/>
      <point x="270.5" y="700" type="line"/>
      <point x="592" y="700" type="line"/>
      <point x="584" y="651" type="line"/>
      <point x="306" y="651" type="line"/>
      <point x="208.067" y="411.309" type="line"/>
      <point x="248.224" y="438.386"/>
      <point x="295.815" y="458"/>
      <point x="347.5" y="457.5" type="curve" smooth="yes"/>
      <point x="467.5" y="456.5"/>
      <point x="528.5" y="348.5"/>
    </contour>
  </outline>
</glyph>
<glyph name="six" format="1">
  <advance width="543"/>
  <unicode hex="0036"/>
  <outline>
    <contour>
      <point x="117.5" y="226" type="curve" smooth="yes"/>
      <point x="103.5" y="129.5"/>
      <point x="156" y="41"/>
      <point x="259" y="40.5" type="curve" smooth="yes"/>
      <point x="363" y="40"/>
      <point x="446.5" y="124.5"/>
      <point x="461.5" y="226" type="curve" smooth="yes"/>
      <point x="474.5" y="319"/>
      <point x="420.5" y="406.5"/>
      <point x="323.5" y="407.5" type="curve" smooth="yes"/>
      <point x="216.5" y="408.5"/>
      <point x="133" y="323"/>
    </contour>
    <contour>
      <point x="410" y="699.5" type="line"/>
      <point x="480" y="699.5" type="line"/>
      <point x="209.5" y="389" type="line"/>
      <point x="204.5" y="393" type="line"/>
      <point x="242.5" y="428.5"/>
      <point x="289" y="449"/>
      <point x="344.5" y="448.5" type="curve" smooth="yes"/>
      <point x="461" y="447"/>
      <point x="527.5" y="339"/>
      <point x="513" y="226" type="curve" smooth="yes"/>
      <point x="495.5" y="94"/>
      <point x="389.5" y="-9.5"/>
      <point x="255" y="-9.5" type="curve" smooth="yes"/>
      <point x="121.5" y="-9.5"/>
      <point x="48.5" y="99"/>
      <point x="65.5" y="226" type="curve" smooth="yes"/>
      <point x="74" y="282.5"/>
      <point x="102" y="337"/>
      <point x="135.5" y="377" type="curve" smooth="yes"/>
    </contour>
  </outline>
</glyph>
<glyph name="seven" format="1">
  <advance width="505"/>
  <unicode hex="0037"/>
  <outline>
    <contour>
      <point x="113" y="648" type="line"/>
      <point x="121" y="700" type="line"/>
      <point x="591" y="699.5" type="line"/>
      <point x="143.5" y="0" type="line"/>
      <point x="85" y="0" type="line"/>
      <point x="500" y="647.5" type="line"/>
    </contour>
  </outline>
</glyph>
<glyph name="eight" format="1">
  <advance width="517"/>
  <unicode hex="0038"/>
  <outline>
    <contour>
      <point x="143.5" y="535.5" type="curve" smooth="yes"/>
      <point x="158.5" y="629.5"/>
      <point x="248" y="710"/>
      <point x="351" y="709.5" type="curve" smooth="yes"/>
      <point x="452" y="709"/>
      <point x="517.5" y="626"/>
      <point x="503.5" y="534.5" type="curve" smooth="yes"/>
      <point x="488.5" y="434.5"/>
      <point x="397.5" y="360.5"/>
      <point x="295.5" y="360.5" type="curve" smooth="yes"/>
      <point x="195" y="360.5"/>
      <point x="129" y="438"/>
    </contour>
    <contour>
      <point x="194" y="529" type="curve" smooth="yes"/>
      <point x="184" y="460.5"/>
      <point x="230.5" y="397.5"/>
      <point x="297.5" y="396.5" type="curve" smooth="yes"/>
      <point x="366" y="395.5"/>
      <point x="438.5" y="457"/>
      <point x="450.5" y="529" type="curve" smooth="yes"/>
      <point x="461.5" y="596.5"/>
      <point x="421.5" y="659.5"/>
      <point x="347" y="660.5" type="curve" smooth="yes"/>
      <point x="271.5" y="661.5"/>
      <point x="206" y="600"/>
    </contour>
    <contour>
      <point x="61.5" y="188.5" type="curve" smooth="yes"/>
      <point x="79" y="302"/>
      <point x="184.5" y="383"/>
      <point x="295.5" y="382.5" type="curve" smooth="yes"/>
      <point x="404.5" y="382.5"/>
      <point x="482.5" y="298.5"/>
      <point x="466.5" y="187.5" type="curve" smooth="yes"/>
      <point x="449.5" y="79"/>
      <point x="351.5" y="-10"/>
      <point x="232" y="-9.5" type="curve" smooth="yes"/>
      <point x="114.5" y="-9"/>
      <point x="45.5" y="84"/>
    </contour>
    <contour>
      <point x="114.5" y="194" type="curve" smooth="yes"/>
      <point x="101" y="110"/>
      <point x="149.5" y="40.5"/>
      <point x="236.5" y="39.5" type="curve" smooth="yes"/>
      <point x="324.5" y="38.5"/>
      <point x="402" y="106.5"/>
      <point x="416" y="194" type="curve" smooth="yes"/>
      <point x="428" y="273"/>
      <point x="373" y="345.5"/>
      <point x="293" y="346.5" type="curve" smooth="yes"/>
      <point x="211.5" y="347.5"/>
      <point x="128.5" y="276.5"/>
    </contour>
  </outline>
</glyph>
<glyph name="nine" format="1">
  <advance width="543"/>
  <unicode hex="0039"/>
  <outline>
    <contour>
      <point x="499.5" y="474" type="curve" smooth="yes"/>
      <point x="513.5" y="570.5"/>
      <point x="461" y="659"/>
      <point x="358" y="659.5" type="curve" smooth="yes"/>
      <point x="254" y="660"/>
      <point x="170.5" y="575.5"/>
      <point x="155.5" y="474" type="curve" smooth="yes"/>
      <point x="142.5" y="381"/>
      <point x="196.5" y="293.5"/>
      <point x="293.5" y="292.5" type="curve" smooth="yes"/>
      <point x="400.5" y="291.5"/>
      <point x="484" y="377"/>
    </contour>
    <contour>
      <point x="207" y="0" type="line"/>
      <point x="137" y="0" type="line"/>
      <point x="407.5" y="311" type="line"/>
      <point x="412.5" y="307" type="line"/>
      <point x="374.5" y="271.5"/>
      <point x="328" y="251"/>
      <point x="272.5" y="251.5" type="curve" smooth="yes"/>
      <point x="156" y="253"/>
      <point x="89.5" y="361"/>
      <point x="104" y="474" type="curve" smooth="yes"/>
      <point x="121.5" y="606"/>
      <point x="227.5" y="709.5"/>
      <point x="362" y="709.5" type="curve" smooth="yes"/>
      <point x="495.5" y="709.5"/>
      <point x="568.5" y="601"/>
      <point x="551.5" y="474" type="curve" smooth="yes"/>
      <point x="543" y="417.5"/>
      <point x="515" y="363"/>
      <point x="481.5" y="323" type="curve" smooth="yes"/>
    </contour>
  </outline>
</glyph>
<glyph name="colon" format="2">
  <advance width="291"/>
  <unicode hex="003A"/>
  <outline>
    <contour>
      <point x="77.4125" y="24.595" type="curve" smooth="yes"/>
      <point x="77.4125" y="45.3125"/>
      <point x="94.21" y="61.9125"/>
      <point x="114.73" y="61.9125" type="curve" smooth="yes"/>
      <point x="135.25" y="61.9125"/>
      <point x="152.048" y="45.3125"/>
      <point x="152.048" y="24.595" type="curve" smooth="yes"/>
      <point x="152.048" y="3.8775"/>
      <point x="135.25" y="-12.7225"/>
      <point x="114.73" y="-12.7225" type="curve" smooth="yes"/>
      <point x="94.21" y="-12.7225"/>
      <point x="77.4125" y="3.8775"/>
    </contour>
    <contour>
      <point x="140.24" y="391.955" type="curve" smooth="yes"/>
      <point x="140.24" y="412.673"/>
      <point x="157.037" y="429.272"/>
      <point x="177.558" y="429.272" type="curve" smooth="yes"/>
      <point x="198.077" y="429.272"/>
      <point x="214.875" y="412.673"/>
      <point x="214.875" y="391.955" type="curve" smooth="yes"/>
      <point x="214.875" y="371.238"/>
      <point x="198.077" y="354.637"/>
      <point x="177.558" y="354.637" type="curve" smooth="yes"/>
      <point x="157.037" y="354.637"/>
      <point x="140.24" y="371.238"/>
    </contour>
  </outline>
</glyph>
<glyph name="semicolon" format="2">
  <advance width="299"/>
  <unicode hex="003B"/>
  <outline>
    <contour>
      <point x="169.542" y="391.955" type="curve" smooth="yes"/>
      <point x="169.542" y="412.673"/>
      <point x="186.34" y="429.272"/>
      <point x="206.86" y="429.272" type="curve" smooth="yes"/>
      <point x="227.38" y="429.272"/>
      <point x="244.178" y="412.673"/>
      <point x="244.178" y="391.955" type="curve" smooth="yes"/>
      <point x="244.178" y="371.238"/>
      <point x="227.38" y="354.637"/>
      <point x="206.86" y="354.637" type="curve" smooth="yes"/>
      <point x="186.34" y="354.637"/>
      <point x="169.542" y="371.238"/>
    </contour>
    <contour>
      <point x="143.77" y="102.68" type="line"/>
      <point x="193.7" y="81.95" type="line"/>
      <point x="43.6075" y="-165.445" type="line"/>
      <point x="7.66" y="-151.95" type="line"/>
    </contour>
  </outline>
</glyph>
<glyph name="less" format="1">
  <advance width="621"/>
  <unicode hex="003C"/>
  <outline>
    <contour>
      <point x="164" y="257.5" type="line"/>
      <point x="545" y="76.5" type="line"/>
      <point x="536.5" y="28" type="line"/>
      <point x="77" y="243" type="line"/>
      <point x="82" y="272" type="line"/>
      <point x="615.5" y="488.5" type="line"/>
      <point x="606" y="434.5" type="line"/>
    </contour>
  </outline>
</glyph>
<glyph name="equal" format="1">
  <advance width="596"/>
  <unicode hex="003D"/>
  <outline>
    <contour>
      <point x="63.5" y="158.5" type="line"/>
      <point x="71" y="207" type="line"/>
      <point x="543" y="207" type="line"/>
      <point x="534.5" y="158" type="line"/>
    </contour>
    <contour>
      <point x="87" y="298.5" type="line"/>
      <point x="95" y="347" type="line"/>
      <point x="567" y="347" type="line"/>
      <point x="558.5" y="298" type="line"/>
    </contour>
  </outline>
</glyph>
<glyph name="greater" format="2">
  <advance width="621"/>
  <unicode hex="003E"/>
  <outline>
    <contour>
      <point x="490.135" y="257.092" type="line"/>
      <point x="109.765" y="438.22" type="line"/>
      <point x="118.722" y="487.348" type="line"/>
      <point x="577.617" y="272.192" type="line"/>
      <point x="572.987" y="242.9" type="line"/>
      <point x="39.265" y="26.4425" type="line"/>
      <point x="48.3275" y="80.91" type="line"/>
    </contour>
  </outline>
</glyph>
<glyph name="question" format="2">
  <advance width="534"/>
  <unicode hex="003F"/>
  <outline>
    <contour>
      <point x="476.905" y="507.9" type="curve" smooth="yes"/>
      <point x="491.59" y="593.51"/>
      <point x="441.548" y="659.675"/>
      <point x="346.58" y="660.175" type="curve" smooth="yes"/>
      <point x="271.298" y="660.675"/>
      <point x="216.36" y="618.737"/>
      <point x="172.33" y="566.523" type="curve"/>
      <point x="133.475" y="594.303" type="line"/>
      <point x="189.185" y="659.815"/>
      <point x="254.697" y="710.303"/>
      <point x="357.062" y="709.5" type="curve" smooth="yes"/>
      <point x="475.983" y="708.5"/>
      <point x="546.255" y="616.845"/>
      <point x="529.255" y="507.598" type="curve" smooth="yes"/>
      <point x="509.86" y="395.048"/>
      <point x="400.885" y="319.892"/>
      <point x="284.317" y="308.565" type="curve"/>
      <point x="255.515" y="170.5" type="line"/>
      <point x="216.66" y="170.5" type="line"/>
      <point x="232.178" y="345" type="line"/>
      <point x="247.395" y="345" type="line"/>
      <point x="360.53" y="348.882"/>
      <point x="458.22" y="415"/>
    </contour>
    <contour>
      <point x="172.938" y="24.595" type="curve" smooth="yes"/>
      <point x="172.938" y="45.0358"/>
      <point x="189.681" y="61.9125"/>
      <point x="210.255" y="61.9125" type="curve" smooth="yes"/>
      <point x="231.38" y="61.9125"/>
      <point x="247.375" y="44.3093"/>
      <point x="247.375" y="24.595" type="curve" smooth="yes"/>
      <point x="247.375" y="3.85319"/>
      <point x="230.577" y="-12.7225"/>
      <point x="210.058" y="-12.7225" type="curve" smooth="yes"/>
      <point x="188.882" y="-12.7225"/>
      <point x="172.938" y="4.26544"/>
    </contour>
  </outline>
</glyph>
<glyph name="at" format="1">
  <advance width="747"/>
  <unicode hex="0040"/>
  <outline>
    <contour>
      <point x="266" y="320" type="curve" smooth="yes"/>
      <point x="258" y="262"/>
      <point x="279" y="210.5"/>
      <point x="340" y="208.5" type="curve" smooth="yes"/>
      <point x="413.5" y="206"/>
      <point x="486" y="281.5"/>
      <point x="497.5" y="370" type="curve" smooth="yes"/>
      <point x="505" y="425"/>
      <point x="483" y="480.5"/>
      <point x="424" y="482.5" type="curve" smooth="yes"/>
      <point x="349.5" y="485"/>
      <point x="277.5" y="407.5"/>
    </contour>
    <contour>
      <point x="216.5" y="318.5" type="curve" smooth="yes"/>
      <point x="231" y="436"/>
      <point x="330.5" y="531.5"/>
      <point x="428.5" y="528.5" type="curve" smooth="yes"/>
      <point x="511.5" y="526.5"/>
      <point x="535" y="441"/>
      <point x="525" y="368.5" type="curve" smooth="yes"/>
      <point x="510" y="258.5"/>
      <point x="425" y="160.5"/>
      <point x="325" y="161.5" type="curve" smooth="yes"/>
      <point x="245" y="162.5"/>
      <point x="206" y="235"/>
    </contour>
    <contour>
      <point x="60.5" y="320" type="curve" smooth="yes"/>
      <point x="94" y="530.5"/>
      <point x="271.5" y="710"/>
      <point x="494.5" y="709" type="curve" smooth="yes"/>
      <point x="688" y="708"/>
      <point x="779.5" y="547"/>
      <point x="753.5" y="390" type="curve" smooth="yes"/>
      <point x="737" y="256.5"/>
      <point x="637" y="145.5"/>
      <point x="539.5" y="151" type="curve" smooth="yes"/>
      <point x="472.5" y="154"/>
      <point x="464" y="217"/>
      <point x="478.5" y="278.5" type="curve"/>
      <point x="473.5" y="278.5" type="line"/>
      <point x="551.5" y="519.5" type="line"/>
      <point x="602" y="519.5" type="line"/>
      <point x="521" y="289" type="line" smooth="yes"/>
      <point x="518.5" y="280.5"/>
      <point x="515" y="268"/>
      <point x="513.5" y="259" type="curve" smooth="yes"/>
      <point x="510" y="232"/>
      <point x="511.5" y="199"/>
      <point x="549.5" y="195.5" type="curve" smooth="yes"/>
      <point x="616" y="186"/>
      <point x="696" y="291.5"/>
      <point x="707.5" y="390" type="curve" smooth="yes"/>
      <point x="731.5" y="526"/>
      <point x="658" y="664"/>
      <point x="491" y="665.5" type="curve" smooth="yes"/>
      <point x="292" y="667"/>
      <point x="137.5" y="506.5"/>
      <point x="106.5" y="320" type="curve" smooth="yes"/>
      <point x="82.5" y="163"/>
      <point x="158" y="36.5"/>
      <point x="327" y="34.5" type="curve" smooth="yes"/>
      <point x="414.5" y="33.5"/>
      <point x="481.5" y="57.5"/>
      <point x="548" y="91" type="curve"/>
      <point x="566" y="51.5" type="line"/>
      <point x="497.5" y="18"/>
      <point x="428" y="-9"/>
      <point x="323.5" y="-8.5" type="curve" smooth="yes"/>
      <point x="123" y="-7"/>
      <point x="33" y="137.5"/>
    </contour>
  </outline>
</glyph>
<glyph name="A" format="2">
  <advance width="617"/>
  <unicode hex="0041"/>
  <outline>
    <contour>
      <point x="148.735" y="234.49" type="line"/>
      <point x="174.435" y="286.538" type="line"/>
      <point x="488.983" y="286.538" type="line"/>
      <point x="498.07" y="234.49" type="line"/>
    </contour>
    <contour>
      <point x="385.827" y="599.67" type="line"/>
      <point x="196.665" y="269.135" type="line"/>
      <point x="189.72" y="256.665" type="line"/>
      <point x="42.3625" y="0" type="line"/>
      <point x="-20.4575" y="0" type="line"/>
      <point x="405.86" y="728.008" type="line"/>
      <point x="581.337" y="0" type="line"/>
      <point x="521.24" y="0" type="line"/>
      <point x="463.832" y="253.035" type="line"/>
      <point x="461.215" y="266.32" type="line"/>
    </contour>
  </outline>
</glyph>
<glyph name="B" format="2">
  <advance width="516"/>
  <unicode hex="0042"/>
  <outline>
    <contour>
      <point x="160.528" y="376.623" type="line"/>
      <point x="165.46" y="407.613" type="line"/>
      <point x="270.103" y="407.915" type="line"/>
      <point x="349.348" y="409.007"/>
      <point x="422.488" y="448.68"/>
      <point x="435.962" y="527.9" type="curve" smooth="yes"/>
      <point x="449.135" y="603.342"/>
      <point x="395.248" y="649.675"/>
      <point x="314.947" y="649.977" type="curve" smooth="yes"/>
      <point x="219.762" y="650.28" type="line"/>
      <point x="116.875" y="49.72" type="line"/>
      <point x="218.232" y="50.0225" type="line" smooth="yes"/>
      <point x="320.045" y="50.325"/>
      <point x="402.223" y="106.552"/>
      <point x="418.803" y="206.05" type="curve" smooth="yes"/>
      <point x="433.79" y="298.413"/>
      <point x="364.78" y="358.892"/>
      <point x="274.565" y="359.195" type="curve" smooth="yes"/>
      <point x="157.305" y="359.498" type="line"/>
      <point x="162.54" y="390.488" type="line"/>
      <point x="280.632" y="390.79" type="line" smooth="yes"/>
      <point x="392.375" y="389.882"/>
      <point x="490.572" y="324.272"/>
      <point x="473.06" y="202.722" type="curve" smooth="yes"/>
      <point x="453.757" y="70.5125"/>
      <point x="344.51" y="0"/>
      <point x="213.905" y="0" type="curve" smooth="yes"/>
      <point x="53.45" y="0" type="line"/>
      <point x="173.648" y="700" type="line"/>
      <point x="319.577" y="700" type="line" smooth="yes"/>
      <point x="431.8" y="700"/>
      <point x="509.035" y="639.197"/>
      <point x="491.43" y="530.425" type="curve" smooth="yes"/>
      <point x="474.627" y="428.135"/>
      <point x="380.695" y="378.32"/>
      <point x="271.738" y="376.623" type="curve"/>
    </contour>
  </outline>
</glyph>
<glyph name="C" format="1">
  <advance width="664"/>
  <unicode hex="0043"/>
  <outline>
    <contour>
      <point x="133" y="350" type="curve" smooth="yes"/>
      <point x="109.5" y="194"/>
      <point x="191.5" y="49"/>
      <point x="353.5" y="47.5" type="curve" smooth="yes"/>
      <point x="449" y="46.5"/>
      <point x="527" y="86.5"/>
      <point x="590" y="142" type="curve"/>
      <point x="578.5" y="68.5" type="line"/>
      <point x="513" y="19.5"/>
      <point x="442" y="-9.5"/>
      <point x="348" y="-9" type="curve" smooth="yes"/>
      <point x="152.5" y="-8"/>
      <point x="47" y="163"/>
      <point x="74.5" y="350" type="curve" smooth="yes"/>
      <point x="105" y="547"/>
      <point x="268" y="708"/>
      <point x="466.5" y="709" type="curve" smooth="yes"/>
      <point x="555.5" y="709.5"/>
      <point x="618" y="684"/>
      <point x="674" y="631" type="curve"/>
      <point x="662" y="558" type="line"/>
      <point x="615.5" y="620"/>
      <point x="547.5" y="653"/>
      <point x="461" y="653" type="curve" smooth="yes"/>
      <point x="297" y="652.5"/>
      <point x="160" y="516"/>
    </contour>
  </outline>
</glyph>
<glyph name="D" format="2">
  <advance width="642"/>
  <unicode hex="0044"/>
  <outline>
    <contour>
      <point x="173.042" y="699.5" type="line"/>
      <point x="229.115" y="699.803" type="line"/>
      <point x="108.312" y="0" type="line"/>
      <point x="54.3575" y="0" type="line"/>
    </contour>
    <contour>
      <point x="241.107" y="0" type="curve" smooth="yes"/>
      <point x="83.15" y="0" type="line"/>
      <point x="93.015" y="55.77" type="line"/>
      <point x="246.645" y="55.77" type="line" smooth="yes"/>
      <point x="420.538" y="55.77"/>
      <point x="550.03" y="180.292"/>
      <point x="578.005" y="350" type="curve" smooth="yes"/>
      <point x="603.283" y="511.22"/>
      <point x="521.635" y="644.23"/>
      <point x="350.743" y="644.23" type="curve" smooth="yes"/>
      <point x="193.088" y="644.23" type="line"/>
      <point x="202.952" y="700" type="line"/>
      <point x="356.28" y="700" type="line" smooth="yes"/>
      <point x="556.675" y="700"/>
      <point x="661.67" y="540.617"/>
      <point x="633.17" y="350" type="curve" smooth="yes"/>
      <point x="601.972" y="150.79"/>
      <point x="445.108" y="0"/>
    </contour>
  </outline>
</glyph>
<glyph name="E" format="2">
  <advance width="517"/>
  <unicode hex="0045"/>
  <outline>
    <contour>
      <point x="82.8725" y="0" type="line"/>
      <point x="91.33" y="52.35" type="line"/>
      <point x="429.51" y="52.35" type="line"/>
      <point x="420.75" y="0" type="line"/>
    </contour>
    <contour>
      <point x="193.613" y="647.65" type="line"/>
      <point x="202.07" y="700" type="line"/>
      <point x="539.75" y="700" type="line"/>
      <point x="530.99" y="647.65" type="line"/>
    </contour>
    <contour>
      <point x="143.835" y="357.683" type="line"/>
      <point x="152.792" y="409.73" type="line"/>
      <point x="470.973" y="409.73" type="line"/>
      <point x="462.212" y="357.683" type="line"/>
    </contour>
    <contour>
      <point x="173.042" y="699.803" type="line"/>
      <point x="229.115" y="699.803" type="line"/>
      <point x="108.312" y="0" type="line"/>
      <point x="54.3575" y="0" type="line"/>
    </contour>
  </outline>
</glyph>
<glyph name="F" format="1">
  <advance width="465"/>
  <unicode hex="0046"/>
  <outline>
    <contour>
      <point x="193.5" y="648" type="line"/>
      <point x="202" y="700" type="line"/>
      <point x="501" y="700" type="line"/>
      <point x="492" y="648" type="line"/>
    </contour>
    <contour>
      <point x="143" y="353.5" type="line"/>
      <point x="152" y="405" type="line"/>
      <point x="441" y="405" type="line"/>
      <point x="432" y="353" type="line"/>
    </contour>
    <contour>
      <point x="173" y="700" type="line"/>
      <point x="228.5" y="700" type="line"/>
      <point x="108" y="0" type="line"/>
      <point x="54.5" y="0" type="line"/>
    </contour>
  </outline>
</glyph>
<glyph name="G" format="1">
  <advance width="748"/>
  <unicode hex="0047"/>
  <outline>
    <contour>
      <point x="421.5" y="297" type="line"/>
      <point x="431" y="348.5" type="line"/>
      <point x="733" y="348.5" type="line"/>
      <point x="699" y="164.5"/>
      <point x="560.5" y="-9"/>
      <point x="354.5" y="-9" type="curve" smooth="yes"/>
      <point x="155" y="-9"/>
      <point x="47" y="162"/>
      <point x="74.5" y="350" type="curve" smooth="yes"/>
      <point x="105.5" y="548"/>
      <point x="271" y="709"/>
      <point x="473.5" y="709" type="curve" smooth="yes"/>
      <point x="591" y="709.5"/>
      <point x="678" y="653.5"/>
      <point x="727.5" y="558.5" type="curve"/>
      <point x="683.5" y="524" type="line"/>
      <point x="646" y="605"/>
      <point x="569.5" y="654"/>
      <point x="468" y="653.5" type="curve" smooth="yes"/>
      <point x="299" y="653.5"/>
      <point x="160" y="517.5"/>
      <point x="132.5" y="350" type="curve" smooth="yes"/>
      <point x="108.5" y="192.5"/>
      <point x="192.5" y="47"/>
      <point x="360" y="46.5" type="curve" smooth="yes"/>
      <point x="517.149" y="46"/>
      <point x="621.249" y="166.84"/>
      <point x="665.023" y="297" type="curve"/>
    </contour>
  </outline>
</glyph>
<glyph name="H" format="1">
  <advance width="666"/>
  <unicode hex="0048"/>
  <outline>
    <contour>
      <point x="143.5" y="355" type="line"/>
      <point x="152" y="407" type="line"/>
      <point x="611" y="407" type="line"/>
      <point x="602.5" y="355" type="line"/>
    </contour>
    <contour>
      <point x="623.5" y="699.5" type="line"/>
      <point x="680" y="700" type="line"/>
      <point x="558.5" y="0" type="line"/>
      <point x="505" y="0" type="line"/>
    </contour>
    <contour>
      <point x="173" y="699.5" type="line"/>
      <point x="228.5" y="700" type="line"/>
      <point x="108" y="0" type="line"/>
      <point x="54.5" y="0" type="line"/>
    </contour>
  </outline>
</glyph>
<glyph name="I" format="1">
  <advance width="212"/>
  <unicode hex="0049"/>
  <outline>
    <contour>
      <point x="171.5" y="700" type="line"/>
      <point x="226.5" y="700" type="line"/>
      <point x="105.5" y="0" type="line"/>
      <point x="52.5" y="0" type="line"/>
    </contour>
  </outline>
</glyph>
<glyph name="J" format="1">
  <advance width="215"/>
  <unicode hex="004A"/>
  <outline>
    <contour>
      <point x="-138.5" y="-126.5" type="line"/>
      <point x="-120" y="-149.5"/>
      <point x="-94" y="-168"/>
      <point x="-57.5" y="-167.5" type="curve" smooth="yes"/>
      <point x="2" y="-167"/>
      <point x="38" y="-120"/>
      <point x="47.5" y="-50" type="curve" smooth="yes"/>
      <point x="176" y="700" type="line"/>
      <point x="228.5" y="700" type="line"/>
      <point x="98.5" y="-60.5" type="line" smooth="yes"/>
      <point x="83.5" y="-155.5"/>
      <point x="29.5" y="-220.5"/>
      <point x="-65" y="-219.5" type="curve" smooth="yes"/>
      <point x="-113" y="-219"/>
      <point x="-152.5" y="-193"/>
      <point x="-173" y="-167.5" type="curve"/>
    </contour>
  </outline>
</glyph>
<glyph name="K" format="1">
  <advance width="504"/>
  <unicode hex="004B"/>
  <outline>
    <contour>
      <point x="171.5" y="700" type="line"/>
      <point x="226.5" y="700" type="line"/>
      <point x="106" y="0" type="line"/>
      <point x="52.5" y="0" type="line"/>
    </contour>
    <contour>
      <point x="505.5" y="699.5" type="line"/>
      <point x="576.5" y="699.5" type="line"/>
      <point x="219" y="370.5" type="line"/>
      <point x="468.5" y="0" type="line"/>
      <point x="403" y="0" type="line"/>
      <point x="153.5" y="372.5" type="line"/>
    </contour>
  </outline>
</glyph>
<glyph name="L" format="1">
  <advance width="428"/>
  <unicode hex="004C"/>
  <outline>
    <contour>
      <point x="173.5" y="700" type="line"/>
      <point x="228.5" y="700" type="line"/>
      <point x="117" y="52" type="line"/>
      <point x="397.5" y="52" type="line"/>
      <point x="388.5" y="0" type="line"/>
      <point x="53.5" y="0" type="line"/>
    </contour>
  </outline>
</glyph>
<glyph name="M" format="2">
  <advance width="793"/>
  <unicode hex="004D"/>
  <outline>
    <contour>
      <point x="226.803" y="552.29" type="line"/>
      <point x="73.67" y="0" type="line"/>
      <point x="18.0975" y="0" type="line"/>
      <point x="222.265" y="727.403" type="line"/>
      <point x="401.13" y="190.79" type="line"/>
      <point x="767.475" y="729.717" type="line"/>
      <point x="719.803" y="0" type="line"/>
      <point x="665.138" y="0" type="line"/>
      <point x="702.352" y="549.475" type="line"/>
      <point x="383.82" y="79.9975" type="line"/>
    </contour>
  </outline>
</glyph>
<glyph name="N" format="1">
  <advance width="709"/>
  <unicode hex="004E"/>
  <outline>
    <contour>
      <point x="674.5" y="700" type="line"/>
      <point x="729" y="700" type="line"/>
      <point x="604" y="-26.5" type="line"/>
      <point x="193.5" y="581.649" type="line"/>
      <point x="92.5" y="0" type="line"/>
      <point x="37.5" y="0" type="line"/>
      <point x="162.5" y="726.5" type="line"/>
      <point x="573.5" y="116.434" type="line"/>
    </contour>
  </outline>
</glyph>
<glyph name="O" format="2">
  <advance width="760"/>
  <unicode hex="004F"/>
  <outline>
    <contour>
      <point x="132.838" y="350" type="curve" smooth="yes"/>
      <point x="109.06" y="194.188"/>
      <point x="190.683" y="47.665"/>
      <point x="359.087" y="46.8625" type="curve" smooth="yes"/>
      <point x="529.492" y="46.06"/>
      <point x="666.065" y="185.398"/>
      <point x="693.04" y="350" type="curve" smooth="yes"/>
      <point x="716.817" y="505.812"/>
      <point x="635.195" y="652.335"/>
      <point x="466.79" y="653.138" type="curve" smooth="yes"/>
      <point x="296.385" y="653.94"/>
      <point x="159.812" y="514.602"/>
    </contour>
    <contour>
      <point x="74.6475" y="350" type="curve" smooth="yes"/>
      <point x="105.147" y="545.803"/>
      <point x="269.895" y="709.71"/>
      <point x="471.827" y="709.21" type="curve" smooth="yes"/>
      <point x="671.155" y="708.71"/>
      <point x="778.533" y="536.71"/>
      <point x="751.23" y="350" type="curve" smooth="yes"/>
      <point x="720.73" y="154.197"/>
      <point x="555.68" y="-9.71"/>
      <point x="353.748" y="-9.21" type="curve" smooth="yes"/>
      <point x="154.42" y="-8.71"/>
      <point x="47.345" y="163.29"/>
    </contour>
  </outline>
</glyph>
<glyph name="P" format="1">
  <advance width="504"/>
  <unicode hex="0050"/>
  <outline>
    <contour>
      <point x="173" y="699.5" type="line"/>
      <point x="228.5" y="700" type="line"/>
      <point x="108" y="0" type="line"/>
      <point x="54.5" y="0" type="line"/>
    </contour>
    <contour>
      <point x="194" y="648" type="line"/>
      <point x="203.5" y="700" type="line"/>
      <point x="331" y="700" type="line" smooth="yes"/>
      <point x="455.5" y="700"/>
      <point x="539.5" y="615"/>
      <point x="520.5" y="492.5" type="curve" smooth="yes"/>
      <point x="501" y="367"/>
      <point x="392" y="286"/>
      <point x="264" y="286" type="curve" smooth="yes"/>
      <point x="132.5" y="286" type="line"/>
      <point x="141.5" y="338" type="line"/>
      <point x="269.5" y="338" type="line" smooth="yes"/>
      <point x="369" y="339"/>
      <point x="449" y="396"/>
      <point x="465.5" y="493" type="curve" smooth="yes"/>
      <point x="481" y="587.5"/>
      <point x="422" y="647"/>
      <point x="326" y="647.5" type="curve" smooth="yes"/>
    </contour>
  </outline>
</glyph>
<glyph name="Q" format="2">
  <advance width="758"/>
  <unicode hex="0051"/>
  <outline>
    <contour>
      <point x="132.838" y="350" type="curve" smooth="yes"/>
      <point x="109.06" y="194.188"/>
      <point x="190.683" y="47.665"/>
      <point x="359.087" y="46.8625" type="curve" smooth="yes"/>
      <point x="529.492" y="46.06"/>
      <point x="666.065" y="185.398"/>
      <point x="693.04" y="350" type="curve" smooth="yes"/>
      <point x="716.817" y="505.812"/>
      <point x="635.195" y="652.335"/>
      <point x="466.79" y="653.138" type="curve" smooth="yes"/>
      <point x="296.385" y="653.94"/>
      <point x="159.812" y="514.602"/>
    </contour>
    <contour>
      <point x="74.6475" y="350" type="curve" smooth="yes"/>
      <point x="105.147" y="545.803"/>
      <point x="270.197" y="709.71"/>
      <point x="472.13" y="709.21" type="curve" smooth="yes"/>
      <point x="671.457" y="708.71"/>
      <point x="778.533" y="536.71"/>
      <point x="751.23" y="350" type="curve" smooth="yes"/>
      <point x="720.73" y="154.197"/>
      <point x="555.68" y="-9.71"/>
      <point x="353.748" y="-9.21" type="curve" smooth="yes"/>
      <point x="154.42" y="-8.71"/>
      <point x="47.345" y="163.29"/>
    </contour>
    <contour>
      <point x="400.808" y="300" type="line"/>
      <point x="469.35" y="300" type="line"/>
      <point x="717.447" y="0" type="line"/>
      <point x="648.707" y="0" type="line"/>
    </contour>
  </outline>
</glyph>
<glyph name="R" format="1">
  <advance width="507"/>
  <unicode hex="0052"/>
  <outline>
    <contour>
      <point x="226.5" y="334" type="line"/>
      <point x="285.5" y="334" type="line"/>
      <point x="460.5" y="0" type="line"/>
      <point x="396" y="0" type="line"/>
    </contour>
    <contour>
      <point x="173" y="700" type="line"/>
      <point x="228.5" y="700" type="line"/>
      <point x="108" y="0" type="line"/>
      <point x="54.5" y="0" type="line"/>
    </contour>
    <contour>
      <point x="192.5" y="651" type="line"/>
      <point x="201.5" y="700" type="line"/>
      <point x="327.5" y="700" type="line" smooth="yes"/>
      <point x="453.5" y="700"/>
      <point x="544.5" y="621"/>
      <point x="525" y="496.5" type="curve" smooth="yes"/>
      <point x="505" y="370"/>
      <point x="392" y="295"/>
      <point x="261.5" y="294" type="curve" smooth="yes"/>
      <point x="131.5" y="294" type="line"/>
      <point x="140.5" y="343" type="line"/>
      <point x="266" y="343" type="line" smooth="yes"/>
      <point x="368.5" y="344"/>
      <point x="454" y="399"/>
      <point x="471" y="497" type="curve" smooth="yes"/>
      <point x="487" y="593"/>
      <point x="420" y="650"/>
      <point x="322.5" y="651" type="curve" smooth="yes"/>
    </contour>
  </outline>
</glyph>
<glyph name="S" format="2">
  <advance width="508"/>
  <unicode hex="0053"/>
  <outline>
    <contour>
      <point x="93.72" y="214.545" type="line"/>
      <point x="113.98" y="129.465"/>
      <point x="150.875" y="44.7325"/>
      <point x="249.04" y="44.035" type="curve" smooth="yes"/>
      <point x="340.327" y="43.3375"/>
      <point x="399.24" y="100.793"/>
      <point x="412.623" y="179.84" type="curve" smooth="yes"/>
      <point x="427.03" y="268.895"/>
      <point x="356.202" y="314.913"/>
      <point x="283.215" y="346.295" type="curve" smooth="yes"/>
      <point x="206.727" y="379.283"/>
      <point x="123.66" y="430.048"/>
      <point x="138.857" y="538.202" type="curve" smooth="yes"/>
      <point x="154.567" y="637.87"/>
      <point x="244.895" y="708.908"/>
      <point x="352.113" y="708.71" type="curve" smooth="yes"/>
      <point x="455.717" y="708.513"/>
      <point x="506.188" y="635.68"/>
      <point x="526.38" y="555.445" type="curve"/>
      <point x="477.962" y="527.732" type="line"/>
      <point x="461.202" y="590.565"/>
      <point x="423.308" y="654.86"/>
      <point x="341.63" y="655.36" type="curve" smooth="yes"/>
      <point x="267.848" y="655.86"/>
      <point x="207.115" y="605.67"/>
      <point x="195.838" y="537.295" type="curve" smooth="yes"/>
      <point x="181.955" y="456.618"/>
      <point x="260.22" y="416.415"/>
      <point x="332.973" y="384.94" type="curve" smooth="yes"/>
      <point x="411.762" y="350.243"/>
      <point x="484.51" y="290.033"/>
      <point x="470.207" y="183.773" type="curve" smooth="yes"/>
      <point x="453.603" y="74.1975"/>
      <point x="365.175" y="-9.105"/>
      <point x="241.28" y="-8.71" type="curve" smooth="yes"/>
      <point x="125.002" y="-8.315"/>
      <point x="66.26" y="84.69"/>
      <point x="43.4875" y="187.555" type="curve"/>
    </contour>
  </outline>
</glyph>
<glyph name="T" format="1">
  <advance width="437"/>
  <unicode hex="0054"/>
  <outline>
    <contour>
      <point x="96" y="648" type="line"/>
      <point x="105.5" y="700" type="line"/>
      <point x="517.5" y="700" type="line"/>
      <point x="508" y="648" type="line"/>
      <point x="329.5" y="648" type="line"/>
      <point x="218.5" y="0" type="line"/>
      <point x="164" y="0" type="line"/>
      <point x="275" y="648" type="line"/>
    </contour>
  </outline>
</glyph>
<glyph name="U" format="2">
  <advance width="587"/>
  <unicode hex="0055"/>
  <outline>
    <contour>
      <point x="169.148" y="699.803" type="line"/>
      <point x="224.115" y="699.803" type="line"/>
      <point x="142.22" y="226.05" type="line" smooth="yes"/>
      <point x="129.338" y="128.502"/>
      <point x="165.294" y="43.4425"/>
      <point x="272.57" y="43.245" type="curve" smooth="yes"/>
      <point x="386.495" y="43.0475"/>
      <point x="451.742" y="123.303"/>
      <point x="468.438" y="226.05" type="curve" smooth="yes"/>
      <point x="550.03" y="699.803" type="line"/>
      <point x="605.195" y="699.803" type="line"/>
      <point x="524.102" y="226.05" type="line" smooth="yes"/>
      <point x="502.661" y="95.2618"/>
      <point x="417.158" y="-9.6975"/>
      <point x="268.137" y="-9.5" type="curve" smooth="yes"/>
      <point x="129.705" y="-9.3025"/>
      <point x="69.4375" y="100.618"/>
      <point x="87.8575" y="226.05" type="curve" smooth="yes"/>
    </contour>
  </outline>
</glyph>
<glyph name="V" format="1">
  <advance width="616"/>
  <unicode hex="0056"/>
  <outline>
    <contour>
      <point x="305.5" y="101" type="line"/>
      <point x="638.5" y="699.5" type="line"/>
      <point x="700.5" y="699.5" type="line"/>
      <point x="287" y="-28" type="line"/>
      <point x="100" y="700" type="line"/>
      <point x="159" y="700" type="line"/>
    </contour>
  </outline>
</glyph>
<glyph name="W" format="1">
  <advance width="944"/>
  <unicode hex="0057"/>
  <outline>
    <contour>
      <point x="678.455" y="120.325" type="line"/>
      <point x="962.5" y="699.5" type="line"/>
      <point x="1024" y="699.5" type="line"/>
      <point x="658.5" y="-28.5" type="line"/>
      <point x="545" y="574.5" type="line"/>
      <point x="243.5" y="-28.5" type="line"/>
      <point x="104.5" y="700" type="line"/>
      <point x="163.5" y="700" type="line"/>
      <point x="266.545" y="120.325" type="line"/>
      <point x="568" y="728.5" type="line"/>
    </contour>
  </outline>
</glyph>
<glyph name="X" format="1">
  <advance width="517"/>
  <unicode hex="0058"/>
  <outline>
    <contour>
      <point x="515" y="699.5" type="line"/>
      <point x="581.5" y="699.5" type="line"/>
      <point x="327.5" y="365.5" type="line"/>
      <point x="486" y="0" type="line"/>
      <point x="423.5" y="0" type="line"/>
      <point x="294" y="317" type="line"/>
      <point x="61" y="0" type="line"/>
      <point x="-5.5" y="0" type="line"/>
      <point x="274" y="368.5" type="line"/>
      <point x="129" y="700" type="line"/>
      <point x="192" y="700" type="line"/>
      <point x="307.5" y="416.5" type="line"/>
    </contour>
  </outline>
</glyph>
<glyph name="Y" format="2">
  <advance width="523"/>
  <unicode hex="0059"/>
  <outline>
    <contour>
      <point x="545.702" y="699.303" type="line"/>
      <point x="609.22" y="699.303" type="line"/>
      <point x="309.165" y="286.465" type="line"/>
      <point x="259.837" y="0" type="line"/>
      <point x="204.673" y="0" type="line"/>
      <point x="255.407" y="289.188" type="line"/>
      <point x="101.555" y="700" type="line"/>
      <point x="161.548" y="700" type="line"/>
      <point x="289.132" y="339.58" type="line"/>
    </contour>
  </outline>
</glyph>
<glyph name="Z" format="1">
  <advance width="524"/>
  <unicode hex="005A"/>
  <outline>
    <contour>
      <point x="118.5" y="648" type="line"/>
      <point x="128" y="700" type="line"/>
      <point x="601.5" y="699.5" type="line"/>
      <point x="89.5" y="52.5" type="line"/>
      <point x="475" y="52.5" type="line"/>
      <point x="465.5" y="0" type="line"/>
      <point x="-12.5" y="0" type="line"/>
      <point x="500" y="647.5" type="line"/>
    </contour>
  </outline>
</glyph>
<glyph name="bracketleft" format="2">
  <advance width="275"/>
  <unicode hex="005B"/>
  <outline>
    <contour>
      <point x="244.287" y="730.28" type="line"/>
      <point x="104.782" y="-170.28" type="line"/>
      <point x="213.75" y="-170.28" type="line"/>
      <point x="205.898" y="-220" type="line"/>
      <point x="45.1975" y="-220" type="line"/>
      <point x="199.697" y="780" type="line"/>
      <point x="360.2" y="780" type="line"/>
      <point x="352.65" y="730.582" type="line"/>
    </contour>
  </outline>
</glyph>
<glyph name="backslash" format="1">
  <advance width="468"/>
  <unicode hex="005C"/>
  <outline>
    <contour>
      <point x="106.5" y="700.5" type="line"/>
      <point x="161" y="700" type="line"/>
      <point x="426.5" y="0" type="line"/>
      <point x="374" y="0" type="line"/>
    </contour>
  </outline>
</glyph>
<glyph name="bracketright" format="1">
  <advance width="275"/>
  <unicode hex="005D"/>
  <outline>
    <contour>
      <point x="84" y="-171" type="line"/>
      <point x="223" y="731" type="line"/>
      <point x="114" y="731" type="line"/>
      <point x="122" y="780" type="line"/>
      <point x="282" y="780" type="line"/>
      <point x="127.5" y="-220" type="line"/>
      <point x="-32.5" y="-220" type="line"/>
      <point x="-25" y="-171" type="line"/>
    </contour>
  </outline>
</glyph>
<glyph name="asciicircum" format="1">
  <advance width="494"/>
  <unicode hex="005E"/>
  <outline>
    <contour>
      <point x="333" y="649" type="line"/>
      <point x="168" y="460.5" type="line"/>
      <point x="112.5" y="460.5" type="line"/>
      <point x="328.5" y="709.5" type="line"/>
      <point x="352" y="709.5" type="line"/>
      <point x="483.5" y="459.5" type="line"/>
      <point x="432.5" y="459.5" type="line"/>
    </contour>
  </outline>
</glyph>
<glyph name="underscore" format="2">
  <advance width="485"/>
  <unicode hex="005F"/>
  <outline>
    <contour>
      <point x="-48.42" y="-123.218" type="line"/>
      <point x="-42.4875" y="-86.2025" type="line"/>
      <point x="443.618" y="-86.2025" type="line"/>
      <point x="437.685" y="-123.218" type="line"/>
    </contour>
  </outline>
</glyph>
<glyph name="grave" format="2">
  <advance width="354"/>
  <unicode hex="0060"/>
  <outline>
    <contour>
      <point x="168.153" y="673.245" type="line"/>
      <point x="218.7" y="699.803" type="line"/>
      <point x="349.31" y="539.395" type="line"/>
      <point x="318.9" y="520.375" type="line"/>
    </contour>
  </outline>
</glyph>
<glyph name="a" format="2">
  <advance width="541"/>
  <unicode hex="0061"/>
  <outline>
    <contour>
      <point x="473.165" y="459.5" type="line"/>
      <point x="523.095" y="459.803" type="line"/>
      <point x="443.095" y="0" type="line"/>
      <point x="395.178" y="0" type="line"/>
    </contour>
    <contour>
      <point x="49.1475" y="230" type="curve" smooth="yes"/>
      <point x="68.6475" y="363.92"/>
      <point x="175.895" y="471"/>
      <point x="304.512" y="469.803" type="curve" smooth="yes"/>
      <point x="428.408" y="468.605"/>
      <point x="471.105" y="346.785"/>
      <point x="455.303" y="230" type="curve" smooth="yes"/>
      <point x="437.105" y="105.517"/>
      <point x="350.025" y="-9"/>
      <point x="226.537" y="-9.5" type="curve" smooth="yes"/>
      <point x="98.2225" y="-10"/>
      <point x="31.5425" y="102.172"/>
    </contour>
    <contour>
      <point x="101.498" y="230" type="curve" smooth="yes"/>
      <point x="86.8125" y="128.847"/>
      <point x="136.17" y="39.43"/>
      <point x="237.903" y="39.825" type="curve" smooth="yes"/>
      <point x="331.53" y="40.22"/>
      <point x="415.665" y="130.39"/>
      <point x="431.548" y="230" type="curve" smooth="yes"/>
      <point x="444.733" y="322.925"/>
      <point x="399.14" y="418.175"/>
      <point x="306.815" y="420.175" type="curve" smooth="yes"/>
      <point x="204.675" y="422.373"/>
      <point x="118.078" y="336.64"/>
    </contour>
  </outline>
</glyph>
<glyph name="b" format="2">
  <advance width="541"/>
  <unicode hex="0062"/>
  <outline>
    <contour>
      <point x="229.695" y="779.803" type="line"/>
      <point x="95.4975" y="0" type="line"/>
      <point x="43.6475" y="0" type="line"/>
      <point x="177.648" y="779.803" type="line"/>
    </contour>
    <contour>
      <point x="516.99" y="230" type="curve" smooth="yes"/>
      <point x="497.49" y="96.08"/>
      <point x="390.545" y="-11"/>
      <point x="261.928" y="-9.8025" type="curve" smooth="yes"/>
      <point x="138.032" y="-8.605"/>
      <point x="95.335" y="113.215"/>
      <point x="111.138" y="230" type="curve" smooth="yes"/>
      <point x="129.335" y="354.483"/>
      <point x="216.218" y="469"/>
      <point x="339.705" y="469.5" type="curve" smooth="yes"/>
      <point x="468.02" y="470"/>
      <point x="534.595" y="357.827"/>
    </contour>
    <contour>
      <point x="464.942" y="230" type="curve" smooth="yes"/>
      <point x="479.627" y="331.152"/>
      <point x="430.072" y="420.57"/>
      <point x="328.34" y="420.175" type="curve" smooth="yes"/>
      <point x="234.713" y="419.78"/>
      <point x="150.775" y="329.61"/>
      <point x="134.893" y="230" type="curve" smooth="yes"/>
      <point x="121.707" y="137.075"/>
      <point x="167.102" y="41.825"/>
      <point x="259.428" y="39.825" type="curve" smooth="yes"/>
      <point x="361.567" y="37.6275"/>
      <point x="448.363" y="123.36"/>
    </contour>
  </outline>
</glyph>
<glyph name="c" format="2">
  <advance width="466"/>
  <unicode hex="0063"/>
  <outline>
    <contour>
      <point x="102.8" y="230" type="curve" smooth="yes"/>
      <point x="88.72" y="130.675"/>
      <point x="145.292" y="40.93"/>
      <point x="249.315" y="39.825" type="curve" smooth="yes"/>
      <point x="319.235" y="39.22"/>
      <point x="380.365" y="75.2575"/>
      <point x="415.865" y="113.24" type="curve"/>
      <point x="406.605" y="48.105" type="line"/>
      <point x="367.777" y="15.0675"/>
      <point x="309.265" y="-9.5"/>
      <point x="245.185" y="-9.5" type="curve" smooth="yes"/>
      <point x="112.278" y="-9.1975"/>
      <point x="33.6475" y="102.79"/>
      <point x="50.6475" y="230" type="curve" smooth="yes"/>
      <point x="68.845" y="362.408"/>
      <point x="180.555" y="469.395"/>
      <point x="315.265" y="469.5" type="curve" smooth="yes"/>
      <point x="375.647" y="469.5"/>
      <point x="429.567" y="446.735"/>
      <point x="462" y="411.395" type="curve"/>
      <point x="452.438" y="345.957" type="line"/>
      <point x="429.067" y="388.348"/>
      <point x="376.858" y="420.478"/>
      <point x="311.438" y="420.175" type="curve" smooth="yes"/>
      <point x="205.915" y="419.873"/>
      <point x="118.578" y="334.522"/>
    </contour>
  </outline>
</glyph>
<glyph name="e" format="1">
  <advance width="494"/>
  <unicode hex="0065"/>
  <outline>
    <contour>
      <point x="84.5" y="217" type="line"/>
      <point x="91" y="262" type="line"/>
      <point x="426.861" y="262" type="line"/>
      <point x="436.476" y="343.716"/>
      <point x="393.743" y="422.5"/>
      <point x="301.5" y="423.5" type="curve" smooth="yes"/>
      <point x="206" y="424.5"/>
      <point x="128.5" y="346.5"/>
      <point x="111.5" y="249.5" type="curve"/>
      <point x="107.5" y="231" type="line"/>
      <point x="95.5" y="132"/>
      <point x="136" y="40"/>
      <point x="237.5" y="39.5" type="curve" smooth="yes"/>
      <point x="317" y="39"/>
      <point x="369.5" y="85"/>
      <point x="410.5" y="134" type="curve"/>
      <point x="449.5" y="105.5" type="line"/>
      <point x="398" y="44"/>
      <point x="334.5" y="-10"/>
      <point x="227.5" y="-9.5" type="curve" smooth="yes"/>
      <point x="102" y="-8.5"/>
      <point x="40.5" y="108.5"/>
      <point x="55.5" y="231" type="curve" smooth="yes"/>
      <point x="58.5" y="252"/>
      <point x="63" y="272"/>
      <point x="70.5" y="291" type="curve" smooth="yes"/>
      <point x="105" y="391"/>
      <point x="194.5" y="470"/>
      <point x="305.5" y="469.5" type="curve" smooth="yes"/>
      <point x="429" y="469"/>
      <point x="491.5" y="363.5"/>
      <point x="477.5" y="242" type="curve" smooth="yes"/>
      <point x="476.5" y="234"/>
      <point x="474" y="225"/>
      <point x="472.5" y="217" type="curve"/>
    </contour>
  </outline>
</glyph>
<glyph name="f" format="2">
  <advance width="273"/>
  <unicode hex="0066"/>
  <outline>
    <contour>
      <point x="93.6475" y="460" type="line"/>
      <point x="304.428" y="460" type="line"/>
      <point x="295.668" y="410.675" type="line"/>
      <point x="84.69" y="410.675" type="line"/>
    </contour>
    <contour>
      <point x="356.072" y="703.658" type="line"/>
      <point x="343.19" y="722.54"/>
      <point x="326.82" y="736.57"/>
      <point x="303.5" y="736.965" type="curve" smooth="yes"/>
      <point x="251.792" y="737.452"/>
      <point x="226.947" y="683.918"/>
      <point x="218.67" y="631.85" type="curve" smooth="yes"/>
      <point x="110.195" y="0" type="line"/>
      <point x="58.1475" y="0" type="line"/>
      <point x="167.03" y="638.202" type="line" smooth="yes"/>
      <point x="180.042" y="719.84"/>
      <point x="227.025" y="790.908"/>
      <point x="311.865" y="788.71" type="curve" smooth="yes"/>
      <point x="349.97" y="788.013"/>
      <point x="373.785" y="767.34"/>
      <point x="390.798" y="745.143" type="curve"/>
    </contour>
  </outline>
</glyph>
<glyph name="g" format="1">
  <advance width="541"/>
  <unicode hex="0067"/>
  <outline>
    <contour>
      <point x="16" y="-30" type="curve"/>
      <point x="67.5" y="-30.5" type="line"/>
      <point x="60" y="-112"/>
      <point x="102.5" y="-179.5"/>
      <point x="196.5" y="-180.5" type="curve" smooth="yes"/>
      <point x="293" y="-181.5"/>
      <point x="377" y="-103"/>
      <point x="393" y="10" type="curve" smooth="yes"/>
      <point x="470.5" y="460" type="line"/>
      <point x="522.5" y="460" type="line"/>
      <point x="445.5" y="10" type="line" smooth="yes"/>
      <point x="424.5" y="-130"/>
      <point x="325.5" y="-229.5"/>
      <point x="196" y="-229.5" type="curve" smooth="yes"/>
      <point x="72.5" y="-229.5"/>
      <point x="4.5" y="-142.5"/>
    </contour>
    <contour>
      <point x="49" y="230" type="curve" smooth="yes"/>
      <point x="68.5" y="364"/>
      <point x="176" y="471"/>
      <point x="304.5" y="470" type="curve" smooth="yes"/>
      <point x="428.5" y="469"/>
      <point x="471.5" y="346.5"/>
      <point x="455.5" y="230" type="curve" smooth="yes"/>
      <point x="437.5" y="105.5"/>
      <point x="350" y="-9"/>
      <point x="226.5" y="-9.5" type="curve" smooth="yes"/>
      <point x="98" y="-10"/>
      <point x="31.5" y="102.5"/>
    </contour>
    <contour>
      <point x="101.5" y="230" type="curve" smooth="yes"/>
      <point x="86.5" y="128.5"/>
      <point x="136" y="39.5"/>
      <point x="237.5" y="39.5" type="curve" smooth="yes"/>
      <point x="332" y="39.5"/>
      <point x="416" y="131"/>
      <point x="431.5" y="232" type="curve" smooth="yes"/>
      <point x="444.5" y="323"/>
      <point x="398.5" y="418.5"/>
      <point x="306.5" y="420.5" type="curve" smooth="yes"/>
      <point x="204.5" y="422.5"/>
      <point x="118" y="337"/>
    </contour>
  </outline>
</glyph>
<glyph name="h" format="1">
  <advance width="489"/>
  <unicode hex="0068"/>
  <outline>
    <contour>
      <point x="234.5" y="780" type="line"/>
      <point x="100" y="0" type="line"/>
      <point x="48.5" y="0" type="line"/>
      <point x="182.5" y="780" type="line"/>
    </contour>
    <contour>
      <point x="386.5" y="296" type="line" smooth="yes"/>
      <point x="395" y="362.5"/>
      <point x="379" y="419"/>
      <point x="305" y="420.5" type="curve" smooth="yes"/>
      <point x="224.5" y="422"/>
      <point x="165.5" y="352.5"/>
      <point x="147.5" y="281" type="curve"/>
      <point x="129.5" y="281" type="line"/>
      <point x="149" y="379.5"/>
      <point x="220" y="469.5"/>
      <point x="321" y="469.5" type="curve" smooth="yes"/>
      <point x="418" y="469.5"/>
      <point x="450" y="394"/>
      <point x="438.5" y="302" type="curve"/>
      <point x="386" y="0" type="line"/>
      <point x="335.5" y="0" type="line"/>
    </contour>
  </outline>
</glyph>
<glyph name="i" format="2">
  <advance width="225"/>
  <unicode hex="0069"/>
  <outline>
    <contour>
      <point x="162.808" y="667.775" type="curve" smooth="yes"/>
      <point x="162.808" y="688.295"/>
      <point x="179.012" y="704.697"/>
      <point x="199.73" y="704.697" type="curve" smooth="yes"/>
      <point x="220.447" y="704.697"/>
      <point x="236.653" y="688.295"/>
      <point x="236.653" y="667.775" type="curve" smooth="yes"/>
      <point x="236.653" y="647.255"/>
      <point x="220.447" y="630.852"/>
      <point x="199.73" y="630.852" type="curve" smooth="yes"/>
      <point x="179.012" y="630.852"/>
      <point x="162.808" y="647.255"/>
    </contour>
    <contour>
      <point x="137.988" y="459.5" type="line"/>
      <point x="190.942" y="459.5" type="line"/>
      <point x="111.85" y="0" type="line"/>
      <point x="60.105" y="0" type="line"/>
    </contour>
  </outline>
</glyph>
<glyph name="j" format="1">
  <advance width="215"/>
  <unicode hex="006A"/>
  <outline>
    <contour>
      <point x="153" y="668" type="curve" smooth="yes"/>
      <point x="153" y="688"/>
      <point x="169" y="704.5"/>
      <point x="189.5" y="704.5" type="curve" smooth="yes"/>
      <point x="210" y="704.5"/>
      <point x="226.5" y="688"/>
      <point x="226.5" y="668" type="curve" smooth="yes"/>
      <point x="226.5" y="648"/>
      <point x="210" y="631.5"/>
      <point x="189.5" y="631.5" type="curve" smooth="yes"/>
      <point x="169" y="631.5"/>
      <point x="153" y="648"/>
    </contour>
    <contour>
      <point x="-99" y="-134.5" type="line"/>
      <point x="-87" y="-153"/>
      <point x="-67.5" y="-167.5"/>
      <point x="-46.5" y="-168" type="curve" smooth="yes"/>
      <point x="5.5" y="-169"/>
      <point x="31.5" y="-113.5"/>
      <point x="39" y="-63" type="curve" smooth="yes"/>
      <point x="129" y="460" type="line"/>
      <point x="180.5" y="460" type="line"/>
      <point x="90.5" y="-69" type="line" smooth="yes"/>
      <point x="77.5" y="-150.5"/>
      <point x="34" y="-220.5"/>
      <point x="-51" y="-219.5" type="curve" smooth="yes"/>
      <point x="-89" y="-219"/>
      <point x="-116" y="-198"/>
      <point x="-133.5" y="-176" type="curve"/>
    </contour>
  </outline>
</glyph>
<glyph name="k" format="2">
  <advance width="400"/>
  <unicode hex="006B"/>
  <outline>
    <contour>
      <point x="177.042" y="779.5" type="line"/>
      <point x="229.998" y="779.803" type="line"/>
      <point x="95.195" y="0" type="line"/>
      <point x="44.555" y="0" type="line"/>
    </contour>
    <contour>
      <point x="363.45" y="459.303" type="line"/>
      <point x="431.783" y="459.303" type="line"/>
      <point x="185.062" y="266.173" type="line"/>
      <point x="369.072" y="0" type="line"/>
      <point x="306.962" y="0" type="line"/>
      <point x="123.255" y="271.71" type="line"/>
    </contour>
  </outline>
</glyph>
<glyph name="l" format="1">
  <advance width="203"/>
  <unicode hex="006C"/>
  <outline>
    <contour>
      <point x="182" y="779.5" type="line"/>
      <point x="234.5" y="780" type="line"/>
      <point x="99.5" y="0" type="line"/>
      <point x="49.5" y="0" type="line"/>
    </contour>
  </outline>
</glyph>
<glyph name="m" format="1">
  <advance width="721"/>
  <unicode hex="006D"/>
  <outline>
    <contour>
      <point x="359.5" y="296" type="line" smooth="yes"/>
      <point x="367" y="359"/>
      <point x="360" y="418.5"/>
      <point x="291.5" y="420" type="curve" smooth="yes"/>
      <point x="217" y="422"/>
      <point x="163.5" y="350.5"/>
      <point x="147.5" y="281" type="curve"/>
      <point x="129.5" y="281" type="line"/>
      <point x="148" y="376.5"/>
      <point x="212.5" y="470"/>
      <point x="307.5" y="469.5" type="curve" smooth="yes"/>
      <point x="399" y="469"/>
      <point x="421.5" y="390.5"/>
      <point x="411" y="302" type="curve" smooth="yes"/>
      <point x="359" y="0" type="line"/>
      <point x="308.5" y="0" type="line"/>
    </contour>
    <contour>
      <point x="179.5" y="460" type="line"/>
      <point x="100" y="0" type="line"/>
      <point x="48" y="0" type="line"/>
      <point x="128" y="460" type="line"/>
    </contour>
    <contour>
      <point x="670" y="302" type="curve" smooth="yes"/>
      <point x="618.5" y="0" type="line"/>
      <point x="566.5" y="0" type="line"/>
      <point x="618.5" y="296" type="line" smooth="yes"/>
      <point x="626" y="359"/>
      <point x="618.5" y="418.5"/>
      <point x="550" y="420" type="curve" smooth="yes"/>
      <point x="475.5" y="422"/>
      <point x="423" y="350.5"/>
      <point x="407" y="281" type="curve"/>
      <point x="379.5" y="281" type="line"/>
      <point x="398.5" y="377.5"/>
      <point x="470.5" y="470.5"/>
      <point x="566.5" y="469.5" type="curve" smooth="yes"/>
      <point x="658" y="469"/>
      <point x="680.5" y="390.5"/>
    </contour>
  </outline>
</glyph>
<glyph name="n" format="2">
  <advance width="489"/>
  <unicode hex="006E"/>
  <outline>
    <contour>
      <point x="179.893" y="459.803" type="line"/>
      <point x="100.195" y="0" type="line"/>
      <point x="48.1475" y="0" type="line"/>
      <point x="128.148" y="459.803" type="line"/>
    </contour>
    <contour>
      <point x="386.517" y="295.8" type="line" smooth="yes"/>
      <point x="394.808" y="362.25"/>
      <point x="378.925" y="418.873"/>
      <point x="304.827" y="420.175" type="curve" smooth="yes"/>
      <point x="224.058" y="421.478"/>
      <point x="165.775" y="352.363"/>
      <point x="147.998" y="281" type="curve"/>
      <point x="129.99" y="281" type="line"/>
      <point x="149.583" y="379.303"/>
      <point x="219.86" y="469.697"/>
      <point x="321.058" y="469.5" type="curve" smooth="yes"/>
      <point x="417.897" y="469.303"/>
      <point x="449.973" y="393.858"/>
      <point x="438.565" y="301.85" type="curve"/>
      <point x="386.195" y="0" type="line"/>
      <point x="335.555" y="0" type="line"/>
    </contour>
  </outline>
</glyph>
<glyph name="o" format="1">
  <advance width="533"/>
  <unicode hex="006F"/>
  <outline>
    <contour>
      <point x="55.5" y="230" type="curve" smooth="yes"/>
      <point x="73.5" y="362"/>
      <point x="186" y="469.5"/>
      <point x="320.5" y="469.5" type="curve" smooth="yes"/>
      <point x="453.5" y="469.5"/>
      <point x="532" y="357"/>
      <point x="515" y="230" type="curve" smooth="yes"/>
      <point x="497" y="98"/>
      <point x="384.5" y="-9.5"/>
      <point x="250" y="-9.5" type="curve" smooth="yes"/>
      <point x="117" y="-9.5"/>
      <point x="38.5" y="103"/>
    </contour>
    <contour>
      <point x="107.5" y="230" type="curve" smooth="yes"/>
      <point x="93.5" y="131"/>
      <point x="150" y="40"/>
      <point x="254" y="39.5" type="curve" smooth="yes"/>
      <point x="359.5" y="39"/>
      <point x="447.5" y="126"/>
      <point x="463" y="230" type="curve" smooth="yes"/>
      <point x="477" y="329"/>
      <point x="420" y="420"/>
      <point x="316" y="420.5" type="curve" smooth="yes"/>
      <point x="210.5" y="421"/>
      <point x="123" y="334"/>
    </contour>
  </outline>
</glyph>
<glyph name="p" format="2">
  <advance width="541"/>
  <unicode hex="0070"/>
  <outline>
    <contour>
      <point x="58.6025" y="-219.5" type="line"/>
      <point x="5.6475" y="-219.803" type="line"/>
      <point x="123.45" y="459.803" type="line"/>
      <point x="173.985" y="459.5" type="line"/>
    </contour>
    <contour>
      <point x="516.99" y="230" type="curve" smooth="yes"/>
      <point x="497.49" y="96.08"/>
      <point x="390.545" y="-11"/>
      <point x="261.928" y="-9.8025" type="curve" smooth="yes"/>
      <point x="138.032" y="-8.605"/>
      <point x="95.335" y="113.215"/>
      <point x="111.138" y="230" type="curve" smooth="yes"/>
      <point x="129.335" y="354.483"/>
      <point x="216.218" y="469"/>
      <point x="339.705" y="469.5" type="curve" smooth="yes"/>
      <point x="468.02" y="470"/>
      <point x="534.595" y="357.827"/>
    </contour>
    <contour>
      <point x="464.942" y="230" type="curve" smooth="yes"/>
      <point x="479.627" y="331.152"/>
      <point x="430.072" y="420.57"/>
      <point x="328.34" y="420.175" type="curve" smooth="yes"/>
      <point x="234.713" y="419.78"/>
      <point x="150.775" y="329.61"/>
      <point x="134.893" y="230" type="curve" smooth="yes"/>
      <point x="121.707" y="137.075"/>
      <point x="167.102" y="41.825"/>
      <point x="259.428" y="39.825" type="curve" smooth="yes"/>
      <point x="361.567" y="37.6275"/>
      <point x="448.363" y="123.36"/>
    </contour>
  </outline>
</glyph>
<glyph name="q" format="1">
  <advance width="541"/>
  <unicode hex="0071"/>
  <outline>
    <contour>
      <point x="353.5" y="-220" type="line"/>
      <point x="470.5" y="460" type="line"/>
      <point x="522.5" y="460" type="line"/>
      <point x="405" y="-220" type="line"/>
    </contour>
    <contour>
      <point x="49" y="230" type="curve" smooth="yes"/>
      <point x="68.5" y="364"/>
      <point x="176" y="471"/>
      <point x="304.5" y="470" type="curve" smooth="yes"/>
      <point x="428.5" y="469"/>
      <point x="471.5" y="346.5"/>
      <point x="455.5" y="230" type="curve" smooth="yes"/>
      <point x="437.5" y="105.5"/>
      <point x="350" y="-9"/>
      <point x="226.5" y="-9.5" type="curve" smooth="yes"/>
      <point x="98" y="-10"/>
      <point x="31.5" y="102.5"/>
    </contour>
    <contour>
      <point x="101.5" y="230" type="curve" smooth="yes"/>
      <point x="87" y="128.5"/>
      <point x="136" y="39"/>
      <point x="237.5" y="39.5" type="curve" smooth="yes"/>
      <point x="331.5" y="40"/>
      <point x="415.5" y="130.5"/>
      <point x="431.5" y="230" type="curve" smooth="yes"/>
      <point x="444.5" y="323"/>
      <point x="399" y="418.5"/>
      <point x="306.5" y="420.5" type="curve" smooth="yes"/>
      <point x="204.5" y="422.5"/>
      <point x="118" y="337"/>
    </contour>
  </outline>
</glyph>
<glyph name="r" format="1">
  <advance width="311"/>
  <unicode hex="0072"/>
  <outline>
    <contour>
      <point x="179.5" y="460" type="line"/>
      <point x="100" y="0" type="line"/>
      <point x="48" y="0" type="line"/>
      <point x="128" y="460" type="line"/>
    </contour>
    <contour>
      <point x="318.5" y="399.5" type="line"/>
      <point x="301" y="411.5"/>
      <point x="285.5" y="420.5"/>
      <point x="264" y="421" type="curve" smooth="yes"/>
      <point x="193" y="422.5"/>
      <point x="160" y="347.5"/>
      <point x="147.5" y="281" type="curve"/>
      <point x="123.5" y="281" type="line"/>
      <point x="139.5" y="373"/>
      <point x="196" y="470.5"/>
      <point x="280.5" y="469.5" type="curve" smooth="yes"/>
      <point x="308.5" y="469.5"/>
      <point x="331.5" y="459"/>
      <point x="352.5" y="441" type="curve"/>
    </contour>
  </outline>
</glyph>
<glyph name="s" format="2">
  <advance width="391"/>
  <unicode hex="0073"/>
  <outline>
    <contour>
      <point x="76.6875" y="155.773" type="line"/>
      <point x="92.88" y="98.3725"/>
      <point x="124.338" y="40.43"/>
      <point x="189.625" y="39.6275" type="curve" smooth="yes"/>
      <point x="240.673" y="39.1275"/>
      <point x="288.165" y="70.4775"/>
      <point x="295.048" y="119.722" type="curve" smooth="yes"/>
      <point x="303.14" y="174.24"/>
      <point x="252.56" y="199.005"/>
      <point x="202.438" y="218.9" type="curve" smooth="yes"/>
      <point x="140.067" y="244.123"/>
      <point x="83.3225" y="273.237"/>
      <point x="93.6225" y="352.647" type="curve" smooth="yes"/>
      <point x="103.836" y="428.177"/>
      <point x="173.173" y="468.908"/>
      <point x="248.222" y="468.71" type="curve" smooth="yes"/>
      <point x="317.908" y="468.512"/>
      <point x="362.928" y="428.155"/>
      <point x="384.595" y="374.655" type="curve"/>
      <point x="340.11" y="349.572" type="line"/>
      <point x="323.072" y="387.67"/>
      <point x="292.85" y="420.095"/>
      <point x="244.395" y="420.595" type="curve" smooth="yes"/>
      <point x="198.032" y="421.098"/>
      <point x="150.935" y="397.812"/>
      <point x="144.157" y="352.647" type="curve" smooth="yes"/>
      <point x="135.38" y="295.995"/>
      <point x="194.535" y="277.335"/>
      <point x="243.725" y="258.15" type="curve" smooth="yes"/>
      <point x="304.225" y="233.415"/>
      <point x="357.608" y="193.562"/>
      <point x="348.91" y="123.05" type="curve" smooth="yes"/>
      <point x="338.805" y="38.5675"/>
      <point x="270.57" y="-10.105"/>
      <point x="185.192" y="-9.8025" type="curve" smooth="yes"/>
      <point x="96.1622" y="-9.5387"/>
      <point x="51.1175" y="58.005"/>
      <point x="32.8075" y="131.9" type="curve"/>
    </contour>
  </outline>
</glyph>
<glyph name="t" format="2">
  <advance width="213"/>
  <unicode hex="0074"/>
  <outline>
    <contour>
      <point x="61.6475" y="460" type="line"/>
      <point x="258.892" y="460" type="line"/>
      <point x="249.935" y="410.675" type="line"/>
      <point x="52.3875" y="410.675" type="line"/>
    </contour>
    <contour>
      <point x="159.542" y="619.5" type="line"/>
      <point x="212.195" y="619.803" type="line"/>
      <point x="104.892" y="0" type="line"/>
      <point x="54.3575" y="0" type="line"/>
    </contour>
  </outline>
</glyph>
<glyph name="u" format="2">
  <advance width="489"/>
  <unicode hex="0075"/>
  <outline>
    <contour>
      <point x="334.647" y="0" type="line"/>
      <point x="414.147" y="459.803" type="line"/>
      <point x="466.195" y="459.803" type="line"/>
      <point x="386.695" y="0" type="line"/>
    </contour>
    <contour>
      <point x="128.917" y="168.15" type="line" smooth="yes"/>
      <point x="120.43" y="99.725"/>
      <point x="134.93" y="40.93"/>
      <point x="209.713" y="39.825" type="curve" smooth="yes"/>
      <point x="290.483" y="38.5225"/>
      <point x="348.567" y="107.44"/>
      <point x="366.345" y="179" type="curve"/>
      <point x="384.55" y="179" type="line"/>
      <point x="364.957" y="80.6975"/>
      <point x="294.483" y="-9.895"/>
      <point x="193.285" y="-9.5" type="curve" smooth="yes"/>
      <point x="95.26" y="-9.3025"/>
      <point x="64.9625" y="67.92"/>
      <point x="76.5675" y="162.1" type="curve"/>
      <point x="128.45" y="459.803" type="line"/>
      <point x="178.985" y="459.5" type="line"/>
    </contour>
  </outline>
</glyph>
<glyph name="v" format="2">
  <advance width="418"/>
  <unicode hex="0076"/>
  <outline>
    <contour>
      <point x="57.7525" y="460" type="line"/>
      <point x="114.93" y="460" type="line"/>
      <point x="205.347" y="87.6375" type="line"/>
      <point x="411.158" y="459.5" type="line"/>
      <point x="470.952" y="459.5" type="line"/>
      <point x="188.235" y="-28.0075" type="line"/>
    </contour>
  </outline>
</glyph>
<glyph name="w" format="1">
  <advance width="636"/>
  <unicode hex="0077"/>
  <outline>
    <contour>
      <point x="61" y="460" type="line"/>
      <point x="116.5" y="460" type="line"/>
      <point x="174.963" y="107.474" type="line"/>
      <point x="370" y="488.5" type="line"/>
      <point x="440.291" y="105.771" type="line"/>
      <point x="622.5" y="459.5" type="line"/>
      <point x="681" y="459.5" type="line"/>
      <point x="422" y="-28.5" type="line"/>
      <point x="348.785" y="353.12" type="line"/>
      <point x="150" y="-28.5" type="line"/>
    </contour>
  </outline>
</glyph>
<glyph name="x" format="1">
  <advance width="391"/>
  <unicode hex="0078"/>
  <outline>
    <contour>
      <point x="373" y="459.5" type="line"/>
      <point x="434" y="459.5" type="line"/>
      <point x="244.5" y="234.5" type="line"/>
      <point x="370.5" y="0" type="line"/>
      <point x="314" y="0" type="line"/>
      <point x="210" y="197" type="line"/>
      <point x="46" y="0" type="line"/>
      <point x="-15" y="0" type="line"/>
      <point x="188" y="240" type="line"/>
      <point x="67.5" y="460" type="line"/>
      <point x="124.5" y="460" type="line"/>
      <point x="222" y="277.5" type="line"/>
    </contour>
  </outline>
</glyph>
<glyph name="y" format="1">
  <advance width="420"/>
  <unicode hex="0079"/>
  <outline>
    <contour>
      <point x="470.5" y="459.5" type="line"/>
      <point x="62" y="-219.5" type="line"/>
      <point x="3.5" y="-219.5" type="line"/>
      <point x="165.5" y="48.5" type="line"/>
      <point x="55.5" y="460" type="line"/>
      <point x="112.5" y="460" type="line"/>
      <point x="211" y="68" type="line"/>
      <point x="187" y="70.5" type="line"/>
      <point x="412" y="459.5" type="line"/>
    </contour>
  </outline>
</glyph>
<glyph name="z" format="1">
  <advance width="434"/>
  <unicode hex="007A"/>
  <outline>
    <contour>
      <point x="363.5" y="411" type="line"/>
      <point x="84" y="411" type="line"/>
      <point x="92.5" y="460" type="line"/>
      <point x="467.5" y="460" type="line"/>
      <point x="91.5" y="49" type="line"/>
      <point x="388.5" y="49" type="line"/>
      <point x="380" y="0" type="line"/>
      <point x="-12.5" y="0" type="line"/>
    </contour>
  </outline>
</glyph>
<glyph name="braceleft" format="2">
  <advance width="289"/>
  <unicode hex="007B"/>
  <outline>
    <contour>
      <point x="244.965" y="652.1" type="curve" smooth="yes"/>
      <point x="216.595" y="466.3" type="line" smooth="yes"/>
      <point x="203.57" y="380.608"/>
      <point x="178.343" y="296.252"/>
      <point x="95.1225" y="283.66" type="curve"/>
      <point x="97.03" y="296.84" type="line"/>
      <point x="175.762" y="280.55"/>
      <point x="172.125" y="192.368"/>
      <point x="161.903" y="113.7" type="curve" smooth="yes"/>
      <point x="132.73" y="-72.4025" type="line" smooth="yes"/>
      <point x="127.045" y="-117.968"/>
      <point x="134.817" y="-153.095"/>
      <point x="179.92" y="-153.398" type="curve" smooth="yes"/>
      <point x="209.298" y="-153.398" type="line"/>
      <point x="202.352" y="-200" type="line"/>
      <point x="159.863" y="-200" type="line" smooth="yes"/>
      <point x="94.3575" y="-200.303"/>
      <point x="75.405" y="-137.093"/>
      <point x="83.905" y="-60" type="curve" smooth="yes"/>
      <point x="116.405" y="150" type="line" smooth="yes"/>
      <point x="123.103" y="210.988"/>
      <point x="115.325" y="246.19"/>
      <point x="83.7325" y="269.875" type="curve"/>
      <point x="89.77" y="310.125" type="line"/>
      <point x="127.653" y="329.81"/>
      <point x="150.208" y="366.42"/>
      <point x="158.8" y="430" type="curve" smooth="yes"/>
      <point x="190.8" y="640.303" type="line" smooth="yes"/>
      <point x="201.8" y="722.092"/>
      <point x="243.438" y="779.5"/>
      <point x="308.548" y="779.5" type="curve" smooth="yes"/>
      <point x="352.748" y="779.5" type="line"/>
      <point x="346.105" y="733.7" type="line"/>
      <point x="318.135" y="733.7" type="line" smooth="yes"/>
      <point x="272.02" y="733.7"/>
      <point x="251.94" y="700.653"/>
    </contour>
  </outline>
</glyph>
<glyph name="bar" format="2">
  <advance width="240"/>
  <unicode hex="007C"/>
  <outline>
    <contour>
      <point x="200.395" y="784.697" type="line"/>
      <point x="248.51" y="784.697" type="line"/>
      <point x="94.4175" y="-214.697" type="line"/>
      <point x="46.3025" y="-214.697" type="line"/>
    </contour>
  </outline>
</glyph>
<glyph name="braceright" format="1">
  <advance width="289"/>
  <unicode hex="007D"/>
  <outline>
    <contour>
      <point x="105.5" y="-72" type="curve" smooth="yes"/>
      <point x="133.5" y="114" type="line" smooth="yes"/>
      <point x="146.5" y="199.5"/>
      <point x="172" y="284"/>
      <point x="255" y="296.5" type="curve"/>
      <point x="253" y="283" type="line"/>
      <point x="174.5" y="299.5"/>
      <point x="178.5" y="387.5"/>
      <point x="188.5" y="466" type="curve" smooth="yes"/>
      <point x="217.5" y="652.5" type="line" smooth="yes"/>
      <point x="223" y="698.5"/>
      <point x="215.5" y="733"/>
      <point x="170" y="733.5" type="curve" smooth="yes"/>
      <point x="141.5" y="734" type="line"/>
      <point x="148" y="780" type="line"/>
      <point x="190" y="780" type="line" smooth="yes"/>
      <point x="255.5" y="780"/>
      <point x="274.5" y="717"/>
      <point x="266" y="640" type="curve" smooth="yes"/>
      <point x="233.5" y="430" type="line" smooth="yes"/>
      <point x="227" y="369"/>
      <point x="235" y="333.5"/>
      <point x="266.5" y="310" type="curve"/>
      <point x="260.5" y="270" type="line"/>
      <point x="222.5" y="250.5"/>
      <point x="200" y="213.5"/>
      <point x="191.5" y="150" type="curve" smooth="yes"/>
      <point x="159.5" y="-60.5" type="line" smooth="yes"/>
      <point x="148.5" y="-142.5"/>
      <point x="106.5" y="-199.5"/>
      <point x="41.5" y="-199.5" type="curve" smooth="yes"/>
      <point x="-2.5" y="-199.5" type="line"/>
      <point x="4.5" y="-154" type="line"/>
      <point x="32" y="-154" type="line" smooth="yes"/>
      <point x="78.5" y="-154"/>
      <point x="98.5" y="-121"/>
    </contour>
  </outline>
</glyph>
<glyph name="asciitilde" format="1">
  <advance width="558"/>
  <unicode hex="007E"/>
  <outline>
    <contour>
      <point x="127" y="177" type="curve"/>
      <point x="80.5" y="181" type="line"/>
      <point x="80" y="188.5"/>
      <point x="79.5" y="197"/>
      <point x="80.5" y="205.5" type="curve" smooth="yes"/>
      <point x="85" y="232"/>
      <point x="97.5" y="259.5"/>
      <point x="116.5" y="281" type="curve" smooth="yes"/>
      <point x="141.5" y="309"/>
      <point x="177" y="326.5"/>
      <point x="216" y="326.5" type="curve" smooth="yes"/>
      <point x="261" y="326.5"/>
      <point x="293.5" y="298"/>
      <point x="324.5" y="267" type="curve" smooth="yes"/>
      <point x="346" y="244.5"/>
      <point x="369.5" y="221.5"/>
      <point x="399" y="221.5" type="curve" smooth="yes"/>
      <point x="438.5" y="221.5"/>
      <point x="464" y="255"/>
      <point x="470" y="293.5" type="curve" smooth="yes"/>
      <point x="472" y="302"/>
      <point x="471.5" y="312.5"/>
      <point x="469.5" y="322" type="curve"/>
      <point x="519.5" y="318" type="line"/>
      <point x="520" y="309.5"/>
      <point x="520.5" y="299"/>
      <point x="519" y="289.5" type="curve" smooth="yes"/>
      <point x="515" y="263.5"/>
      <point x="505" y="235"/>
      <point x="486.5" y="214" type="curve" smooth="yes"/>
      <point x="464" y="188"/>
      <point x="431.5" y="172"/>
      <point x="397.5" y="172.5" type="curve" smooth="yes"/>
      <point x="356.5" y="173"/>
      <point x="326.5" y="199.5"/>
      <point x="296" y="229" type="curve" smooth="yes"/>
      <point x="272.5" y="253"/>
      <point x="247" y="278.5"/>
      <point x="211.5" y="278.5" type="curve" smooth="yes"/>
      <point x="164.5" y="278.5"/>
      <point x="134" y="242.5"/>
      <point x="127" y="199" type="curve" smooth="yes"/>
      <point x="125.5" y="192"/>
      <point x="126" y="184.5"/>
    </contour>
  </outline>
</glyph>
<glyph name="exclamdown" format="2">
  <advance width="291"/>
  <unicode hex="00A1"/>
  <outline>
    <contour>
      <point x="116.625" y="-244.803" type="line"/>
      <point x="50.595" y="-244.803" type="line"/>
      <point x="150.17" y="254.5" type="line"/>
      <point x="188.537" y="254.5" type="line"/>
    </contour>
    <contour>
      <point x="235.89" y="429.8" type="curve" smooth="yes"/>
      <point x="233.877" y="411.293"/>
      <point x="212.252" y="392.18"/>
      <point x="193.442" y="393.087" type="curve" smooth="yes"/>
      <point x="174.028" y="393.995"/>
      <point x="160.347" y="411.7"/>
      <point x="162.36" y="431.01" type="curve" smooth="yes"/>
      <point x="164.373" y="449.517"/>
      <point x="185.998" y="468.63"/>
      <point x="204.808" y="467.723" type="curve" smooth="yes"/>
      <point x="224.222" y="466.815"/>
      <point x="237.903" y="449.11"/>
    </contour>
  </outline>
</glyph>
<glyph name="cent" format="2">
  <advance width="562"/>
  <unicode hex="00A2"/>
  <outline>
    <contour>
      <point x="261.955" y="20.91" type="line"/>
      <point x="301.952" y="20.91" type="line"/>
      <point x="280.298" y="-111.5" type="line"/>
      <point x="236.85" y="-111.5" type="line"/>
    </contour>
    <contour>
      <point x="144.023" y="230" type="curve" smooth="yes"/>
      <point x="128.745" y="131.965"/>
      <point x="183.028" y="40.93"/>
      <point x="287.445" y="39.825" type="curve" smooth="yes"/>
      <point x="357.865" y="39.22"/>
      <point x="419.298" y="75.06"/>
      <point x="455.298" y="113.24" type="curve"/>
      <point x="445.13" y="48.105" type="line"/>
      <point x="406.105" y="15.0675"/>
      <point x="346.79" y="-9.5"/>
      <point x="282.71" y="-9.5" type="curve" smooth="yes"/>
      <point x="149.303" y="-9.1975"/>
      <point x="73.6725" y="103.487"/>
      <point x="92.1725" y="230" type="curve" smooth="yes"/>
      <point x="112.567" y="362.408"/>
      <point x="225.58" y="469.197"/>
      <point x="360.79" y="469.5" type="curve" smooth="yes"/>
      <point x="420.975" y="469.5"/>
      <point x="474.488" y="446.63"/>
      <point x="506.223" y="411.092" type="curve"/>
      <point x="495.752" y="345.957" type="line"/>
      <point x="473.382" y="389.045"/>
      <point x="421.277" y="420.478"/>
      <point x="356.358" y="420.175" type="curve" smooth="yes"/>
      <point x="250.243" y="419.873"/>
      <point x="161.498" y="333.627"/>
    </contour>
    <contour>
      <point x="355.245" y="577.5" type="line"/>
      <point x="398.89" y="577.5" type="line"/>
      <point x="372.89" y="442.325" type="line"/>
      <point x="333.195" y="442.325" type="line"/>
    </contour>
  </outline>
</glyph>
<glyph name="sterling" format="1">
  <advance width="562"/>
  <unicode hex="00A3"/>
  <outline>
    <contour>
      <point x="104" y="344" type="line"/>
      <point x="435" y="344" type="line"/>
      <point x="426" y="295" type="line"/>
      <point x="95" y="295" type="line"/>
    </contour>
    <contour>
      <point x="504.7" y="486.8" type="line"/>
      <point x="510.4" y="559"/>
      <point x="491.5" y="653.8"/>
      <point x="394.5" y="655.3" type="curve" smooth="yes"/>
      <point x="317.9" y="656.8"/>
      <point x="250.6" y="600.6"/>
      <point x="237.6" y="527.1" type="curve" smooth="yes"/>
      <point x="221.1" y="423.2"/>
      <point x="310" y="363.5"/>
      <point x="296" y="263.5" type="curve" smooth="yes"/>
      <point x="279.5" y="157.5"/>
      <point x="180.7" y="72.9"/>
      <point x="108.2" y="31" type="curve"/>
      <point x="111" y="52" type="line"/>
      <point x="476.5" y="52" type="line"/>
      <point x="467" y="0" type="line"/>
      <point x="46.5" y="0" type="line"/>
      <point x="133" y="88.5"/>
      <point x="224.2" y="155"/>
      <point x="242.7" y="255" type="curve" smooth="yes"/>
      <point x="257.7" y="349.6"/>
      <point x="167.5" y="414"/>
      <point x="182" y="526.5" type="curve" smooth="yes"/>
      <point x="198" y="630"/>
      <point x="288.5" y="710.5"/>
      <point x="399.5" y="709.5" type="curve" smooth="yes"/>
      <point x="524" y="708.5"/>
      <point x="559" y="589.5"/>
      <point x="553" y="504" type="curve"/>
    </contour>
  </outline>
</glyph>
<glyph name="currency" format="2">
  <advance width="554"/>
  <unicode hex="00A4"/>
  <outline>
    <contour>
      <point x="103.085" y="511.808" type="line"/>
      <point x="141.507" y="544.798" type="line"/>
      <point x="207.935" y="462.043" type="line"/>
      <point x="170.512" y="430.053" type="line"/>
    </contour>
    <contour>
      <point x="59.5875" y="55.4" type="line"/>
      <point x="31.0175" y="90.705" type="line"/>
      <point x="124.483" y="169.75" type="line"/>
      <point x="152.553" y="135.445" type="line"/>
    </contour>
    <contour>
      <point x="482.765" y="430.25" type="line"/>
      <point x="453.695" y="464.555" type="line"/>
      <point x="547.462" y="544.6" type="line"/>
      <point x="575.23" y="509.295" type="line"/>
    </contour>
    <contour>
      <point x="398.312" y="137.958" type="line"/>
      <point x="436.538" y="169.947" type="line"/>
      <point x="502.965" y="88.1925" type="line"/>
      <point x="465.74" y="55.2025" type="line"/>
    </contour>
    <contour>
      <point x="73.6975" y="300" type="curve" smooth="yes"/>
      <point x="93.6975" y="431.21"/>
      <point x="207.407" y="539.697"/>
      <point x="340.538" y="539.5" type="curve" smooth="yes"/>
      <point x="472.168" y="539.303"/>
      <point x="547.903" y="425.92"/>
      <point x="529.6" y="300" type="curve" smooth="yes"/>
      <point x="509.6" y="168.79"/>
      <point x="395.89" y="60.3025"/>
      <point x="262.76" y="60.5" type="curve" smooth="yes"/>
      <point x="131.13" y="60.6975"/>
      <point x="55.395" y="174.08"/>
    </contour>
    <contour>
      <point x="126.047" y="300" type="curve" smooth="yes"/>
      <point x="110.968" y="202.86"/>
      <point x="164.053" y="110.325"/>
      <point x="267.192" y="109.825" type="curve" smooth="yes"/>
      <point x="371.53" y="109.325"/>
      <point x="460.473" y="197.268"/>
      <point x="477.25" y="300" type="curve" smooth="yes"/>
      <point x="492.33" y="397.14"/>
      <point x="439.245" y="489.675"/>
      <point x="336.105" y="490.175" type="curve" smooth="yes"/>
      <point x="231.768" y="490.675"/>
      <point x="142.825" y="402.733"/>
    </contour>
  </outline>
</glyph>
<glyph name="yen" format="2">
  <advance width="556"/>
  <unicode hex="00A5"/>
  <outline>
    <contour>
      <point x="59.1925" y="282.402" type="line"/>
      <point x="67.3475" y="331.425" type="line"/>
      <point x="535.793" y="331.425" type="line"/>
      <point x="527.638" y="282.1" type="line"/>
    </contour>
    <contour>
      <point x="35.2725" y="142.278" type="line"/>
      <point x="43.3225" y="191.3" type="line"/>
      <point x="512.07" y="191.3" type="line"/>
      <point x="503.915" y="141.975" type="line"/>
    </contour>
    <contour>
      <point x="557.48" y="699.303" type="line"/>
      <point x="620.393" y="699.303" type="line"/>
      <point x="321.652" y="288.095" type="line"/>
      <point x="272.22" y="0" type="line"/>
      <point x="216.148" y="0" type="line"/>
      <point x="267.382" y="290.793" type="line"/>
      <point x="113.332" y="700" type="line"/>
      <point x="173.023" y="700" type="line"/>
      <point x="301.002" y="339.58" type="line"/>
    </contour>
  </outline>
</glyph>
<glyph name="brokenbar" format="2">
  <advance width="240"/>
  <unicode hex="00A6"/>
  <outline>
    <contour>
      <point x="188.593" y="694.5" type="line"/>
      <point x="236.708" y="694.5" type="line"/>
      <point x="194.917" y="455.5" type="line"/>
      <point x="146.803" y="455.5" type="line"/>
    </contour>
    <contour>
      <point x="159.708" y="244.5" type="line"/>
      <point x="117.918" y="5.5" type="line"/>
      <point x="69.8025" y="5.5" type="line"/>
      <point x="111.593" y="244.5" type="line"/>
    </contour>
  </outline>
</glyph>
<glyph name="section" format="2">
  <advance width="391"/>
  <unicode hex="00A7"/>
  <outline>
    <contour>
      <point x="394.447" y="593.918" type="line"/>
      <point x="375.75" y="635.435"/>
      <point x="334.967" y="659.57"/>
      <point x="287.882" y="659.57" type="curve" smooth="yes"/>
      <point x="243.113" y="659.57"/>
      <point x="189.312" y="638.065"/>
      <point x="182.232" y="592.648" type="curve" smooth="yes"/>
      <point x="173.745" y="541.692"/>
      <point x="246.095" y="516.798"/>
      <point x="289.348" y="496.915" type="curve" smooth="yes"/>
      <point x="347.452" y="469.902"/>
      <point x="408.155" y="431.642"/>
      <point x="398.957" y="365.55" type="curve" smooth="yes"/>
      <point x="386.155" y="273.79"/>
      <point x="306.248" y="244"/>
      <point x="215.722" y="240.803" type="curve"/>
      <point x="218.852" y="261.373" type="line"/>
      <point x="278.69" y="273.507"/>
      <point x="337.015" y="305.663"/>
      <point x="345.397" y="362.012" type="curve" smooth="yes"/>
      <point x="352.793" y="415.858"/>
      <point x="294.548" y="441.9"/>
      <point x="247.968" y="462.598" type="curve" smooth="yes"/>
      <point x="190.165" y="488.61"/>
      <point x="119.895" y="519.765"/>
      <point x="130.79" y="593.253" type="curve" smooth="yes"/>
      <point x="141.79" y="666.857"/>
      <point x="219.605" y="709.197"/>
      <point x="292.012" y="709.5" type="curve" smooth="yes"/>
      <point x="360.42" y="709.803"/>
      <point x="419.642" y="675"/>
      <point x="438.05" y="619.395" type="curve"/>
    </contour>
    <contour>
      <point x="68.1025" y="147.268" type="line"/>
      <point x="75.8" y="87.5525"/>
      <point x="119.57" y="40.325"/>
      <point x="186.445" y="39.6275" type="curve" smooth="yes"/>
      <point x="237.95" y="38.93"/>
      <point x="293.738" y="61.59"/>
      <point x="302.712" y="114.218" type="curve" smooth="yes"/>
      <point x="313.095" y="173.988"/>
      <point x="253.732" y="199.042"/>
      <point x="204.202" y="222.11" type="curve" smooth="yes"/>
      <point x="146.585" y="249.518"/>
      <point x="80.395" y="288.975"/>
      <point x="90.6975" y="359.5" type="curve" smooth="yes"/>
      <point x="104.302" y="438.353"/>
      <point x="177.407" y="475.605"/>
      <point x="274.327" y="479.197" type="curve"/>
      <point x="271.803" y="463.77" type="line"/>
      <point x="207.162" y="445.863"/>
      <point x="152.64" y="417.252"/>
      <point x="143.048" y="364.853" type="curve" smooth="yes"/>
      <point x="133.338" y="302.865"/>
      <point x="198.595" y="278.125"/>
      <point x="245.583" y="256.125" type="curve" smooth="yes"/>
      <point x="305.07" y="228.125"/>
      <point x="366.655" y="189.47"/>
      <point x="356.575" y="117.847" type="curve" smooth="yes"/>
      <point x="344.877" y="31.5625"/>
      <point x="264.47" y="-10.3025"/>
      <point x="178.685" y="-9.5" type="curve" smooth="yes"/>
      <point x="95.3825" y="-8.6975"/>
      <point x="31.3025" y="46.8025"/>
      <point x="22.6975" y="123.302" type="curve"/>
    </contour>
  </outline>
</glyph>
<glyph name="dieresis" format="1">
  <advance width="437"/>
  <unicode hex="00A8"/>
  <outline>
    <contour>
      <point x="365.5" y="672.3" type="curve" smooth="yes"/>
      <point x="367" y="690.7"/>
      <point x="388.5" y="709.5"/>
      <point x="407.2" y="708.5" type="curve" smooth="yes"/>
      <point x="426.4" y="707.5"/>
      <point x="440.4" y="690.2"/>
      <point x="438.9" y="670.8" type="curve" smooth="yes"/>
      <point x="437.4" y="652.4"/>
      <point x="415.4" y="633.6"/>
      <point x="396.7" y="634.6" type="curve" smooth="yes"/>
      <point x="377.5" y="635.6"/>
      <point x="364" y="652.9"/>
    </contour>
    <contour>
      <point x="171.5" y="672.3" type="curve" smooth="yes"/>
      <point x="173" y="690.7"/>
      <point x="194.5" y="709.5"/>
      <point x="213.2" y="708.5" type="curve" smooth="yes"/>
      <point x="232.4" y="707.5"/>
      <point x="246.4" y="690.2"/>
      <point x="244.9" y="670.8" type="curve" smooth="yes"/>
      <point x="243.4" y="652.4"/>
      <point x="221.4" y="633.6"/>
      <point x="202.7" y="634.6" type="curve" smooth="yes"/>
      <point x="183.5" y="635.6"/>
      <point x="170" y="652.9"/>
    </contour>
  </outline>
</glyph>
<glyph name="copyright" format="1">
  <advance width="776"/>
  <unicode hex="00A9"/>
  <outline>
    <contour>
      <point x="252.8" y="350" type="curve" smooth="yes"/>
      <point x="239.3" y="255.6"/>
      <point x="289.2" y="169.4"/>
      <point x="388.3" y="168.4" type="curve" smooth="yes"/>
      <point x="445.3" y="167.4"/>
      <point x="492.1" y="191.8"/>
      <point x="529.8" y="224.2" type="curve"/>
      <point x="523.3" y="180.6" type="line"/>
      <point x="484.3" y="152.1"/>
      <point x="442.3" y="134.2"/>
      <point x="386.3" y="134.7" type="curve" smooth="yes"/>
      <point x="269.8" y="135.2"/>
      <point x="202.7" y="237"/>
      <point x="217.7" y="350" type="curve" smooth="yes"/>
      <point x="233.7" y="468"/>
      <point x="331.3" y="564.3"/>
      <point x="449.3" y="565.3" type="curve" smooth="yes"/>
      <point x="503.3" y="565.8"/>
      <point x="540.8" y="549.4"/>
      <point x="575.3" y="518.9" type="curve"/>
      <point x="568.8" y="475" type="line"/>
      <point x="539.3" y="510.9"/>
      <point x="500.2" y="531.6"/>
      <point x="447.8" y="531.6" type="curve" smooth="yes"/>
      <point x="347.7" y="531.6"/>
      <point x="267.8" y="449.8"/>
    </contour>
    <contour>
      <point x="112" y="350" type="curve" smooth="yes"/>
      <point x="87.5" y="179"/>
      <point x="193" y="25"/>
      <point x="373" y="24.5" type="curve" smooth="yes"/>
      <point x="556" y="24"/>
      <point x="711" y="171"/>
      <point x="738" y="350" type="curve" smooth="yes"/>
      <point x="762.5" y="521"/>
      <point x="657" y="675"/>
      <point x="477" y="675.5" type="curve" smooth="yes"/>
      <point x="294" y="676"/>
      <point x="139" y="529"/>
    </contour>
    <contour>
      <point x="75" y="350" type="curve" smooth="yes"/>
      <point x="103.5" y="550"/>
      <point x="274" y="710.5"/>
      <point x="478.5" y="710" type="curve" smooth="yes"/>
      <point x="679.5" y="709.5"/>
      <point x="801" y="542"/>
      <point x="775" y="350" type="curve" smooth="yes"/>
      <point x="746.5" y="150"/>
      <point x="576" y="-10.5"/>
      <point x="371.5" y="-10" type="curve" smooth="yes"/>
      <point x="170.5" y="-9.5"/>
      <point x="49" y="158"/>
    </contour>
  </outline>
</glyph>
<glyph name="ordfeminine" format="1">
  <advance width="230"/>
  <unicode hex="00AA"/>
  <outline>
    <contour>
      <point x="110.3" y="530.2" type="curve" smooth="yes"/>
      <point x="106.8" y="500.8"/>
      <point x="125.8" y="480.3"/>
      <point x="156.9" y="479.3" type="curve" smooth="yes"/>
      <point x="197.9" y="477.8"/>
      <point x="229.5" y="509"/>
      <point x="241" y="545.5" type="curve"/>
      <point x="244.5" y="530" type="line"/>
      <point x="232.5" y="489.5"/>
      <point x="198.5" y="454.5"/>
      <point x="149.4" y="455.5" type="curve" smooth="yes"/>
      <point x="108.7" y="456.5"/>
      <point x="78.2" y="486.6"/>
      <point x="84.7" y="531.2" type="curve" smooth="yes"/>
      <point x="92.2" y="577.2"/>
      <point x="142.9" y="607.4"/>
      <point x="189.1" y="607.4" type="curve" smooth="yes"/>
      <point x="223.1" y="607.4"/>
      <point x="242.9" y="592.2"/>
      <point x="257" y="580.5" type="curve"/>
      <point x="254.5" y="564.1" type="line"/>
      <point x="236" y="577.1"/>
      <point x="216.2" y="588.1"/>
      <point x="189.2" y="588.1" type="curve" smooth="yes"/>
      <point x="154" y="588.1"/>
      <point x="114.8" y="564.3"/>
    </contour>
    <contour>
      <point x="138.9" y="652.7" type="curve"/>
      <point x="128.9" y="673.3" type="line"/>
      <point x="150.2" y="686.6"/>
      <point x="179.6" y="704"/>
      <point x="214.9" y="703" type="curve" smooth="yes"/>
      <point x="260.5" y="701.5"/>
      <point x="285" y="672.5"/>
      <point x="281" y="630.5" type="curve"/>
      <point x="251.5" y="460.5" type="line"/>
      <point x="225.5" y="460.5" type="line"/>
      <point x="255.5" y="631" type="line"/>
      <point x="255.5" y="658.5"/>
      <point x="243.8" y="677.5"/>
      <point x="213.4" y="679" type="curve" smooth="yes"/>
      <point x="183.4" y="680.5"/>
      <point x="156.8" y="664.7"/>
    </contour>
  </outline>
</glyph>
<glyph name="guillemotleft" format="2">
  <advance width="484"/>
  <unicode hex="00AB"/>
  <outline>
    <contour>
      <point x="267.493" y="257.118" type="line"/>
      <point x="399.255" y="49.385" type="line"/>
      <point x="362.82" y="20" type="line"/>
      <point x="210.303" y="257.21" type="line"/>
      <point x="441.005" y="489.303" type="line"/>
      <point x="469.39" y="458.707" type="line"/>
    </contour>
    <contour>
      <point x="111.993" y="257.118" type="line"/>
      <point x="244.058" y="49.385" type="line"/>
      <point x="207.518" y="20" type="line"/>
      <point x="55" y="257.21" type="line"/>
      <point x="285.702" y="489.303" type="line"/>
      <point x="314.39" y="458.707" type="line"/>
    </contour>
  </outline>
</glyph>
<glyph name="logicalnot" format="1">
  <advance width="601"/>
  <unicode hex="00AC"/>
  <outline>
    <contour>
      <point x="91" y="326" type="line"/>
      <point x="99.5" y="375" type="line"/>
      <point x="576.5" y="375" type="line"/>
      <point x="541" y="175.5" type="line"/>
      <point x="492.5" y="175.5" type="line"/>
      <point x="519.5" y="326" type="line"/>
    </contour>
  </outline>
</glyph>
<glyph name="uni00AD" format="2">
  <advance width="203"/>
  <unicode hex="00AD"/>
  <outline>
    <contour>
      <point x="16.345" y="225.977" type="line"/>
      <point x="24.5" y="275" type="line"/>
      <point x="219.907" y="275" type="line"/>
      <point x="211.252" y="225.977" type="line"/>
    </contour>
  </outline>
</glyph>
<glyph name="registered" format="2">
  <advance width="776"/>
  <unicode hex="00AE"/>
  <outline>
    <contour>
      <point x="380.832" y="350.587" type="line"/>
      <point x="417.267" y="350.587" type="line"/>
      <point x="527.145" y="149.697" type="line"/>
      <point x="486.685" y="149.697" type="line"/>
    </contour>
    <contour>
      <point x="346.467" y="569.697" type="line"/>
      <point x="379.785" y="569.697" type="line"/>
      <point x="314.692" y="150.303" type="line"/>
      <point x="281.375" y="150.303" type="line"/>
    </contour>
    <contour>
      <point x="358.173" y="540.01" type="line"/>
      <point x="362.803" y="569.697" type="line"/>
      <point x="438.785" y="570" type="line"/>
      <point x="513.692" y="568"/>
      <point x="570.587" y="522.45"/>
      <point x="560.192" y="447.45" type="curve" smooth="yes"/>
      <point x="549.495" y="371.647"/>
      <point x="480.39" y="328.4"/>
      <point x="403.285" y="326.4" type="curve"/>
      <point x="325.488" y="326.202" type="line"/>
      <point x="329.618" y="355.192" type="line"/>
      <point x="405.6" y="355.495" type="line"/>
      <point x="465.685" y="357.495"/>
      <point x="518.19" y="388.76"/>
      <point x="526.875" y="447.95" type="curve" smooth="yes"/>
      <point x="535.258" y="505.837"/>
      <point x="493.858" y="537.207"/>
      <point x="436.168" y="539.51" type="curve"/>
    </contour>
    <contour>
      <point x="112.12" y="350" type="curve" smooth="yes"/>
      <point x="87.6325" y="179.218"/>
      <point x="193.125" y="25.0025"/>
      <point x="372.92" y="24.5025" type="curve" smooth="yes"/>
      <point x="555.913" y="24.0025"/>
      <point x="710.893" y="171.218"/>
      <point x="737.88" y="350" type="curve" smooth="yes"/>
      <point x="762.367" y="520.783"/>
      <point x="656.875" y="674.997"/>
      <point x="477.08" y="675.497" type="curve" smooth="yes"/>
      <point x="294.087" y="675.997"/>
      <point x="139.107" y="528.783"/>
    </contour>
    <contour>
      <point x="74.895" y="350" type="curve" smooth="yes"/>
      <point x="103.29" y="549.5"/>
      <point x="273.592" y="710.5"/>
      <point x="478.29" y="710" type="curve" smooth="yes"/>
      <point x="679.487" y="709.5"/>
      <point x="800.697" y="542.105"/>
      <point x="774.803" y="350" type="curve" smooth="yes"/>
      <point x="746.408" y="150.5"/>
      <point x="576.21" y="-10.5"/>
      <point x="371.512" y="-10" type="curve" smooth="yes"/>
      <point x="170.315" y="-9.5"/>
      <point x="49" y="157.895"/>
    </contour>
  </outline>
</glyph>
<glyph name="macron" format="1">
  <advance width="494"/>
  <unicode hex="00AF"/>
  <outline>
    <contour>
      <point x="157" y="626" type="line"/>
      <point x="164.5" y="675" type="line"/>
      <point x="505" y="675" type="line"/>
      <point x="497.5" y="626" type="line"/>
    </contour>
  </outline>
</glyph>
<glyph name="degree" format="1">
  <advance width="269"/>
  <unicode hex="00B0"/>
  <outline>
    <contour>
      <point x="94" y="600.5" type="curve" smooth="yes"/>
      <point x="103.5" y="666"/>
      <point x="162.5" y="720"/>
      <point x="229.5" y="719.5" type="curve" smooth="yes"/>
      <point x="296.5" y="719"/>
      <point x="335.5" y="663.5"/>
      <point x="326.5" y="599.5" type="curve" smooth="yes"/>
      <point x="317" y="534"/>
      <point x="258" y="480"/>
      <point x="191" y="480.5" type="curve" smooth="yes"/>
      <point x="124" y="481"/>
      <point x="85" y="536.5"/>
    </contour>
    <contour>
      <point x="121.5" y="600" type="curve" smooth="yes"/>
      <point x="114" y="552.1"/>
      <point x="142" y="507.9"/>
      <point x="192.5" y="507.4" type="curve" smooth="yes"/>
      <point x="243.5" y="506.9"/>
      <point x="290" y="549.6"/>
      <point x="298.5" y="600" type="curve" smooth="yes"/>
      <point x="306" y="647.9"/>
      <point x="278" y="692.1"/>
      <point x="227.5" y="692.6" type="curve" smooth="yes"/>
      <point x="176.5" y="693.1"/>
      <point x="130" y="650.4"/>
    </contour>
  </outline>
</glyph>
<glyph name="plusminus" format="2">
  <advance width="594"/>
  <unicode hex="00B1"/>
  <outline>
    <contour>
      <point x="46.3025" y="0" type="line"/>
      <point x="53.8525" y="52.35" type="line"/>
      <point x="523.785" y="52.35" type="line"/>
      <point x="515.63" y="0" type="line"/>
    </contour>
    <contour>
      <point x="101.475" y="358.825" type="line"/>
      <point x="109.328" y="411.175" type="line"/>
      <point x="578.957" y="411.175" type="line"/>
      <point x="570.803" y="358.825" type="line"/>
    </contour>
    <contour>
      <point x="348.22" y="620" type="line"/>
      <point x="403.897" y="620" type="line"/>
      <point x="330.095" y="150" type="line"/>
      <point x="276.535" y="150.303" type="line"/>
    </contour>
  </outline>
</glyph>
<glyph name="uni00B2" format="2">
  <advance width="329"/>
  <unicode hex="00B2"/>
  <outline>
    <contour>
      <point x="46.975" y="282.803" type="line"/>
      <point x="270.908" y="489.655" type="line" smooth="yes"/>
      <point x="300.988" y="517.735"/>
      <point x="330.345" y="548.42"/>
      <point x="337.135" y="589.16" type="curve" smooth="yes"/>
      <point x="344.017" y="630.295"/>
      <point x="323.147" y="675.485"/>
      <point x="268.365" y="677.09" type="curve" smooth="yes"/>
      <point x="203.662" y="679.497"/>
      <point x="161.317" y="620.9"/>
      <point x="147.632" y="559" type="curve"/>
      <point x="114.407" y="559" type="line"/>
      <point x="131.012" y="638.617"/>
      <point x="185.34" y="709.697"/>
      <point x="270.483" y="708.5" type="curve" smooth="yes"/>
      <point x="348.033" y="707.803"/>
      <point x="379.663" y="643.475"/>
      <point x="370.058" y="586.438" type="curve" smooth="yes"/>
      <point x="362.558" y="540.253"/>
      <point x="330.78" y="503.043"/>
      <point x="296.373" y="471.135" type="curve" smooth="yes"/>
      <point x="121.66" y="313.91" type="line"/>
      <point x="330.73" y="313.108" type="line"/>
      <point x="325.495" y="282.303" type="line"/>
    </contour>
  </outline>
</glyph>
<glyph name="uni00B3" format="1">
  <advance width="300"/>
  <unicode hex="00B3"/>
  <outline>
    <contour>
      <point x="192.8" y="492" type="curve"/>
      <point x="196.3" y="512.9" type="line"/>
      <point x="248.3" y="517.9"/>
      <point x="299.8" y="545"/>
      <point x="309.3" y="595.9" type="curve" smooth="yes"/>
      <point x="316.3" y="636.9"/>
      <point x="293.8" y="674"/>
      <point x="246.8" y="675.5" type="curve" smooth="yes"/>
      <point x="197.1" y="677"/>
      <point x="161.9" y="638.8"/>
      <point x="149.4" y="597" type="curve"/>
      <point x="117.5" y="597.5" type="line"/>
      <point x="132.5" y="657.5"/>
      <point x="179.8" y="706.5"/>
      <point x="248.8" y="705.5" type="curve" smooth="yes"/>
      <point x="314.8" y="704.5"/>
      <point x="351.6" y="651.5"/>
      <point x="342.1" y="595.7" type="curve" smooth="yes"/>
      <point x="330.6" y="530"/>
      <point x="262.7" y="496.5"/>
    </contour>
    <contour>
      <point x="175.3" y="274.5" type="curve" smooth="yes"/>
      <point x="97.8" y="274.5"/>
      <point x="61.5" y="326"/>
      <point x="65.5" y="391" type="curve"/>
      <point x="98.3" y="391" type="line"/>
      <point x="96.3" y="343.2"/>
      <point x="119.8" y="306.6"/>
      <point x="177.3" y="305.6" type="curve" smooth="yes"/>
      <point x="231.6" y="304.6"/>
      <point x="278.3" y="342.6"/>
      <point x="285.8" y="392.6" type="curve" smooth="yes"/>
      <point x="295.3" y="452.7"/>
      <point x="242.8" y="478.2"/>
      <point x="191.3" y="483.2" type="curve"/>
      <point x="194.8" y="504.6" type="line"/>
      <point x="264.7" y="500.1"/>
      <point x="330.6" y="467.1"/>
      <point x="318.6" y="388.3" type="curve" smooth="yes"/>
      <point x="308.6" y="321.5"/>
      <point x="246.3" y="274.5"/>
    </contour>
  </outline>
</glyph>
<glyph name="acute" format="2">
  <advance width="354"/>
  <unicode hex="00B4"/>
  <outline>
    <contour>
      <point x="360.305" y="671.035" type="line"/>
      <point x="164.885" y="520.875" type="line"/>
      <point x="138" y="541.303" type="line"/>
      <point x="315.493" y="699.303" type="line"/>
    </contour>
  </outline>
</glyph>
<glyph name="paragraph" format="2">
  <advance width="510"/>
  <unicode hex="00B6"/>
  <outline>
    <contour>
      <point x="364.252" y="657.028" type="line"/>
      <point x="371.197" y="699.697" type="line"/>
      <point x="527.685" y="699.697" type="line"/>
      <point x="520.74" y="657.028" type="line"/>
    </contour>
    <contour>
      <point x="500.035" y="699.5" type="line"/>
      <point x="545.73" y="699.5" type="line"/>
      <point x="388.637" y="-219.5" type="line"/>
      <point x="342.942" y="-219.5" type="line"/>
    </contour>
    <contour>
      <point x="371.197" y="699.697" type="line"/>
      <point x="417.288" y="699.5" type="line"/>
      <point x="259.998" y="-219.5" type="line"/>
      <point x="214.303" y="-219.5" type="line"/>
    </contour>
    <contour>
      <point x="299.408" y="270.303" type="line"/>
      <point x="176.907" y="277"/>
      <point x="93.5958" y="356.066"/>
      <point x="113.198" y="485.303" type="curve" smooth="yes"/>
      <point x="134.395" y="619.408"/>
      <point x="243.395" y="699.895"/>
      <point x="371.197" y="699.697" type="curve"/>
    </contour>
  </outline>
</glyph>
<glyph name="periodcentered" format="2">
  <advance width="268"/>
  <unicode hex="00B7"/>
  <outline>
    <contour>
      <point x="110.043" y="233.1" type="curve" smooth="yes"/>
      <point x="112.055" y="251.607"/>
      <point x="133.68" y="270.72"/>
      <point x="152.49" y="269.812" type="curve" smooth="yes"/>
      <point x="171.905" y="268.905"/>
      <point x="186.085" y="251.2"/>
      <point x="184.072" y="231.89" type="curve" smooth="yes"/>
      <point x="182.06" y="213.382"/>
      <point x="160.132" y="194.27"/>
      <point x="141.322" y="195.178" type="curve" smooth="yes"/>
      <point x="121.907" y="196.085"/>
      <point x="108.03" y="213.79"/>
    </contour>
  </outline>
</glyph>
<glyph name="cedilla" format="2">
  <advance width="339"/>
  <unicode hex="00B8"/>
  <outline>
    <contour>
      <point x="160.94" y="35.695" type="line"/>
      <point x="202.585" y="35.695" type="line"/>
      <point x="125.918" y="-61.2825" type="line"/>
      <point x="136.91" y="-56.1475"/>
      <point x="145.625" y="-51.605"/>
      <point x="158.593" y="-52.1975" type="curve" smooth="yes"/>
      <point x="194.593" y="-55.105"/>
      <point x="223.5" y="-83.395"/>
      <point x="218.803" y="-126.802" type="curve" smooth="yes"/>
      <point x="212.105" y="-183.803"/>
      <point x="153.407" y="-220"/>
      <point x="99.71" y="-219.5" type="curve" smooth="yes"/>
      <point x="64.605" y="-219.5"/>
      <point x="42.8025" y="-206.197"/>
      <point x="18" y="-181.093" type="curve"/>
      <point x="43.65" y="-155.732" type="line"/>
      <point x="62.6125" y="-172.195"/>
      <point x="77.47" y="-183.183"/>
      <point x="103.13" y="-183.183" type="curve" smooth="yes"/>
      <point x="138.53" y="-183.183"/>
      <point x="176.59" y="-160.153"/>
      <point x="181.17" y="-125.698" type="curve" smooth="yes"/>
      <point x="184.762" y="-97.47"/>
      <point x="164.393" y="-80.23"/>
      <point x="136.417" y="-79.1375" type="curve" smooth="yes"/>
      <point x="115.388" y="-77.7425"/>
      <point x="88.9125" y="-87.6125"/>
      <point x="67.135" y="-99.2975" type="curve"/>
    </contour>
  </outline>
</glyph>
<glyph name="uni00B9" format="1">
  <advance width="456"/>
  <unicode hex="00B9"/>
  <outline>
    <contour>
      <point x="225.2" y="634" type="line"/>
      <point x="230.2" y="667.8" type="line"/>
      <point x="363.5" y="698.9" type="line"/>
      <point x="289.5" y="274.5" type="line"/>
      <point x="257" y="274.5" type="line"/>
      <point x="322" y="658" type="line"/>
    </contour>
  </outline>
</glyph>
<glyph name="ordmasculine" format="2">
  <advance width="269"/>
  <unicode hex="00BA"/>
  <outline>
    <contour>
      <point x="90.6975" y="580.5" type="curve" smooth="yes"/>
      <point x="100.395" y="646"/>
      <point x="158.593" y="700"/>
      <point x="225.79" y="699.5" type="curve" smooth="yes"/>
      <point x="292.79" y="699"/>
      <point x="332" y="643.605"/>
      <point x="322.803" y="579.5" type="curve" smooth="yes"/>
      <point x="313.105" y="514"/>
      <point x="254.907" y="460"/>
      <point x="187.71" y="460.5" type="curve" smooth="yes"/>
      <point x="120.71" y="461"/>
      <point x="81.5" y="516.395"/>
    </contour>
    <contour>
      <point x="118.347" y="580" type="curve" smooth="yes"/>
      <point x="110.86" y="531.982"/>
      <point x="138.798" y="488.137"/>
      <point x="189.118" y="487.44" type="curve" smooth="yes"/>
      <point x="240.24" y="486.743"/>
      <point x="286.863" y="529.68"/>
      <point x="295.152" y="580" type="curve" smooth="yes"/>
      <point x="302.64" y="628.018"/>
      <point x="274.702" y="671.862"/>
      <point x="224.382" y="672.56" type="curve" smooth="yes"/>
      <point x="173.26" y="673.258"/>
      <point x="126.638" y="630.32"/>
    </contour>
  </outline>
</glyph>
<glyph name="guillemotright" format="2">
  <advance width="484"/>
  <unicode hex="00BB"/>
  <outline>
    <contour>
      <point x="250.528" y="252.882" type="line"/>
      <point x="118.765" y="460.615" type="line"/>
      <point x="155.002" y="490" type="line"/>
      <point x="308.02" y="252.79" type="line"/>
      <point x="77.12" y="20.6975" type="line"/>
      <point x="48.63" y="51.2925" type="line"/>
    </contour>
    <contour>
      <point x="406.027" y="252.882" type="line"/>
      <point x="274.265" y="460.615" type="line"/>
      <point x="310.502" y="490" type="line"/>
      <point x="463.02" y="252.79" type="line"/>
      <point x="232.317" y="20.6975" type="line"/>
      <point x="203.933" y="51.2925" type="line"/>
    </contour>
  </outline>
</glyph>
<glyph name="onequarter" format="1">
  <advance width="731"/>
  <unicode hex="00BC"/>
  <outline>
    <contour>
      <point x="711.6" y="699" type="line"/>
      <point x="755.5" y="698.5" type="line"/>
      <point x="111.4" y="0" type="line"/>
      <point x="67.5" y="0" type="line"/>
    </contour>
    <contour>
      <point x="106.7" y="634" type="line"/>
      <point x="111.7" y="667.8" type="line"/>
      <point x="245" y="698.9" type="line"/>
      <point x="171.5" y="274.5" type="line"/>
      <point x="138.5" y="274.5" type="line"/>
      <point x="203.5" y="658" type="line"/>
    </contour>
    <contour>
      <point x="374.6" y="84.5" type="line"/>
      <point x="404.9" y="112.7" type="line"/>
      <point x="596" y="113.2" type="line"/>
      <point x="602.9" y="113.2" type="line"/>
      <point x="680.8" y="113.2" type="line"/>
      <point x="676.3" y="84.5" type="line"/>
    </contour>
    <contour>
      <point x="409.7" y="85" type="line"/>
      <point x="374.1" y="85.5" type="line"/>
      <point x="656" y="419" type="line"/>
      <point x="669.3" y="419.5" type="line"/>
      <point x="597.8" y="0" type="line"/>
      <point x="564.8" y="0" type="line"/>
      <point x="581.8" y="97.8" type="line"/>
      <point x="582.3" y="102.2" type="line"/>
      <point x="623.3" y="340.1" type="line"/>
    </contour>
  </outline>
</glyph>
<glyph name="onehalf" format="2">
  <advance width="794"/>
  <unicode hex="00BD"/>
  <outline>
    <contour>
      <point x="711.133" y="699" type="line"/>
      <point x="755.5" y="698.697" type="line"/>
      <point x="111.868" y="0" type="line"/>
      <point x="67.5" y="0" type="line"/>
    </contour>
    <contour>
      <point x="106.698" y="633.528" type="line"/>
      <point x="111.933" y="667.753" type="line"/>
      <point x="245.225" y="699.117" type="line"/>
      <point x="171.528" y="274.5" type="line"/>
      <point x="138.303" y="274.5" type="line"/>
      <point x="203.45" y="657.645" type="line"/>
    </contour>
    <contour>
      <point x="452.685" y="2.8025" type="line"/>
      <point x="676.617" y="209.26" type="line" smooth="yes"/>
      <point x="706.697" y="237.34"/>
      <point x="736.055" y="268.025"/>
      <point x="742.845" y="308.765" type="curve" smooth="yes"/>
      <point x="749.727" y="349.9"/>
      <point x="728.857" y="394.985"/>
      <point x="674.075" y="396.788" type="curve" smooth="yes"/>
      <point x="609.372" y="399.195"/>
      <point x="567.028" y="340.9"/>
      <point x="553.342" y="279" type="curve"/>
      <point x="520.117" y="279" type="line"/>
      <point x="536.722" y="358.618"/>
      <point x="590.747" y="429.697"/>
      <point x="675.89" y="428.5" type="curve" smooth="yes"/>
      <point x="753.44" y="427.605"/>
      <point x="785.768" y="363.08"/>
      <point x="776.163" y="306.043" type="curve" smooth="yes"/>
      <point x="768.663" y="259.858"/>
      <point x="736.293" y="223.042"/>
      <point x="701.885" y="191.135" type="curve" smooth="yes"/>
      <point x="527.37" y="33.91" type="line"/>
      <point x="736.44" y="33.1075" type="line"/>
      <point x="731.205" y="2.3025" type="line"/>
    </contour>
  </outline>
</glyph>
<glyph name="threequarters" format="1">
  <advance width="795"/>
  <unicode hex="00BE"/>
  <outline>
    <contour>
      <point x="776.6" y="699" type="line"/>
      <point x="820.5" y="698.5" type="line"/>
      <point x="176.4" y="0" type="line"/>
      <point x="132.5" y="0" type="line"/>
    </contour>
    <contour>
      <point x="197.8" y="492" type="curve"/>
      <point x="201.3" y="512.9" type="line"/>
      <point x="253.3" y="517.9"/>
      <point x="304.8" y="545"/>
      <point x="314.3" y="595.9" type="curve" smooth="yes"/>
      <point x="321.3" y="636.9"/>
      <point x="298.8" y="674"/>
      <point x="251.8" y="675.5" type="curve" smooth="yes"/>
      <point x="202.1" y="677"/>
      <point x="166.4" y="638.8"/>
      <point x="153.9" y="597" type="curve"/>
      <point x="122.5" y="597.5" type="line"/>
      <point x="137.5" y="657.5"/>
      <point x="184.8" y="706.5"/>
      <point x="253.8" y="705.5" type="curve" smooth="yes"/>
      <point x="319.8" y="704.5"/>
      <point x="356.6" y="651.5"/>
      <point x="347.1" y="595.7" type="curve" smooth="yes"/>
      <point x="335.6" y="530"/>
      <point x="267.7" y="496.5"/>
    </contour>
    <contour>
      <point x="180.3" y="274.5" type="curve" smooth="yes"/>
      <point x="102.8" y="274.5"/>
      <point x="66" y="326"/>
      <point x="70" y="391" type="curve"/>
      <point x="102.8" y="391" type="line"/>
      <point x="100.8" y="343.2"/>
      <point x="124.3" y="306.6"/>
      <point x="181.8" y="305.6" type="curve" smooth="yes"/>
      <point x="236.1" y="304.6"/>
      <point x="283.3" y="342.6"/>
      <point x="290.8" y="392.6" type="curve" smooth="yes"/>
      <point x="300.3" y="452.7"/>
      <point x="247.8" y="478.2"/>
      <point x="196.3" y="483.2" type="curve"/>
      <point x="199.8" y="504.6" type="line"/>
      <point x="269.7" y="500.1"/>
      <point x="335.6" y="467.1"/>
      <point x="323.6" y="388.3" type="curve" smooth="yes"/>
      <point x="313.6" y="321.5"/>
      <point x="251.3" y="274.5"/>
    </contour>
    <contour>
      <point x="439.6" y="84.5" type="line"/>
      <point x="469.9" y="112.7" type="line"/>
      <point x="661" y="113.2" type="line"/>
      <point x="667.9" y="113.2" type="line"/>
      <point x="745.8" y="113.2" type="line"/>
      <point x="741.3" y="84.5" type="line"/>
    </contour>
    <contour>
      <point x="474.7" y="85" type="line"/>
      <point x="439.1" y="85.5" type="line"/>
      <point x="721" y="419" type="line"/>
      <point x="734.3" y="419.5" type="line"/>
      <point x="662.8" y="0" type="line"/>
      <point x="629.8" y="0" type="line"/>
      <point x="646.8" y="97.8" type="line"/>
      <point x="647.3" y="102.2" type="line"/>
      <point x="688.3" y="340.1" type="line"/>
    </contour>
  </outline>
</glyph>
<glyph name="questiondown" format="2">
  <advance width="534"/>
  <unicode hex="00BF"/>
  <outline>
    <contour>
      <point x="123.065" y="191.903" type="curve" smooth="yes"/>
      <point x="107.392" y="106.49"/>
      <point x="159.015" y="40.325"/>
      <point x="253.192" y="39.825" type="curve" smooth="yes"/>
      <point x="328.475" y="39.325"/>
      <point x="383.715" y="81.2625"/>
      <point x="427.745" y="133.477" type="curve"/>
      <point x="466.798" y="105.698" type="line"/>
      <point x="411.087" y="40.185"/>
      <point x="345.377" y="-10.3025"/>
      <point x="243.012" y="-9.5" type="curve" smooth="yes"/>
      <point x="124.093" y="-8.5"/>
      <point x="54.0175" y="83.155"/>
      <point x="71.0175" y="192.403" type="curve" smooth="yes"/>
      <point x="90.4125" y="304.952"/>
      <point x="199.19" y="380.108"/>
      <point x="315.56" y="391.435" type="curve"/>
      <point x="344.257" y="529.697" type="line"/>
      <point x="383.217" y="530" type="line"/>
      <point x="368.293" y="355" type="line"/>
      <point x="353.47" y="355.197" type="line"/>
      <point x="225.917" y="349.34"/>
      <point x="138.787" y="274.533"/>
    </contour>
    <contour>
      <point x="426.835" y="674.8" type="curve" smooth="yes"/>
      <point x="424.822" y="656.293"/>
      <point x="402.895" y="637.18"/>
      <point x="384.085" y="638.087" type="curve" smooth="yes"/>
      <point x="364.67" y="638.995"/>
      <point x="350.99" y="656.7"/>
      <point x="353.002" y="676.01" type="curve" smooth="yes"/>
      <point x="355.015" y="694.518"/>
      <point x="376.64" y="713.63"/>
      <point x="395.45" y="712.722" type="curve" smooth="yes"/>
      <point x="414.865" y="711.815"/>
      <point x="428.848" y="694.11"/>
    </contour>
  </outline>
</glyph>
<glyph name="Agrave" format="2">
  <advance width="617"/>
  <unicode hex="00C0"/>
  <outline>
    <contour>
      <point x="147.945" y="235.095" type="line"/>
      <point x="173.645" y="286.538" type="line"/>
      <point x="488.983" y="286.84" type="line"/>
      <point x="498.07" y="234.49" type="line"/>
    </contour>
    <contour>
      <point x="385.827" y="599.67" type="line"/>
      <point x="196.665" y="269.135" type="line"/>
      <point x="189.72" y="256.665" type="line"/>
      <point x="42.3625" y="0" type="line"/>
      <point x="-20.4575" y="0" type="line"/>
      <point x="405.86" y="728.008" type="line"/>
      <point x="581.337" y="0" type="line"/>
      <point x="521.24" y="0" type="line"/>
      <point x="463.832" y="253.035" type="line"/>
      <point x="461.215" y="266.32" type="line"/>
    </contour>
    <contour>
      <point x="312.885" y="940.47" type="line"/>
      <point x="364.235" y="967.028" type="line"/>
      <point x="492.043" y="806.62" type="line"/>
      <point x="461.527" y="787.298" type="line"/>
    </contour>
  </outline>
</glyph>
<glyph name="Aacute" format="1">
  <advance width="616"/>
  <unicode hex="00C1"/>
  <outline>
    <contour>
      <point x="148" y="235.4" type="line"/>
      <point x="173.5" y="286.4" type="line"/>
      <point x="489" y="286.9" type="line"/>
      <point x="498" y="234.9" type="line"/>
    </contour>
    <contour>
      <point x="386" y="600.2" type="line"/>
      <point x="196.3" y="269.1" type="line"/>
      <point x="189.2" y="256.9" type="line"/>
      <point x="41.9" y="0" type="line"/>
      <point x="-20.5" y="0" type="line"/>
      <point x="405.5" y="728" type="line"/>
      <point x="581" y="0" type="line"/>
      <point x="521.1" y="0" type="line"/>
      <point x="464.1" y="253.1" type="line"/>
      <point x="461.5" y="266.2" type="line"/>
    </contour>
    <contour>
      <point x="571.2" y="937.9" type="line"/>
      <point x="372.9" y="788" type="line"/>
      <point x="347.1" y="808.5" type="line"/>
      <point x="527.1" y="966.5" type="line"/>
    </contour>
  </outline>
</glyph>
<glyph name="Acircumflex" format="2">
  <advance width="617"/>
  <unicode hex="00C2"/>
  <outline>
    <contour>
      <point x="147.945" y="235.095" type="line"/>
      <point x="173.645" y="286.538" type="line"/>
      <point x="488.983" y="286.84" type="line"/>
      <point x="498.07" y="234.49" type="line"/>
    </contour>
    <contour>
      <point x="385.827" y="599.67" type="line"/>
      <point x="196.665" y="269.135" type="line"/>
      <point x="189.72" y="256.665" type="line"/>
      <point x="42.3625" y="0" type="line"/>
      <point x="-20.4575" y="0" type="line"/>
      <point x="405.86" y="728.008" type="line"/>
      <point x="581.337" y="0" type="line"/>
      <point x="521.24" y="0" type="line"/>
      <point x="463.832" y="253.035" type="line"/>
      <point x="461.215" y="266.32" type="line"/>
    </contour>
    <contour>
      <point x="432.705" y="873.2" type="line"/>
      <point x="289.548" y="763.597" type="line"/>
      <point x="260.255" y="791.168" type="line"/>
      <point x="439.15" y="929.668" type="line"/>
      <point x="572.36" y="789.26" type="line"/>
      <point x="536.727" y="763.202" type="line"/>
    </contour>
  </outline>
</glyph>
<glyph name="Atilde" format="1">
  <advance width="616"/>
  <unicode hex="00C3"/>
  <outline>
    <contour>
      <point x="148" y="235.4" type="line"/>
      <point x="173.5" y="286.4" type="line"/>
      <point x="489" y="286.9" type="line"/>
      <point x="498" y="234.9" type="line"/>
    </contour>
    <contour>
      <point x="386" y="600.2" type="line"/>
      <point x="196.3" y="269.1" type="line"/>
      <point x="189.2" y="256.9" type="line"/>
      <point x="41.9" y="0" type="line"/>
      <point x="-20.5" y="0" type="line"/>
      <point x="405.5" y="728" type="line"/>
      <point x="581" y="0" type="line"/>
      <point x="521.1" y="0" type="line"/>
      <point x="464.1" y="253.1" type="line"/>
      <point x="461.5" y="266.2" type="line"/>
    </contour>
    <contour>
      <point x="273.3" y="806.8" type="line"/>
      <point x="288.8" y="843.3"/>
      <point x="323.9" y="878.5"/>
      <point x="369.4" y="877.5" type="curve" smooth="yes"/>
      <point x="421.4" y="877"/>
      <point x="434.9" y="830"/>
      <point x="481.4" y="831.5" type="curve" smooth="yes"/>
      <point x="506.9" y="832.5"/>
      <point x="526.4" y="853.5"/>
      <point x="544.9" y="878.5" type="curve"/>
      <point x="572.7" y="851" type="line"/>
      <point x="551.7" y="819"/>
      <point x="517.2" y="786.5"/>
      <point x="475.2" y="787.5" type="curve" smooth="yes"/>
      <point x="426.7" y="788.5"/>
      <point x="407.5" y="834.5"/>
      <point x="365.5" y="833.5" type="curve" smooth="yes"/>
      <point x="329.5" y="832.5"/>
      <point x="314.2" y="804"/>
      <point x="305.7" y="783.5" type="curve"/>
    </contour>
  </outline>
</glyph>
<glyph name="Adieresis" format="1">
  <advance width="616"/>
  <unicode hex="00C4"/>
  <outline>
    <contour>
      <point x="148" y="235.4" type="line"/>
      <point x="173.5" y="286.4" type="line"/>
      <point x="489" y="286.9" type="line"/>
      <point x="498" y="234.9" type="line"/>
    </contour>
    <contour>
      <point x="386" y="600.2" type="line"/>
      <point x="196.3" y="269.1" type="line"/>
      <point x="189.2" y="256.9" type="line"/>
      <point x="41.9" y="0" type="line"/>
      <point x="-20.5" y="0" type="line"/>
      <point x="405.5" y="728" type="line"/>
      <point x="581" y="0" type="line"/>
      <point x="521.1" y="0" type="line"/>
      <point x="464.1" y="253.1" type="line"/>
      <point x="461.5" y="266.2" type="line"/>
    </contour>
    <contour>
      <point x="484.3" y="833.2" type="curve" smooth="yes"/>
      <point x="486.3" y="851.6"/>
      <point x="507.8" y="870.4"/>
      <point x="526.5" y="869.4" type="curve" smooth="yes"/>
      <point x="545.7" y="868.4"/>
      <point x="559.2" y="851.1"/>
      <point x="557.2" y="831.7" type="curve" smooth="yes"/>
      <point x="555.2" y="813.3"/>
      <point x="533.7" y="794.5"/>
      <point x="515" y="795.5" type="curve" smooth="yes"/>
      <point x="495.8" y="796.5"/>
      <point x="482.3" y="813.8"/>
    </contour>
    <contour>
      <point x="289.8" y="833.2" type="curve" smooth="yes"/>
      <point x="291.8" y="851.6"/>
      <point x="313.3" y="870.4"/>
      <point x="332" y="869.4" type="curve" smooth="yes"/>
      <point x="351.2" y="868.4"/>
      <point x="365.2" y="851.1"/>
      <point x="363.2" y="831.7" type="curve" smooth="yes"/>
      <point x="361.2" y="813.3"/>
      <point x="339.7" y="794.5"/>
      <point x="321" y="795.5" type="curve" smooth="yes"/>
      <point x="301.8" y="796.5"/>
      <point x="287.8" y="813.8"/>
    </contour>
  </outline>
</glyph>
<glyph name="Aring" format="2">
  <advance width="617"/>
  <unicode hex="00C5"/>
  <outline>
    <contour>
      <point x="147.945" y="235.095" type="line"/>
      <point x="173.645" y="286.538" type="line"/>
      <point x="488.983" y="286.84" type="line"/>
      <point x="498.07" y="234.49" type="line"/>
    </contour>
    <contour>
      <point x="385.827" y="599.67" type="line"/>
      <point x="196.665" y="269.135" type="line"/>
      <point x="189.72" y="256.665" type="line"/>
      <point x="42.3625" y="0" type="line"/>
      <point x="-20.4575" y="0" type="line"/>
      <point x="405.86" y="728.008" type="line"/>
      <point x="581.337" y="0" type="line"/>
      <point x="521.24" y="0" type="line"/>
      <point x="463.832" y="253.035" type="line"/>
      <point x="461.215" y="266.32" type="line"/>
    </contour>
    <contour>
      <point x="318.835" y="802.753" type="curve" smooth="yes"/>
      <point x="326.73" y="857.95"/>
      <point x="381.23" y="901.95"/>
      <point x="434.428" y="901.45" type="curve" smooth="yes"/>
      <point x="487.428" y="900.95"/>
      <point x="525.835" y="855.45"/>
      <point x="518.138" y="801.148" type="curve" smooth="yes"/>
      <point x="510.243" y="745.95"/>
      <point x="455.743" y="701.95"/>
      <point x="402.545" y="702.45" type="curve" smooth="yes"/>
      <point x="349.545" y="702.95"/>
      <point x="311.137" y="748.45"/>
    </contour>
    <contour>
      <point x="353.035" y="801.648" type="curve" smooth="yes"/>
      <point x="348.455" y="766.852"/>
      <point x="372.183" y="736.138"/>
      <point x="405.663" y="734.835" type="curve" smooth="yes"/>
      <point x="439.642" y="733.23"/>
      <point x="479.16" y="766.26"/>
      <point x="483.938" y="802.253" type="curve" smooth="yes"/>
      <point x="488.517" y="837.048"/>
      <point x="464.79" y="867.763"/>
      <point x="431.31" y="869.065" type="curve" smooth="yes"/>
      <point x="397.33" y="870.67"/>
      <point x="357.812" y="837.64"/>
    </contour>
  </outline>
</glyph>
<glyph name="AE" format="2">
  <advance width="906"/>
  <unicode hex="00C6"/>
  <outline>
    <contour>
      <point x="220.29" y="237.952" type="line"/>
      <point x="229.05" y="290" type="line"/>
      <point x="517.403" y="290" type="line"/>
      <point x="508.445" y="237.65" type="line"/>
    </contour>
    <contour>
      <point x="534.867" y="700" type="line"/>
      <point x="575.895" y="673.893" type="line"/>
      <point x="39.3075" y="0" type="line"/>
      <point x="-22.6975" y="0" type="line"/>
    </contour>
    <contour>
      <point x="478.897" y="0" type="line"/>
      <point x="487.553" y="52.35" type="line"/>
      <point x="818.227" y="52.35" type="line"/>
      <point x="809.165" y="0" type="line"/>
    </contour>
    <contour>
      <point x="597.07" y="647.65" type="line"/>
      <point x="534.867" y="700" type="line"/>
      <point x="928.665" y="700" type="line"/>
      <point x="919.707" y="647.65" type="line"/>
    </contour>
    <contour>
      <point x="539.86" y="357.683" type="line"/>
      <point x="548.515" y="409.73" type="line"/>
      <point x="859.69" y="409.73" type="line"/>
      <point x="850.93" y="357.38" type="line"/>
    </contour>
    <contour>
      <point x="567.29" y="699.5" type="line"/>
      <point x="623.362" y="699.803" type="line"/>
      <point x="502.363" y="0" type="line"/>
      <point x="448.105" y="0" type="line"/>
    </contour>
  </outline>
</glyph>
<glyph name="Ccedilla" format="2">
  <advance width="664"/>
  <unicode hex="00C7"/>
  <outline>
    <contour>
      <point x="133.232" y="350" type="curve" smooth="yes"/>
      <point x="109.955" y="194.373"/>
      <point x="191.72" y="48.955"/>
      <point x="353.495" y="47.455" type="curve" smooth="yes"/>
      <point x="449.007" y="46.6525"/>
      <point x="527.545" y="86.425"/>
      <point x="590.322" y="142.055" type="curve"/>
      <point x="578.55" y="68.475" type="line"/>
      <point x="513.155" y="19.6725"/>
      <point x="442.155" y="-9.5125"/>
      <point x="347.957" y="-9.0125" type="curve" smooth="yes"/>
      <point x="152.26" y="-8.0125"/>
      <point x="47.345" y="163.08"/>
      <point x="74.6475" y="350" type="curve" smooth="yes"/>
      <point x="105.147" y="547.013"/>
      <point x="267.933" y="708.21"/>
      <point x="466.538" y="709.21" type="curve" smooth="yes"/>
      <point x="555.34" y="709.71"/>
      <point x="617.945" y="683.92"/>
      <point x="673.852" y="630.92" type="curve"/>
      <point x="661.975" y="557.538" type="line"/>
      <point x="615.617" y="619.378"/>
      <point x="547.722" y="652.94"/>
      <point x="461" y="652.742" type="curve" smooth="yes"/>
      <point x="297.225" y="652.045"/>
      <point x="160.208" y="516.01"/>
    </contour>
    <contour>
      <point x="344.47" y="34.4975" type="line"/>
      <point x="385.812" y="34.4975" type="line"/>
      <point x="309.447" y="-62.2825" type="line"/>
      <point x="320.44" y="-57.1475"/>
      <point x="329.457" y="-52.605"/>
      <point x="342.425" y="-53.1975" type="curve" smooth="yes"/>
      <point x="378.123" y="-56.105"/>
      <point x="407.03" y="-84.6975"/>
      <point x="402.03" y="-127.802" type="curve" smooth="yes"/>
      <point x="395.03" y="-184.5"/>
      <point x="337.24" y="-220.697"/>
      <point x="283.543" y="-220.5" type="curve" smooth="yes"/>
      <point x="248.438" y="-220.5"/>
      <point x="226.333" y="-206.895"/>
      <point x="201.227" y="-182.093" type="curve"/>
      <point x="227.18" y="-156.732" type="line"/>
      <point x="246.143" y="-173.195"/>
      <point x="261.303" y="-184.183"/>
      <point x="286.962" y="-184.183" type="curve" smooth="yes"/>
      <point x="322.363" y="-184.183"/>
      <point x="359.923" y="-161.153"/>
      <point x="364.502" y="-126.698" type="curve" smooth="yes"/>
      <point x="368.095" y="-98.47"/>
      <point x="348.225" y="-81.23"/>
      <point x="320.25" y="-80.1375" type="curve" smooth="yes"/>
      <point x="299.22" y="-78.7425"/>
      <point x="272.14" y="-88.6125"/>
      <point x="250.363" y="-100.297" type="curve"/>
    </contour>
  </outline>
</glyph>
<glyph name="Egrave" format="2">
  <advance width="517"/>
  <unicode hex="00C8"/>
  <outline>
    <contour>
      <point x="82.8725" y="0" type="line"/>
      <point x="91.33" y="52.35" type="line"/>
      <point x="429.51" y="52.35" type="line"/>
      <point x="420.75" y="0" type="line"/>
    </contour>
    <contour>
      <point x="193.613" y="647.952" type="line"/>
      <point x="202.07" y="700" type="line"/>
      <point x="539.75" y="700" type="line"/>
      <point x="530.99" y="647.65" type="line"/>
    </contour>
    <contour>
      <point x="143.835" y="357.683" type="line"/>
      <point x="152.792" y="409.73" type="line"/>
      <point x="470.973" y="409.73" type="line"/>
      <point x="462.212" y="357.38" type="line"/>
    </contour>
    <contour>
      <point x="173.042" y="699.5" type="line"/>
      <point x="229.115" y="699.803" type="line"/>
      <point x="108.312" y="0" type="line"/>
      <point x="54.3575" y="0" type="line"/>
    </contour>
    <contour>
      <point x="257.515" y="922.58" type="line"/>
      <point x="308.668" y="949.138" type="line"/>
      <point x="436.475" y="788.73" type="line"/>
      <point x="406.262" y="769.408" type="line"/>
    </contour>
  </outline>
</glyph>
<glyph name="Eacute" format="2">
  <advance width="517"/>
  <unicode hex="00C9"/>
  <outline>
    <contour>
      <point x="82.8725" y="0" type="line"/>
      <point x="91.33" y="52.35" type="line"/>
      <point x="429.51" y="52.35" type="line"/>
      <point x="420.75" y="0" type="line"/>
    </contour>
    <contour>
      <point x="193.613" y="647.952" type="line"/>
      <point x="202.07" y="700" type="line"/>
      <point x="539.75" y="700" type="line"/>
      <point x="530.99" y="647.65" type="line"/>
    </contour>
    <contour>
      <point x="143.835" y="357.683" type="line"/>
      <point x="152.792" y="409.73" type="line"/>
      <point x="470.973" y="409.73" type="line"/>
      <point x="462.212" y="357.38" type="line"/>
    </contour>
    <contour>
      <point x="173.042" y="699.5" type="line"/>
      <point x="229.115" y="699.803" type="line"/>
      <point x="108.312" y="0" type="line"/>
      <point x="54.3575" y="0" type="line"/>
    </contour>
    <contour>
      <point x="531.067" y="920.067" type="line"/>
      <point x="333.055" y="770.21" type="line"/>
      <point x="306.565" y="790.638" type="line"/>
      <point x="487.058" y="948.638" type="line"/>
    </contour>
  </outline>
</glyph>
<glyph name="Ecircumflex" format="1">
  <advance width="517"/>
  <unicode hex="00CA"/>
  <outline>
    <contour>
      <point x="82.5" y="0" type="line"/>
      <point x="91" y="52" type="line"/>
      <point x="429" y="52" type="line"/>
      <point x="420.5" y="0" type="line"/>
    </contour>
    <contour>
      <point x="193.5" y="648.5" type="line"/>
      <point x="202" y="700" type="line"/>
      <point x="539.5" y="700" type="line"/>
      <point x="531" y="648" type="line"/>
    </contour>
    <contour>
      <point x="143.5" y="357.8" type="line"/>
      <point x="152.5" y="409.8" type="line"/>
      <point x="470.5" y="409.8" type="line"/>
      <point x="462" y="357.8" type="line"/>
    </contour>
    <contour>
      <point x="173" y="699.5" type="line"/>
      <point x="228.7" y="700" type="line"/>
      <point x="108.2" y="0" type="line"/>
      <point x="54.5" y="0" type="line"/>
    </contour>
    <contour>
      <point x="394.5" y="879.6" type="line"/>
      <point x="251.4" y="770.1" type="line"/>
      <point x="222.5" y="797.5" type="line"/>
      <point x="401" y="936" type="line"/>
      <point x="534.5" y="795.5" type="line"/>
      <point x="499.1" y="769.6" type="line"/>
    </contour>
  </outline>
</glyph>
<glyph name="Edieresis" format="1">
  <advance width="517"/>
  <unicode hex="00CB"/>
  <outline>
    <contour>
      <point x="82.5" y="0" type="line"/>
      <point x="91" y="52" type="line"/>
      <point x="429" y="52" type="line"/>
      <point x="420.5" y="0" type="line"/>
    </contour>
    <contour>
      <point x="193.5" y="648.5" type="line"/>
      <point x="202" y="700" type="line"/>
      <point x="539.5" y="700" type="line"/>
      <point x="531" y="648" type="line"/>
    </contour>
    <contour>
      <point x="143.5" y="357.8" type="line"/>
      <point x="152.5" y="409.8" type="line"/>
      <point x="470.5" y="409.8" type="line"/>
      <point x="462" y="357.8" type="line"/>
    </contour>
    <contour>
      <point x="173" y="699.5" type="line"/>
      <point x="228.7" y="700" type="line"/>
      <point x="108.2" y="0" type="line"/>
      <point x="54.5" y="0" type="line"/>
    </contour>
    <contour>
      <point x="444.3" y="827.3" type="curve" smooth="yes"/>
      <point x="446.3" y="845.7"/>
      <point x="467.8" y="864.5"/>
      <point x="486.5" y="863.5" type="curve" smooth="yes"/>
      <point x="505.7" y="862.5"/>
      <point x="519.7" y="845.2"/>
      <point x="517.7" y="825.8" type="curve" smooth="yes"/>
      <point x="515.7" y="807.4"/>
      <point x="494.2" y="788.6"/>
      <point x="475.5" y="789.6" type="curve" smooth="yes"/>
      <point x="456.3" y="790.6"/>
      <point x="442.3" y="807.9"/>
    </contour>
    <contour>
      <point x="249.8" y="827.3" type="curve" smooth="yes"/>
      <point x="251.8" y="845.7"/>
      <point x="273.3" y="864.5"/>
      <point x="292" y="863.5" type="curve" smooth="yes"/>
      <point x="311.2" y="862.5"/>
      <point x="325.7" y="845.2"/>
      <point x="323.7" y="825.8" type="curve" smooth="yes"/>
      <point x="321.7" y="807.4"/>
      <point x="300.2" y="788.6"/>
      <point x="281.5" y="789.6" type="curve" smooth="yes"/>
      <point x="262.3" y="790.6"/>
      <point x="247.8" y="807.9"/>
    </contour>
  </outline>
</glyph>
<glyph name="Igrave" format="1">
  <advance width="212"/>
  <unicode hex="00CC"/>
  <outline>
    <contour>
      <point x="171.5" y="699.5" type="line"/>
      <point x="226.5" y="700" type="line"/>
      <point x="105.5" y="0" type="line"/>
      <point x="52.5" y="0" type="line"/>
    </contour>
    <contour>
      <point x="99.4" y="922.5" type="line"/>
      <point x="150.8" y="949.1" type="line"/>
      <point x="278.3" y="788.6" type="line"/>
      <point x="247.7" y="769.6" type="line"/>
    </contour>
  </outline>
</glyph>
<glyph name="Iacute" format="2">
  <advance width="212"/>
  <unicode hex="00CD"/>
  <outline>
    <contour>
      <point x="171.265" y="699.5" type="line"/>
      <point x="226.942" y="699.803" type="line"/>
      <point x="105.942" y="0" type="line"/>
      <point x="52.3825" y="0" type="line"/>
    </contour>
    <contour>
      <point x="373.025" y="920.067" type="line"/>
      <point x="175.012" y="769.908" type="line"/>
      <point x="149.127" y="790.638" type="line"/>
      <point x="329.62" y="948.638" type="line"/>
    </contour>
  </outline>
</glyph>
<glyph name="Icircumflex" format="1">
  <advance width="212"/>
  <unicode hex="00CE"/>
  <outline>
    <contour>
      <point x="171.5" y="699.5" type="line"/>
      <point x="226.5" y="700" type="line"/>
      <point x="105.5" y="0" type="line"/>
      <point x="52.5" y="0" type="line"/>
    </contour>
    <contour>
      <point x="231.1" y="879.6" type="line"/>
      <point x="87.5" y="770.1" type="line"/>
      <point x="58.6" y="797.5" type="line"/>
      <point x="237.1" y="936" type="line"/>
      <point x="370.6" y="795.5" type="line"/>
      <point x="335.2" y="769.6" type="line"/>
    </contour>
  </outline>
</glyph>
<glyph name="Idieresis" format="2">
  <advance width="212"/>
  <unicode hex="00CF"/>
  <outline>
    <contour>
      <point x="171.265" y="699.5" type="line"/>
      <point x="226.942" y="699.803" type="line"/>
      <point x="105.942" y="0" type="line"/>
      <point x="52.3825" y="0" type="line"/>
    </contour>
    <contour>
      <point x="267.113" y="815.335" type="curve" smooth="yes"/>
      <point x="269.125" y="833.54"/>
      <point x="290.447" y="852.955"/>
      <point x="309.257" y="852.048" type="curve" smooth="yes"/>
      <point x="328.673" y="851.14"/>
      <point x="343.155" y="833.435"/>
      <point x="341.142" y="814.125" type="curve" smooth="yes"/>
      <point x="339.13" y="795.617"/>
      <point x="316.9" y="776.505"/>
      <point x="298.09" y="777.413" type="curve" smooth="yes"/>
      <point x="278.373" y="778.32"/>
      <point x="265.1" y="796.327"/>
    </contour>
    <contour>
      <point x="96.22" y="815.335" type="curve" smooth="yes"/>
      <point x="98.2325" y="833.54"/>
      <point x="119.252" y="852.955"/>
      <point x="138.062" y="852.048" type="curve" smooth="yes"/>
      <point x="157.477" y="851.14"/>
      <point x="172.065" y="833.435"/>
      <point x="170.053" y="814.125" type="curve" smooth="yes"/>
      <point x="168.04" y="795.617"/>
      <point x="145.81" y="776.505"/>
      <point x="127" y="777.413" type="curve" smooth="yes"/>
      <point x="107.282" y="778.32"/>
      <point x="94.2075" y="796.327"/>
    </contour>
  </outline>
</glyph>
<glyph name="Eth" format="2">
  <advance width="659"/>
  <unicode hex="00D0"/>
  <outline>
    <contour>
      <point x="33.1725" y="324.127" type="line"/>
      <point x="41.3275" y="373.15" type="line"/>
      <point x="333.433" y="373.15" type="line"/>
      <point x="325.277" y="323.825" type="line"/>
    </contour>
    <contour>
      <point x="173.042" y="699.5" type="line"/>
      <point x="229.115" y="699.803" type="line"/>
      <point x="108.312" y="0" type="line"/>
      <point x="54.3575" y="0" type="line"/>
    </contour>
    <contour>
      <point x="241.107" y="0" type="curve"/>
      <point x="83.15" y="0" type="line"/>
      <point x="93.015" y="55.77" type="line"/>
      <point x="246.645" y="55.77" type="line"/>
      <point x="419.945" y="58.9675"/>
      <point x="550.03" y="180.688"/>
      <point x="578.005" y="350" type="curve" smooth="yes"/>
      <point x="603.283" y="511.022"/>
      <point x="521.24" y="640.533"/>
      <point x="350.743" y="644.23" type="curve"/>
      <point x="193.088" y="644.23" type="line"/>
      <point x="202.952" y="700" type="line"/>
      <point x="356.28" y="700" type="line"/>
      <point x="556.675" y="696.5"/>
      <point x="661.67" y="540.617"/>
      <point x="633.17" y="350" type="curve" smooth="yes"/>
      <point x="601.972" y="150.79"/>
      <point x="445.108" y="3"/>
    </contour>
  </outline>
</glyph>
<glyph name="Ntilde" format="1">
  <advance width="709"/>
  <unicode hex="00D1"/>
  <outline>
    <contour>
      <point x="674.5" y="700" type="line"/>
      <point x="729" y="700" type="line"/>
      <point x="604" y="-26.5" type="line"/>
      <point x="193.5" y="581.649" type="line"/>
      <point x="92.5" y="0" type="line"/>
      <point x="37.5" y="0" type="line"/>
      <point x="162.5" y="726.5" type="line"/>
      <point x="573.5" y="116.434" type="line"/>
    </contour>
    <contour>
      <point x="303.4" y="784.8" type="line"/>
      <point x="318.9" y="821.3"/>
      <point x="354" y="856.5"/>
      <point x="399.5" y="855.5" type="curve" smooth="yes"/>
      <point x="449.5" y="855"/>
      <point x="465.5" y="808"/>
      <point x="512" y="809.5" type="curve" smooth="yes"/>
      <point x="537.5" y="810.5"/>
      <point x="556.5" y="831.5"/>
      <point x="575" y="856.5" type="curve"/>
      <point x="602.6" y="829" type="line"/>
      <point x="581.6" y="797"/>
      <point x="547.1" y="764.5"/>
      <point x="505.1" y="765.5" type="curve" smooth="yes"/>
      <point x="458.6" y="766.5"/>
      <point x="437.6" y="812"/>
      <point x="395.6" y="811.5" type="curve" smooth="yes"/>
      <point x="359.6" y="811"/>
      <point x="344.1" y="782"/>
      <point x="335.6" y="761.5" type="curve"/>
    </contour>
  </outline>
</glyph>
<glyph name="Oacute" format="2">
  <advance width="760"/>
  <unicode hex="00D3"/>
  <outline>
    <contour>
      <point x="132.838" y="350" type="curve" smooth="yes"/>
      <point x="109.06" y="194.188"/>
      <point x="190.683" y="47.665"/>
      <point x="359.087" y="46.8625" type="curve" smooth="yes"/>
      <point x="529.492" y="46.06"/>
      <point x="666.065" y="185.398"/>
      <point x="693.04" y="350" type="curve" smooth="yes"/>
      <point x="716.817" y="505.812"/>
      <point x="635.195" y="652.335"/>
      <point x="466.79" y="653.138" type="curve" smooth="yes"/>
      <point x="296.385" y="653.94"/>
      <point x="159.812" y="514.602"/>
    </contour>
    <contour>
      <point x="74.6475" y="350" type="curve" smooth="yes"/>
      <point x="105.147" y="545.803"/>
      <point x="269.895" y="709.71"/>
      <point x="471.827" y="709.21" type="curve" smooth="yes"/>
      <point x="671.155" y="708.71"/>
      <point x="778.533" y="536.71"/>
      <point x="751.23" y="350" type="curve" smooth="yes"/>
      <point x="720.73" y="154.197"/>
      <point x="555.68" y="-9.71"/>
      <point x="353.748" y="-9.21" type="curve" smooth="yes"/>
      <point x="154.42" y="-8.71"/>
      <point x="47.345" y="163.29"/>
    </contour>
    <contour>
      <point x="633.462" y="920.067" type="line"/>
      <point x="436.24" y="770.21" type="line"/>
      <point x="408.96" y="790.638" type="line"/>
      <point x="588.952" y="948.638" type="line"/>
    </contour>
  </outline>
</glyph>
<glyph name="Ocircumflex" format="1">
  <advance width="760"/>
  <unicode hex="00D4"/>
  <outline>
    <contour>
      <point x="132.7" y="350" type="curve" smooth="yes"/>
      <point x="108.7" y="193.9"/>
      <point x="190.3" y="47.6"/>
      <point x="358.9" y="46.6" type="curve" smooth="yes"/>
      <point x="529.5" y="45.6"/>
      <point x="666.1" y="185.4"/>
      <point x="693.1" y="350" type="curve" smooth="yes"/>
      <point x="717.1" y="506.1"/>
      <point x="635.5" y="652.4"/>
      <point x="466.9" y="653.4" type="curve" smooth="yes"/>
      <point x="296.3" y="654.4"/>
      <point x="159.7" y="514.6"/>
    </contour>
    <contour>
      <point x="74.5" y="350" type="curve" smooth="yes"/>
      <point x="105" y="546"/>
      <point x="269.9" y="709.6"/>
      <point x="471.9" y="709.1" type="curve" smooth="yes"/>
      <point x="671.4" y="708.6"/>
      <point x="778.8" y="536.5"/>
      <point x="751.3" y="350" type="curve" smooth="yes"/>
      <point x="720.8" y="154"/>
      <point x="555.9" y="-9.6"/>
      <point x="353.9" y="-9.1" type="curve" smooth="yes"/>
      <point x="154.4" y="-8.6"/>
      <point x="47" y="163.5"/>
    </contour>
    <contour>
      <point x="504.9" y="879.6" type="line"/>
      <point x="361.8" y="770.1" type="line"/>
      <point x="332.9" y="797.5" type="line"/>
      <point x="511.9" y="936" type="line"/>
      <point x="644.9" y="795.5" type="line"/>
      <point x="609.5" y="769.6" type="line"/>
    </contour>
  </outline>
</glyph>
<glyph name="Otilde" format="1">
  <advance width="760"/>
  <unicode hex="00D5"/>
  <outline>
    <contour>
      <point x="132.7" y="350" type="curve" smooth="yes"/>
      <point x="108.7" y="193.9"/>
      <point x="190.3" y="47.6"/>
      <point x="358.9" y="46.6" type="curve" smooth="yes"/>
      <point x="529.5" y="45.6"/>
      <point x="666.1" y="185.4"/>
      <point x="693.1" y="350" type="curve" smooth="yes"/>
      <point x="717.1" y="506.1"/>
      <point x="635.5" y="652.4"/>
      <point x="466.9" y="653.4" type="curve" smooth="yes"/>
      <point x="296.3" y="654.4"/>
      <point x="159.7" y="514.6"/>
    </contour>
    <contour>
      <point x="74.5" y="350" type="curve" smooth="yes"/>
      <point x="105" y="546"/>
      <point x="269.9" y="709.6"/>
      <point x="471.9" y="709.1" type="curve" smooth="yes"/>
      <point x="671.4" y="708.6"/>
      <point x="778.8" y="536.5"/>
      <point x="751.3" y="350" type="curve" smooth="yes"/>
      <point x="720.8" y="154"/>
      <point x="555.9" y="-9.6"/>
      <point x="353.9" y="-9.1" type="curve" smooth="yes"/>
      <point x="154.4" y="-8.6"/>
      <point x="47" y="163.5"/>
    </contour>
    <contour>
      <point x="344.4" y="800.9" type="line"/>
      <point x="348.4" y="838.4"/>
      <point x="401.5" y="872.1"/>
      <point x="440" y="871.6" type="curve" smooth="yes"/>
      <point x="490" y="871.1"/>
      <point x="505.5" y="824.1"/>
      <point x="552.5" y="825.6" type="curve" smooth="yes"/>
      <point x="578" y="826.6"/>
      <point x="597.5" y="847.6"/>
      <point x="616" y="872.6" type="curve"/>
      <point x="642.9" y="845.1" type="line"/>
      <point x="621.9" y="813.1"/>
      <point x="587.9" y="780.6"/>
      <point x="545.9" y="781.6" type="curve" smooth="yes"/>
      <point x="499.4" y="782.6"/>
      <point x="478.6" y="828.1"/>
      <point x="436.6" y="827.6" type="curve" smooth="yes"/>
      <point x="400.1" y="827.1"/>
      <point x="384.4" y="798.1"/>
      <point x="375.9" y="777.6" type="curve"/>
    </contour>
  </outline>
</glyph>
<glyph name="Odieresis" format="1">
  <advance width="760"/>
  <unicode hex="00D6"/>
  <outline>
    <contour>
      <point x="132.7" y="350" type="curve" smooth="yes"/>
      <point x="108.7" y="193.9"/>
      <point x="190.3" y="47.6"/>
      <point x="358.9" y="46.6" type="curve" smooth="yes"/>
      <point x="529.5" y="45.6"/>
      <point x="666.1" y="185.4"/>
      <point x="693.1" y="350" type="curve" smooth="yes"/>
      <point x="717.1" y="506.1"/>
      <point x="635.5" y="652.4"/>
      <point x="466.9" y="653.4" type="curve" smooth="yes"/>
      <point x="296.3" y="654.4"/>
      <point x="159.7" y="514.6"/>
    </contour>
    <contour>
      <point x="74.5" y="350" type="curve" smooth="yes"/>
      <point x="105" y="546"/>
      <point x="269.9" y="709.6"/>
      <point x="471.9" y="709.1" type="curve" smooth="yes"/>
      <point x="671.4" y="708.6"/>
      <point x="778.8" y="536.5"/>
      <point x="751.3" y="350" type="curve" smooth="yes"/>
      <point x="720.8" y="154"/>
      <point x="555.9" y="-9.6"/>
      <point x="353.9" y="-9.1" type="curve" smooth="yes"/>
      <point x="154.4" y="-8.6"/>
      <point x="47" y="163.5"/>
    </contour>
    <contour>
      <point x="557.2" y="819.3" type="curve" smooth="yes"/>
      <point x="559.2" y="837.7"/>
      <point x="580.7" y="856.5"/>
      <point x="599.4" y="855.5" type="curve" smooth="yes"/>
      <point x="618.6" y="854.5"/>
      <point x="632.6" y="837.2"/>
      <point x="630.6" y="817.8" type="curve" smooth="yes"/>
      <point x="628.6" y="799.4"/>
      <point x="607.1" y="780.6"/>
      <point x="588.4" y="781.6" type="curve" smooth="yes"/>
      <point x="569.2" y="782.6"/>
      <point x="555.2" y="799.9"/>
    </contour>
    <contour>
      <point x="355.2" y="819.3" type="curve" smooth="yes"/>
      <point x="357.2" y="837.7"/>
      <point x="378.7" y="856.5"/>
      <point x="397.4" y="855.5" type="curve" smooth="yes"/>
      <point x="416.6" y="854.5"/>
      <point x="430.6" y="837.2"/>
      <point x="428.6" y="817.8" type="curve" smooth="yes"/>
      <point x="426.6" y="799.4"/>
      <point x="405.1" y="780.6"/>
      <point x="386.4" y="781.6" type="curve" smooth="yes"/>
      <point x="367.2" y="782.6"/>
      <point x="353.2" y="799.9"/>
    </contour>
  </outline>
</glyph>
<glyph name="multiply" format="1">
  <advance width="570"/>
  <unicode hex="00D7"/>
  <outline>
    <contour>
      <point x="83.9" y="31.8" type="line"/>
      <point x="53.2" y="70" type="line"/>
      <point x="270.7" y="255.8" type="line"/>
      <point x="117" y="443.3" type="line"/>
      <point x="157.2" y="478" type="line"/>
      <point x="306.2" y="288.3" type="line"/>
      <point x="520.7" y="477.5" type="line"/>
      <point x="550.9" y="439.3" type="line"/>
      <point x="333.7" y="253.3" type="line"/>
      <point x="486.7" y="66.5" type="line"/>
      <point x="446.5" y="31.8" type="line"/>
      <point x="297.7" y="220.8" type="line"/>
    </contour>
  </outline>
</glyph>
<glyph name="Ugrave" format="2">
  <advance width="587"/>
  <unicode hex="00D9"/>
  <outline>
    <contour>
      <point x="169.148" y="699.803" type="line"/>
      <point x="224.115" y="699.803" type="line"/>
      <point x="142.22" y="226.05" type="line" smooth="yes"/>
      <point x="129.338" y="128.502"/>
      <point x="165.3" y="44.0475"/>
      <point x="272.57" y="43.245" type="curve" smooth="yes"/>
      <point x="380.445" y="42.4425"/>
      <point x="450.555" y="123.713"/>
      <point x="468.438" y="226.05" type="curve"/>
      <point x="550.03" y="699.803" type="line"/>
      <point x="605.195" y="699.803" type="line"/>
      <point x="524.102" y="226.05" type="line" smooth="yes"/>
      <point x="501.892" y="95.525"/>
      <point x="407.478" y="-9.6975"/>
      <point x="267.533" y="-9.5" type="curve" smooth="yes"/>
      <point x="129.1" y="-9.3025"/>
      <point x="70.95" y="100.013"/>
      <point x="87.8575" y="226.05" type="curve"/>
    </contour>
    <contour>
      <point x="295.243" y="922.58" type="line"/>
      <point x="346.395" y="949.138" type="line"/>
      <point x="474.202" y="788.73" type="line"/>
      <point x="443.99" y="769.408" type="line"/>
    </contour>
  </outline>
</glyph>
<glyph name="Uacute" format="2">
  <advance width="587"/>
  <unicode hex="00DA"/>
  <outline>
    <contour>
      <point x="169.148" y="699.803" type="line"/>
      <point x="224.115" y="699.803" type="line"/>
      <point x="142.22" y="226.05" type="line" smooth="yes"/>
      <point x="129.338" y="128.502"/>
      <point x="165.3" y="44.0475"/>
      <point x="272.57" y="43.245" type="curve" smooth="yes"/>
      <point x="380.445" y="42.4425"/>
      <point x="450.555" y="123.713"/>
      <point x="468.438" y="226.05" type="curve"/>
      <point x="550.03" y="699.803" type="line"/>
      <point x="605.195" y="699.803" type="line"/>
      <point x="524.102" y="226.05" type="line" smooth="yes"/>
      <point x="501.892" y="95.525"/>
      <point x="407.478" y="-9.6975"/>
      <point x="267.533" y="-9.5" type="curve" smooth="yes"/>
      <point x="129.1" y="-9.3025"/>
      <point x="70.95" y="100.013"/>
      <point x="87.8575" y="226.05" type="curve"/>
    </contour>
    <contour>
      <point x="553.587" y="920.067" type="line"/>
      <point x="355.575" y="770.21" type="line"/>
      <point x="329.085" y="790.638" type="line"/>
      <point x="509.38" y="948.638" type="line"/>
    </contour>
  </outline>
</glyph>
<glyph name="Ucircumflex" format="2">
  <advance width="587"/>
  <unicode hex="00DB"/>
  <outline>
    <contour>
      <point x="169.148" y="699.803" type="line"/>
      <point x="224.115" y="699.803" type="line"/>
      <point x="142.22" y="226.05" type="line" smooth="yes"/>
      <point x="129.338" y="128.502"/>
      <point x="165.3" y="44.0475"/>
      <point x="272.57" y="43.245" type="curve" smooth="yes"/>
      <point x="380.445" y="42.4425"/>
      <point x="450.555" y="123.713"/>
      <point x="468.438" y="226.05" type="curve"/>
      <point x="550.03" y="699.803" type="line"/>
      <point x="605.195" y="699.803" type="line"/>
      <point x="524.102" y="226.05" type="line" smooth="yes"/>
      <point x="501.892" y="95.525"/>
      <point x="407.478" y="-9.6975"/>
      <point x="267.533" y="-9.5" type="curve" smooth="yes"/>
      <point x="129.1" y="-9.3025"/>
      <point x="70.95" y="100.013"/>
      <point x="87.8575" y="226.05" type="curve"/>
    </contour>
    <contour>
      <point x="419.1" y="879.51" type="line"/>
      <point x="275.942" y="769.908" type="line"/>
      <point x="247.15" y="797.477" type="line"/>
      <point x="425.743" y="935.977" type="line"/>
      <point x="558.952" y="795.57" type="line"/>
      <point x="523.122" y="769.513" type="line"/>
    </contour>
  </outline>
</glyph>
<glyph name="Udieresis" format="2">
  <advance width="587"/>
  <unicode hex="00DC"/>
  <outline>
    <contour>
      <point x="169.148" y="699.803" type="line"/>
      <point x="224.115" y="699.803" type="line"/>
      <point x="142.22" y="226.05" type="line" smooth="yes"/>
      <point x="129.338" y="128.502"/>
      <point x="165.3" y="44.0475"/>
      <point x="272.57" y="43.245" type="curve" smooth="yes"/>
      <point x="380.445" y="42.4425"/>
      <point x="450.555" y="123.713"/>
      <point x="468.438" y="226.05" type="curve"/>
      <point x="550.03" y="699.803" type="line"/>
      <point x="605.195" y="699.803" type="line"/>
      <point x="524.102" y="226.05" type="line" smooth="yes"/>
      <point x="501.892" y="95.525"/>
      <point x="407.478" y="-9.6975"/>
      <point x="267.533" y="-9.5" type="curve" smooth="yes"/>
      <point x="129.1" y="-9.3025"/>
      <point x="70.95" y="100.013"/>
      <point x="87.8575" y="226.05" type="curve"/>
    </contour>
    <contour>
      <point x="461.092" y="807.435" type="curve" smooth="yes"/>
      <point x="463.105" y="825.942"/>
      <point x="484.73" y="845.055"/>
      <point x="503.54" y="844.148" type="curve" smooth="yes"/>
      <point x="522.955" y="843.24"/>
      <point x="536.938" y="825.535"/>
      <point x="534.925" y="806.225" type="curve" smooth="yes"/>
      <point x="532.913" y="787.717"/>
      <point x="511.288" y="768.605"/>
      <point x="492.478" y="769.513" type="curve" smooth="yes"/>
      <point x="473.062" y="770.42"/>
      <point x="459.08" y="788.125"/>
    </contour>
    <contour>
      <point x="274.598" y="807.435" type="curve" smooth="yes"/>
      <point x="276.61" y="825.942"/>
      <point x="298.235" y="845.055"/>
      <point x="317.045" y="844.148" type="curve" smooth="yes"/>
      <point x="336.46" y="843.24"/>
      <point x="350.64" y="825.535"/>
      <point x="348.627" y="806.225" type="curve" smooth="yes"/>
      <point x="346.615" y="787.717"/>
      <point x="324.688" y="768.605"/>
      <point x="305.877" y="769.513" type="curve" smooth="yes"/>
      <point x="286.462" y="770.42"/>
      <point x="272.585" y="788.125"/>
    </contour>
  </outline>
</glyph>
<glyph name="Yacute" format="2">
  <advance width="523"/>
  <unicode hex="00DD"/>
  <outline>
    <contour>
      <point x="528.5" y="920.067" type="line"/>
      <point x="330.685" y="769.908" type="line"/>
      <point x="304.603" y="790.638" type="line"/>
      <point x="484.595" y="948.638" type="line"/>
    </contour>
    <contour>
      <point x="545.702" y="699.303" type="line"/>
      <point x="609.22" y="699.303" type="line"/>
      <point x="309.165" y="286.465" type="line"/>
      <point x="259.837" y="0" type="line"/>
      <point x="204.673" y="0" type="line"/>
      <point x="255.407" y="289.188" type="line"/>
      <point x="101.555" y="700" type="line"/>
      <point x="161.548" y="700" type="line"/>
      <point x="289.132" y="339.58" type="line"/>
    </contour>
  </outline>
</glyph>
<glyph name="Thorn" format="2">
  <advance width="521"/>
  <unicode hex="00DE"/>
  <outline>
    <contour>
      <point x="169.29" y="699.5" type="line"/>
      <point x="224.968" y="699.803" type="line"/>
      <point x="103.968" y="0" type="line"/>
      <point x="50.605" y="0" type="line"/>
    </contour>
    <contour>
      <point x="165.243" y="507.65" type="line"/>
      <point x="174.805" y="560" type="line"/>
      <point x="317.033" y="560" type="line"/>
      <point x="444.033" y="557.5"/>
      <point x="534.242" y="473.803"/>
      <point x="514.847" y="349.697" type="curve" smooth="yes"/>
      <point x="494.755" y="222.895"/>
      <point x="380.255" y="142.5"/>
      <point x="249.058" y="140" type="curve"/>
      <point x="102.502" y="140" type="line"/>
      <point x="112.065" y="192.35" type="line"/>
      <point x="254.292" y="192.35" type="line"/>
      <point x="355.012" y="194.745"/>
      <point x="443.01" y="253.662"/>
      <point x="459.985" y="350" type="curve" smooth="yes"/>
      <point x="476.158" y="446.312"/>
      <point x="409.017" y="504.65"/>
      <point x="311.798" y="507.348" type="curve"/>
    </contour>
  </outline>
</glyph>
<glyph name="germandbls" format="2">
  <advance width="537"/>
  <unicode hex="00DF"/>
  <outline>
    <contour>
      <point x="235.15" y="39.325" type="line"/>
      <point x="339.74" y="47.325"/>
      <point x="436.178" y="119.095"/>
      <point x="454.955" y="231.05" type="curve" smooth="yes"/>
      <point x="473.837" y="341.615"/>
      <point x="387.488" y="412.905"/>
      <point x="281.365" y="419.707" type="curve"/>
      <point x="286.902" y="455.248" type="line"/>
      <point x="428.613" y="449.55"/>
      <point x="527.898" y="359.34"/>
      <point x="506.095" y="224.697" type="curve" smooth="yes"/>
      <point x="483.793" y="86.58"/>
      <point x="364.205" y="-2.8025"/>
      <point x="227.298" y="-9.5" type="curve"/>
    </contour>
    <contour>
      <point x="283.68" y="433.4" type="curve"/>
      <point x="289.217" y="469.335" type="line"/>
      <point x="387.945" y="473.94"/>
      <point x="462.665" y="515.57"/>
      <point x="479.14" y="599.95" type="curve" smooth="yes"/>
      <point x="492.615" y="675.102"/>
      <point x="456.467" y="739.872"/>
      <point x="362.353" y="740.175" type="curve" smooth="yes"/>
      <point x="283.935" y="740.477"/>
      <point x="218.615" y="684.085"/>
      <point x="205.548" y="606" type="curve" smooth="yes"/>
      <point x="101.245" y="0" type="line"/>
      <point x="49.395" y="0" type="line"/>
      <point x="152.895" y="606.303" type="line"/>
      <point x="170.79" y="710.117"/>
      <point x="256.655" y="789.303"/>
      <point x="366.785" y="789.5" type="curve" smooth="yes"/>
      <point x="488.883" y="789.697"/>
      <point x="549.095" y="710.92"/>
      <point x="532.398" y="605.5" type="curve" smooth="yes"/>
      <point x="512.095" y="488.715"/>
      <point x="420.31" y="437.098"/>
    </contour>
  </outline>
</glyph>
<glyph name="acircumflex" format="2">
  <advance width="541"/>
  <unicode hex="00E2"/>
  <outline>
    <contour>
      <point x="473.165" y="459.5" type="line"/>
      <point x="523.095" y="459.803" type="line"/>
      <point x="443.095" y="0" type="line"/>
      <point x="395.178" y="0" type="line"/>
    </contour>
    <contour>
      <point x="49.1475" y="230" type="curve" smooth="yes"/>
      <point x="68.6475" y="363.92"/>
      <point x="175.895" y="471"/>
      <point x="304.512" y="469.803" type="curve" smooth="yes"/>
      <point x="428.408" y="468.605"/>
      <point x="471.105" y="346.785"/>
      <point x="455.303" y="230" type="curve" smooth="yes"/>
      <point x="437.105" y="105.517"/>
      <point x="350.025" y="-9"/>
      <point x="226.537" y="-9.5" type="curve" smooth="yes"/>
      <point x="98.2225" y="-10"/>
      <point x="31.5425" y="102.172"/>
    </contour>
    <contour>
      <point x="101.498" y="230" type="curve" smooth="yes"/>
      <point x="86.8125" y="128.847"/>
      <point x="136.17" y="39.43"/>
      <point x="237.903" y="39.825" type="curve" smooth="yes"/>
      <point x="331.53" y="40.22"/>
      <point x="415.665" y="130.39"/>
      <point x="431.548" y="230" type="curve" smooth="yes"/>
      <point x="444.733" y="322.925"/>
      <point x="399.14" y="418.175"/>
      <point x="306.815" y="420.175" type="curve" smooth="yes"/>
      <point x="204.675" y="422.373"/>
      <point x="118.078" y="336.64"/>
    </contour>
    <contour>
      <point x="350.483" y="648.2" type="line"/>
      <point x="207.523" y="538.597" type="line"/>
      <point x="178.23" y="566.168" type="line"/>
      <point x="357.125" y="704.668" type="line"/>
      <point x="490.335" y="564.26" type="line"/>
      <point x="454.702" y="538.202" type="line"/>
    </contour>
  </outline>
</glyph>
<glyph name="atilde" format="1">
  <advance width="541"/>
  <unicode hex="00E3"/>
  <outline>
    <contour>
      <point x="473.2" y="459.5" type="line"/>
      <point x="522.7" y="460" type="line"/>
      <point x="442.7" y="0" type="line"/>
      <point x="395.2" y="0" type="line"/>
    </contour>
    <contour>
      <point x="49" y="230" type="curve" smooth="yes"/>
      <point x="68.5" y="364.1"/>
      <point x="176" y="471"/>
      <point x="304.5" y="470" type="curve" smooth="yes"/>
      <point x="428.6" y="469"/>
      <point x="471.5" y="346.5"/>
      <point x="455.5" y="230" type="curve" smooth="yes"/>
      <point x="437.5" y="105.5"/>
      <point x="350.1" y="-9"/>
      <point x="226.5" y="-9.5" type="curve" smooth="yes"/>
      <point x="98" y="-10"/>
      <point x="31.5" y="102.4"/>
    </contour>
    <contour>
      <point x="101.3" y="230" type="curve" smooth="yes"/>
      <point x="86.8" y="128.5"/>
      <point x="135.9" y="39"/>
      <point x="237.6" y="39.5" type="curve" smooth="yes"/>
      <point x="331.4" y="40"/>
      <point x="415.7" y="130.5"/>
      <point x="431.7" y="230" type="curve" smooth="yes"/>
      <point x="444.7" y="323"/>
      <point x="398.9" y="418.5"/>
      <point x="306.6" y="420.5" type="curve" smooth="yes"/>
      <point x="204.4" y="422.5"/>
      <point x="117.8" y="337"/>
    </contour>
    <contour>
      <point x="187.8" y="561.8" type="line"/>
      <point x="197.3" y="599.3"/>
      <point x="243.9" y="632.5"/>
      <point x="283.9" y="632.5" type="curve" smooth="yes"/>
      <point x="333.9" y="632.5"/>
      <point x="349.4" y="585"/>
      <point x="396.4" y="586.5" type="curve" smooth="yes"/>
      <point x="421.9" y="587.5"/>
      <point x="440.9" y="608.5"/>
      <point x="459.4" y="633.5" type="curve"/>
      <point x="487.2" y="606" type="line"/>
      <point x="466.2" y="574"/>
      <point x="431.7" y="541.5"/>
      <point x="389.7" y="542.5" type="curve" smooth="yes"/>
      <point x="343.2" y="543.5"/>
      <point x="322" y="589.5"/>
      <point x="280" y="588.5" type="curve" smooth="yes"/>
      <point x="244" y="587.5"/>
      <point x="228.7" y="559"/>
      <point x="220.2" y="538.5" type="curve"/>
    </contour>
  </outline>
</glyph>
<glyph name="adieresis" format="2">
  <advance width="541"/>
  <unicode hex="00E4"/>
  <outline>
    <contour>
      <point x="473.165" y="459.5" type="line"/>
      <point x="523.095" y="459.803" type="line"/>
      <point x="443.095" y="0" type="line"/>
      <point x="395.178" y="0" type="line"/>
    </contour>
    <contour>
      <point x="49.1475" y="230" type="curve" smooth="yes"/>
      <point x="68.6475" y="363.92"/>
      <point x="175.895" y="471"/>
      <point x="304.512" y="469.803" type="curve" smooth="yes"/>
      <point x="428.408" y="468.605"/>
      <point x="471.105" y="346.785"/>
      <point x="455.303" y="230" type="curve" smooth="yes"/>
      <point x="437.105" y="105.517"/>
      <point x="350.025" y="-9"/>
      <point x="226.537" y="-9.5" type="curve" smooth="yes"/>
      <point x="98.2225" y="-10"/>
      <point x="31.5425" y="102.172"/>
    </contour>
    <contour>
      <point x="101.498" y="230" type="curve" smooth="yes"/>
      <point x="86.8125" y="128.847"/>
      <point x="136.17" y="39.43"/>
      <point x="237.903" y="39.825" type="curve" smooth="yes"/>
      <point x="331.53" y="40.22"/>
      <point x="415.665" y="130.39"/>
      <point x="431.548" y="230" type="curve" smooth="yes"/>
      <point x="444.733" y="322.925"/>
      <point x="399.14" y="418.175"/>
      <point x="306.815" y="420.175" type="curve" smooth="yes"/>
      <point x="204.675" y="422.373"/>
      <point x="118.078" y="336.64"/>
    </contour>
    <contour>
      <point x="402.152" y="587.975" type="curve" smooth="yes"/>
      <point x="404.165" y="606.482"/>
      <point x="425.79" y="625.595"/>
      <point x="444.6" y="624.688" type="curve" smooth="yes"/>
      <point x="464.015" y="623.78"/>
      <point x="477.998" y="606.075"/>
      <point x="475.985" y="586.765" type="curve" smooth="yes"/>
      <point x="473.973" y="568.258"/>
      <point x="452.045" y="549.145"/>
      <point x="433.235" y="550.053" type="curve" smooth="yes"/>
      <point x="413.82" y="550.96"/>
      <point x="400.14" y="568.665"/>
    </contour>
    <contour>
      <point x="208.153" y="587.975" type="curve" smooth="yes"/>
      <point x="210.165" y="606.482"/>
      <point x="231.79" y="625.595"/>
      <point x="250.6" y="624.688" type="curve" smooth="yes"/>
      <point x="270.015" y="623.78"/>
      <point x="283.695" y="606.075"/>
      <point x="281.683" y="586.765" type="curve" smooth="yes"/>
      <point x="279.67" y="568.258"/>
      <point x="258.045" y="549.145"/>
      <point x="239.235" y="550.053" type="curve" smooth="yes"/>
      <point x="219.82" y="550.96"/>
      <point x="206.14" y="568.665"/>
    </contour>
  </outline>
</glyph>
<glyph name="aring" format="2">
  <advance width="541"/>
  <unicode hex="00E5"/>
  <outline>
    <contour>
      <point x="473.165" y="459.5" type="line"/>
      <point x="523.095" y="459.803" type="line"/>
      <point x="443.095" y="0" type="line"/>
      <point x="395.178" y="0" type="line"/>
    </contour>
    <contour>
      <point x="49.1475" y="230" type="curve" smooth="yes"/>
      <point x="68.6475" y="363.92"/>
      <point x="175.895" y="471"/>
      <point x="304.512" y="469.803" type="curve" smooth="yes"/>
      <point x="428.408" y="468.605"/>
      <point x="471.105" y="346.785"/>
      <point x="455.303" y="230" type="curve" smooth="yes"/>
      <point x="437.105" y="105.517"/>
      <point x="350.025" y="-9"/>
      <point x="226.537" y="-9.5" type="curve" smooth="yes"/>
      <point x="98.2225" y="-10"/>
      <point x="31.5425" y="102.172"/>
    </contour>
    <contour>
      <point x="101.498" y="230" type="curve" smooth="yes"/>
      <point x="86.8125" y="128.847"/>
      <point x="136.17" y="39.43"/>
      <point x="237.903" y="39.825" type="curve" smooth="yes"/>
      <point x="331.53" y="40.22"/>
      <point x="415.665" y="130.39"/>
      <point x="431.548" y="230" type="curve" smooth="yes"/>
      <point x="444.733" y="322.925"/>
      <point x="399.14" y="418.175"/>
      <point x="306.815" y="420.175" type="curve" smooth="yes"/>
      <point x="204.675" y="422.373"/>
      <point x="118.078" y="336.64"/>
    </contour>
    <contour>
      <point x="229.988" y="630.197" type="curve" smooth="yes"/>
      <point x="237.882" y="685.395"/>
      <point x="291.882" y="729.697"/>
      <point x="345.08" y="729.197" type="curve" smooth="yes"/>
      <point x="398.08" y="728.697"/>
      <point x="436.79" y="683.197"/>
      <point x="429.092" y="628.895" type="curve" smooth="yes"/>
      <point x="421.197" y="573.697"/>
      <point x="366.895" y="529.697"/>
      <point x="313.697" y="530.197" type="curve" smooth="yes"/>
      <point x="260.697" y="530.697"/>
      <point x="222.29" y="575.895"/>
    </contour>
    <contour>
      <point x="263.99" y="629.395" type="curve" smooth="yes"/>
      <point x="259.41" y="594.6"/>
      <point x="283.079" y="562.977"/>
      <point x="316.618" y="562.582" type="curve" smooth="yes"/>
      <point x="350.598" y="562.188"/>
      <point x="390.312" y="594.008"/>
      <point x="395.09" y="630" type="curve" smooth="yes"/>
      <point x="399.67" y="664.795"/>
      <point x="376.001" y="696.115"/>
      <point x="342.462" y="696.51" type="curve" smooth="yes"/>
      <point x="308.18" y="696.905"/>
      <point x="268.767" y="665.388"/>
    </contour>
  </outline>
</glyph>
<glyph name="ae" format="1">
  <advance width="800"/>
  <unicode hex="00E6"/>
  <outline>
    <contour>
      <point x="79.3" y="133.9" type="curve" smooth="yes"/>
      <point x="69.3" y="76.9"/>
      <point x="106.2" y="37.8"/>
      <point x="173.7" y="37.3" type="curve" smooth="yes"/>
      <point x="259.3" y="36.3"/>
      <point x="324.5" y="95.4"/>
      <point x="341" y="173.9" type="curve"/>
      <point x="366.9" y="143.2" type="line"/>
      <point x="348.4" y="57.2"/>
      <point x="267.5" y="-9.5"/>
      <point x="169.7" y="-9.5" type="curve" smooth="yes"/>
      <point x="74.3" y="-9.5"/>
      <point x="14" y="45.6"/>
      <point x="27" y="128.4" type="curve" smooth="yes"/>
      <point x="42" y="227.3"/>
      <point x="135.3" y="284"/>
      <point x="238.3" y="283.5" type="curve" smooth="yes"/>
      <point x="305.3" y="283.5"/>
      <point x="348.5" y="254.7"/>
      <point x="372" y="228.5" type="curve"/>
      <point x="366.5" y="197.4" type="line"/>
      <point x="332.4" y="225.1"/>
      <point x="291.5" y="243.2"/>
      <point x="237.5" y="242.7" type="curve" smooth="yes"/>
      <point x="157.8" y="242.2"/>
      <point x="91.3" y="202.9"/>
    </contour>
    <contour>
      <point x="134.1" y="369.6" type="curve"/>
      <point x="114" y="410.5" type="line"/>
      <point x="157.1" y="439.3"/>
      <point x="214.5" y="470.5"/>
      <point x="288" y="469.5" type="curve" smooth="yes"/>
      <point x="378" y="468"/>
      <point x="416.4" y="409.5"/>
      <point x="405.9" y="330" type="curve"/>
      <point x="374.9" y="142.8" type="line"/>
      <point x="336.5" y="143.3" type="line"/>
      <point x="367" y="320" type="line"/>
      <point x="374" y="373.9"/>
      <point x="345.4" y="421.5"/>
      <point x="282.9" y="423" type="curve" smooth="yes"/>
      <point x="220.4" y="425"/>
      <point x="169.7" y="393"/>
    </contour>
    <contour>
      <point x="386.7" y="217.6" type="line"/>
      <point x="393.7" y="261.5" type="line"/>
      <point x="767.5" y="262" type="line"/>
      <point x="774.2" y="217.1" type="line"/>
    </contour>
    <contour>
      <point x="726.7" y="250" type="line"/>
      <point x="739.7" y="340.6"/>
      <point x="699.2" y="422"/>
      <point x="605.7" y="423.5" type="curve" smooth="yes"/>
      <point x="503.2" y="425"/>
      <point x="426.9" y="343.7"/>
      <point x="406.9" y="250" type="curve"/>
      <point x="402.8" y="232" type="line"/>
      <point x="389.8" y="132.5"/>
      <point x="426.5" y="41"/>
      <point x="529.5" y="39.5" type="curve" smooth="yes"/>
      <point x="611" y="38.5"/>
      <point x="667" y="82.3"/>
      <point x="711.3" y="133.5" type="curve"/>
      <point x="749.9" y="105.5" type="line"/>
      <point x="693.4" y="39"/>
      <point x="626.5" y="-11"/>
      <point x="519.5" y="-9.5" type="curve" smooth="yes"/>
      <point x="396" y="-7.5"/>
      <point x="335.5" y="109.5"/>
      <point x="356" y="230" type="curve" smooth="yes"/>
      <point x="359.5" y="247"/>
      <point x="368.4" y="263"/>
      <point x="374.4" y="279" type="curve" smooth="yes"/>
      <point x="412.4" y="383.5"/>
      <point x="495.3" y="470.5"/>
      <point x="617" y="469.5" type="curve" smooth="yes"/>
      <point x="728" y="468.5"/>
      <point x="794.9" y="363.8"/>
      <point x="779.9" y="241.8" type="curve" smooth="yes"/>
      <point x="778.9" y="233.8"/>
      <point x="777.2" y="225.6"/>
      <point x="775.2" y="217.6" type="curve"/>
      <point x="723.2" y="230.5" type="line"/>
    </contour>
  </outline>
</glyph>
<glyph name="ccedilla" format="1">
  <advance width="467"/>
  <unicode hex="00E7"/>
  <outline>
    <contour>
      <point x="96.3" y="230" type="curve" smooth="yes"/>
      <point x="80.8" y="131.4"/>
      <point x="135.5" y="40.5"/>
      <point x="240" y="39.5" type="curve" smooth="yes"/>
      <point x="310" y="39"/>
      <point x="371.5" y="75.1"/>
      <point x="407.5" y="112.9" type="curve"/>
      <point x="397.5" y="48.3" type="line"/>
      <point x="358.5" y="15.4"/>
      <point x="299" y="-9.5"/>
      <point x="235" y="-9.5" type="curve" smooth="yes"/>
      <point x="101.6" y="-9"/>
      <point x="26" y="103.5"/>
      <point x="44.5" y="230" type="curve" smooth="yes"/>
      <point x="64.5" y="362.5"/>
      <point x="178.1" y="469.5"/>
      <point x="313.5" y="469.5" type="curve" smooth="yes"/>
      <point x="373.5" y="469.5"/>
      <point x="426.5" y="446.6"/>
      <point x="458.5" y="411.2" type="curve"/>
      <point x="448.5" y="346.6" type="line"/>
      <point x="426" y="389.4"/>
      <point x="374" y="421"/>
      <point x="309" y="420.5" type="curve" smooth="yes"/>
      <point x="203" y="420"/>
      <point x="113.8" y="334.6"/>
    </contour>
    <contour>
      <point x="231.8" y="33.6" type="line"/>
      <point x="272.7" y="33.6" type="line"/>
      <point x="196.6" y="-63.2" type="line"/>
      <point x="207.7" y="-58"/>
      <point x="216.8" y="-53.4"/>
      <point x="229.8" y="-53.9" type="curve" smooth="yes"/>
      <point x="265.3" y="-56.9"/>
      <point x="294.5" y="-85.4"/>
      <point x="289.5" y="-128.4" type="curve" smooth="yes"/>
      <point x="282.5" y="-184.9"/>
      <point x="224.3" y="-221.4"/>
      <point x="170.8" y="-221.4" type="curve" smooth="yes"/>
      <point x="135.8" y="-221.4"/>
      <point x="113.5" y="-207.9"/>
      <point x="88.5" y="-182.9" type="curve"/>
      <point x="114.6" y="-157.7" type="line"/>
      <point x="133.4" y="-174.3"/>
      <point x="148.4" y="-185.2"/>
      <point x="174.3" y="-185.2" type="curve" smooth="yes"/>
      <point x="209.9" y="-185.2"/>
      <point x="247.7" y="-161.8"/>
      <point x="252.2" y="-127.4" type="curve" smooth="yes"/>
      <point x="255.7" y="-98.9"/>
      <point x="235.6" y="-81.8"/>
      <point x="207.6" y="-80.8" type="curve" smooth="yes"/>
      <point x="186.6" y="-79.3"/>
      <point x="159.9" y="-89"/>
      <point x="138" y="-100.9" type="curve"/>
    </contour>
  </outline>
</glyph>
<glyph name="eacute" format="2">
  <advance width="494"/>
  <unicode hex="00E9"/>
  <outline>
    <contour>
      <point x="82.7175" y="217.412" type="line"/>
      <point x="89.965" y="261.897" type="line"/>
      <point x="420.645" y="262.2" type="line"/>
      <point x="430.137" y="344.105"/>
      <point x="391.8" y="422.002"/>
      <point x="300.185" y="423.002" type="curve" smooth="yes"/>
      <point x="204.545" y="424.002"/>
      <point x="125.998" y="346.11"/>
      <point x="108.405" y="249.335" type="curve"/>
      <point x="104.065" y="230.988" type="line"/>
      <point x="91.6575" y="132.113"/>
      <point x="130.583" y="41.1466"/>
      <point x="231.958" y="39.825" type="curve" smooth="yes"/>
      <point x="311.281" y="38.9428"/>
      <point x="364.942" y="85.3175"/>
      <point x="405.812" y="133.675" type="curve"/>
      <point x="444.47" y="105.698" type="line"/>
      <point x="392.315" y="43.9375"/>
      <point x="328.676" y="-10.2439"/>
      <point x="221.475" y="-9.5" type="curve" smooth="yes"/>
      <point x="95.74" y="-8.395"/>
      <point x="36.005" y="108.87"/>
      <point x="51.715" y="230.79" type="curve" smooth="yes"/>
      <point x="54.8075" y="251.542"/>
      <point x="59.9925" y="271.295"/>
      <point x="67.4675" y="290.455" type="curve" smooth="yes"/>
      <point x="103.153" y="390.147"/>
      <point x="193.123" y="470"/>
      <point x="304.118" y="469.5" type="curve" smooth="yes"/>
      <point x="428.033" y="468.803"/>
      <point x="488.877" y="362.685"/>
      <point x="473.97" y="241.9" type="curve" smooth="yes"/>
      <point x="472.772" y="233.702"/>
      <point x="471.18" y="225.412"/>
      <point x="469.18" y="217.412" type="curve"/>
    </contour>
    <contour>
      <point x="496.126" y="686.317" type="line"/>
      <point x="299.694" y="536.459" type="line"/>
      <point x="272.611" y="556.887" type="line"/>
      <point x="451.616" y="714.887" type="line"/>
    </contour>
  </outline>
</glyph>
<glyph name="ecircumflex" format="1">
  <advance width="494"/>
  <unicode hex="00EA"/>
  <outline>
    <contour>
      <point x="82.7" y="217.6" type="line"/>
      <point x="89.7" y="261.5" type="line"/>
      <point x="421.1" y="262" type="line"/>
      <point x="430.5" y="344.2"/>
      <point x="392.2" y="422.5"/>
      <point x="300.4" y="423.5" type="curve" smooth="yes"/>
      <point x="204.5" y="424.5"/>
      <point x="125.4" y="346.5"/>
      <point x="107.9" y="249.4" type="curve"/>
      <point x="103.8" y="230.9" type="line"/>
      <point x="91.3" y="131.7"/>
      <point x="130.6" y="41"/>
      <point x="231.9" y="39.5" type="curve" smooth="yes"/>
      <point x="311.6" y="38.5"/>
      <point x="365" y="85.2"/>
      <point x="405.8" y="133.5" type="curve"/>
      <point x="444.4" y="105.5" type="line"/>
      <point x="392.1" y="43.9"/>
      <point x="328.6" y="-10"/>
      <point x="221.4" y="-9.5" type="curve" smooth="yes"/>
      <point x="95.9" y="-8.5"/>
      <point x="36.5" y="108.9"/>
      <point x="52" y="230.9" type="curve" smooth="yes"/>
      <point x="55" y="251.9"/>
      <point x="60.4" y="271.7"/>
      <point x="67.7" y="290.8" type="curve" smooth="yes"/>
      <point x="103.3" y="390.2"/>
      <point x="193.1" y="470"/>
      <point x="303.9" y="469.5" type="curve" smooth="yes"/>
      <point x="427.9" y="469"/>
      <point x="488.9" y="362.5"/>
      <point x="473.9" y="242" type="curve" smooth="yes"/>
      <point x="472.9" y="234"/>
      <point x="471.2" y="225.6"/>
      <point x="469.2" y="217.6" type="curve"/>
    </contour>
    <contour>
      <point x="334.4" y="640.5" type="line"/>
      <point x="191.3" y="530.5" type="line"/>
      <point x="162.4" y="557.9" type="line"/>
      <point x="340.9" y="696.4" type="line"/>
      <point x="474.4" y="555.9" type="line"/>
      <point x="439" y="530" type="line"/>
    </contour>
  </outline>
</glyph>
